<?xml version="1.0" encoding="utf-8" standalone="no"?>
<!DOCTYPE svg PUBLIC "-//W3C//DTD SVG 1.1//EN"
  "http://www.w3.org/Graphics/SVG/1.1/DTD/svg11.dtd">
<svg height="345.6pt" version="1.1" viewBox="0 0 460.8 345.6" width="460.8pt" xmlns="http://www.w3.org/2000/svg" xmlns:xlink="http://www.w3.org/1999/xlink">
 <metadata>
  <rdf:RDF xmlns:cc="http://creativecommons.org/ns#" xmlns:dc="http://purl.org/dc/elements/1.1/" xmlns:rdf="http://www.w3.org/1999/02/22-rdf-syntax-ns#">
   <cc:Work>
    <dc:type rdf:resource="http://purl.org/dc/dcmitype/StillImage"/>
    <dc:date>2022-05-27T09:45:37.259127</dc:date>
    <dc:format>image/svg+xml</dc:format>
    <dc:creator>
     <cc:Agent>
      <dc:title>Matplotlib v3.3.4+2343.g7e3cef3ba, https://matplotlib.org/</dc:title>
     </cc:Agent>
    </dc:creator>
   </cc:Work>
  </rdf:RDF>
 </metadata>
 <defs>
  <style type="text/css">*{stroke-linecap:butt;stroke-linejoin:round;}</style>
 </defs>
 <g id="figure_1">
  <g id="patch_1">
   <path d="M 0 345.6 
L 460.8 345.6 
L 460.8 0 
L 0 0 
z
" style="fill:#ffffff;"/>
  </g>
  <g id="axes_1">
   <g id="patch_2">
    <path d="M 57.6 307.584 
L 414.72 307.584 
L 414.72 41.472 
L 57.6 41.472 
z
" style="fill:#ffffff;"/>
   </g>
   <g id="matplotlib.axis_1">
    <g id="xtick_1">
     <g id="line2d_1">
      <path clip-path="url(#p226b7a87ea)" d="M 73.832727 307.584 
L 73.832727 41.472 
" style="fill:none;stroke:#b0b0b0;stroke-linecap:square;stroke-width:0.8;"/>
     </g>
     <g id="line2d_2">
      <defs>
       <path d="M 0 0 
L 0 3.5 
" id="m263a199c83" style="stroke:#000000;stroke-width:0.8;"/>
      </defs>
      <g>
       <use style="stroke:#000000;stroke-width:0.8;" x="73.832727" xlink:href="#m263a199c83" y="307.584"/>
      </g>
     </g>
     <g id="text_1">
      <!-- 0 -->
      <g transform="translate(70.651477 322.182437)scale(0.1 -0.1)">
       <defs>
        <path d="M 2034 4250 
Q 1547 4250 1301 3770 
Q 1056 3291 1056 2328 
Q 1056 1369 1301 889 
Q 1547 409 2034 409 
Q 2525 409 2770 889 
Q 3016 1369 3016 2328 
Q 3016 3291 2770 3770 
Q 2525 4250 2034 4250 
z
M 2034 4750 
Q 2819 4750 3233 4129 
Q 3647 3509 3647 2328 
Q 3647 1150 3233 529 
Q 2819 -91 2034 -91 
Q 1250 -91 836 529 
Q 422 1150 422 2328 
Q 422 3509 836 4129 
Q 1250 4750 2034 4750 
z
" id="DejaVuSans-30" transform="scale(0.015625)"/>
       </defs>
       <use xlink:href="#DejaVuSans-30"/>
      </g>
     </g>
    </g>
    <g id="xtick_2">
     <g id="line2d_3">
      <path clip-path="url(#p226b7a87ea)" d="M 142.325247 307.584 
L 142.325247 41.472 
" style="fill:none;stroke:#b0b0b0;stroke-linecap:square;stroke-width:0.8;"/>
     </g>
     <g id="line2d_4">
      <g>
       <use style="stroke:#000000;stroke-width:0.8;" x="142.325247" xlink:href="#m263a199c83" y="307.584"/>
      </g>
     </g>
     <g id="text_2">
      <!-- 50 -->
      <g transform="translate(135.962747 322.182437)scale(0.1 -0.1)">
       <defs>
        <path d="M 691 4666 
L 3169 4666 
L 3169 4134 
L 1269 4134 
L 1269 2991 
Q 1406 3038 1543 3061 
Q 1681 3084 1819 3084 
Q 2600 3084 3056 2656 
Q 3513 2228 3513 1497 
Q 3513 744 3044 326 
Q 2575 -91 1722 -91 
Q 1428 -91 1123 -41 
Q 819 9 494 109 
L 494 744 
Q 775 591 1075 516 
Q 1375 441 1709 441 
Q 2250 441 2565 725 
Q 2881 1009 2881 1497 
Q 2881 1984 2565 2268 
Q 2250 2553 1709 2553 
Q 1456 2553 1204 2497 
Q 953 2441 691 2322 
L 691 4666 
z
" id="DejaVuSans-35" transform="scale(0.015625)"/>
       </defs>
       <use xlink:href="#DejaVuSans-35"/>
       <use x="63.623047" xlink:href="#DejaVuSans-30"/>
      </g>
     </g>
    </g>
    <g id="xtick_3">
     <g id="line2d_5">
      <path clip-path="url(#p226b7a87ea)" d="M 210.817768 307.584 
L 210.817768 41.472 
" style="fill:none;stroke:#b0b0b0;stroke-linecap:square;stroke-width:0.8;"/>
     </g>
     <g id="line2d_6">
      <g>
       <use style="stroke:#000000;stroke-width:0.8;" x="210.817768" xlink:href="#m263a199c83" y="307.584"/>
      </g>
     </g>
     <g id="text_3">
      <!-- 100 -->
      <g transform="translate(201.274018 322.182437)scale(0.1 -0.1)">
       <defs>
        <path d="M 794 531 
L 1825 531 
L 1825 4091 
L 703 3866 
L 703 4441 
L 1819 4666 
L 2450 4666 
L 2450 531 
L 3481 531 
L 3481 0 
L 794 0 
L 794 531 
z
" id="DejaVuSans-31" transform="scale(0.015625)"/>
       </defs>
       <use xlink:href="#DejaVuSans-31"/>
       <use x="63.623047" xlink:href="#DejaVuSans-30"/>
       <use x="127.246094" xlink:href="#DejaVuSans-30"/>
      </g>
     </g>
    </g>
    <g id="xtick_4">
     <g id="line2d_7">
      <path clip-path="url(#p226b7a87ea)" d="M 279.310288 307.584 
L 279.310288 41.472 
" style="fill:none;stroke:#b0b0b0;stroke-linecap:square;stroke-width:0.8;"/>
     </g>
     <g id="line2d_8">
      <g>
       <use style="stroke:#000000;stroke-width:0.8;" x="279.310288" xlink:href="#m263a199c83" y="307.584"/>
      </g>
     </g>
     <g id="text_4">
      <!-- 150 -->
      <g transform="translate(269.766538 322.182437)scale(0.1 -0.1)">
       <use xlink:href="#DejaVuSans-31"/>
       <use x="63.623047" xlink:href="#DejaVuSans-35"/>
       <use x="127.246094" xlink:href="#DejaVuSans-30"/>
      </g>
     </g>
    </g>
    <g id="xtick_5">
     <g id="line2d_9">
      <path clip-path="url(#p226b7a87ea)" d="M 347.802808 307.584 
L 347.802808 41.472 
" style="fill:none;stroke:#b0b0b0;stroke-linecap:square;stroke-width:0.8;"/>
     </g>
     <g id="line2d_10">
      <g>
       <use style="stroke:#000000;stroke-width:0.8;" x="347.802808" xlink:href="#m263a199c83" y="307.584"/>
      </g>
     </g>
     <g id="text_5">
      <!-- 200 -->
      <g transform="translate(338.259058 322.182437)scale(0.1 -0.1)">
       <defs>
        <path d="M 1228 531 
L 3431 531 
L 3431 0 
L 469 0 
L 469 531 
Q 828 903 1448 1529 
Q 2069 2156 2228 2338 
Q 2531 2678 2651 2914 
Q 2772 3150 2772 3378 
Q 2772 3750 2511 3984 
Q 2250 4219 1831 4219 
Q 1534 4219 1204 4116 
Q 875 4013 500 3803 
L 500 4441 
Q 881 4594 1212 4672 
Q 1544 4750 1819 4750 
Q 2544 4750 2975 4387 
Q 3406 4025 3406 3419 
Q 3406 3131 3298 2873 
Q 3191 2616 2906 2266 
Q 2828 2175 2409 1742 
Q 1991 1309 1228 531 
z
" id="DejaVuSans-32" transform="scale(0.015625)"/>
       </defs>
       <use xlink:href="#DejaVuSans-32"/>
       <use x="63.623047" xlink:href="#DejaVuSans-30"/>
       <use x="127.246094" xlink:href="#DejaVuSans-30"/>
      </g>
     </g>
    </g>
    <g id="text_6">
     <!-- Generations -->
     <g transform="translate(205.662344 335.860562)scale(0.1 -0.1)">
      <defs>
       <path d="M 3809 666 
L 3809 1919 
L 2778 1919 
L 2778 2438 
L 4434 2438 
L 4434 434 
Q 4069 175 3628 42 
Q 3188 -91 2688 -91 
Q 1594 -91 976 548 
Q 359 1188 359 2328 
Q 359 3472 976 4111 
Q 1594 4750 2688 4750 
Q 3144 4750 3555 4637 
Q 3966 4525 4313 4306 
L 4313 3634 
Q 3963 3931 3569 4081 
Q 3175 4231 2741 4231 
Q 1884 4231 1454 3753 
Q 1025 3275 1025 2328 
Q 1025 1384 1454 906 
Q 1884 428 2741 428 
Q 3075 428 3337 486 
Q 3600 544 3809 666 
z
" id="DejaVuSans-47" transform="scale(0.015625)"/>
       <path d="M 3597 1894 
L 3597 1613 
L 953 1613 
Q 991 1019 1311 708 
Q 1631 397 2203 397 
Q 2534 397 2845 478 
Q 3156 559 3463 722 
L 3463 178 
Q 3153 47 2828 -22 
Q 2503 -91 2169 -91 
Q 1331 -91 842 396 
Q 353 884 353 1716 
Q 353 2575 817 3079 
Q 1281 3584 2069 3584 
Q 2775 3584 3186 3129 
Q 3597 2675 3597 1894 
z
M 3022 2063 
Q 3016 2534 2758 2815 
Q 2500 3097 2075 3097 
Q 1594 3097 1305 2825 
Q 1016 2553 972 2059 
L 3022 2063 
z
" id="DejaVuSans-65" transform="scale(0.015625)"/>
       <path d="M 3513 2113 
L 3513 0 
L 2938 0 
L 2938 2094 
Q 2938 2591 2744 2837 
Q 2550 3084 2163 3084 
Q 1697 3084 1428 2787 
Q 1159 2491 1159 1978 
L 1159 0 
L 581 0 
L 581 3500 
L 1159 3500 
L 1159 2956 
Q 1366 3272 1645 3428 
Q 1925 3584 2291 3584 
Q 2894 3584 3203 3211 
Q 3513 2838 3513 2113 
z
" id="DejaVuSans-6e" transform="scale(0.015625)"/>
       <path d="M 2631 2963 
Q 2534 3019 2420 3045 
Q 2306 3072 2169 3072 
Q 1681 3072 1420 2755 
Q 1159 2438 1159 1844 
L 1159 0 
L 581 0 
L 581 3500 
L 1159 3500 
L 1159 2956 
Q 1341 3275 1631 3429 
Q 1922 3584 2338 3584 
Q 2397 3584 2469 3576 
Q 2541 3569 2628 3553 
L 2631 2963 
z
" id="DejaVuSans-72" transform="scale(0.015625)"/>
       <path d="M 2194 1759 
Q 1497 1759 1228 1600 
Q 959 1441 959 1056 
Q 959 750 1161 570 
Q 1363 391 1709 391 
Q 2188 391 2477 730 
Q 2766 1069 2766 1631 
L 2766 1759 
L 2194 1759 
z
M 3341 1997 
L 3341 0 
L 2766 0 
L 2766 531 
Q 2569 213 2275 61 
Q 1981 -91 1556 -91 
Q 1019 -91 701 211 
Q 384 513 384 1019 
Q 384 1609 779 1909 
Q 1175 2209 1959 2209 
L 2766 2209 
L 2766 2266 
Q 2766 2663 2505 2880 
Q 2244 3097 1772 3097 
Q 1472 3097 1187 3025 
Q 903 2953 641 2809 
L 641 3341 
Q 956 3463 1253 3523 
Q 1550 3584 1831 3584 
Q 2591 3584 2966 3190 
Q 3341 2797 3341 1997 
z
" id="DejaVuSans-61" transform="scale(0.015625)"/>
       <path d="M 1172 4494 
L 1172 3500 
L 2356 3500 
L 2356 3053 
L 1172 3053 
L 1172 1153 
Q 1172 725 1289 603 
Q 1406 481 1766 481 
L 2356 481 
L 2356 0 
L 1766 0 
Q 1100 0 847 248 
Q 594 497 594 1153 
L 594 3053 
L 172 3053 
L 172 3500 
L 594 3500 
L 594 4494 
L 1172 4494 
z
" id="DejaVuSans-74" transform="scale(0.015625)"/>
       <path d="M 603 3500 
L 1178 3500 
L 1178 0 
L 603 0 
L 603 3500 
z
M 603 4863 
L 1178 4863 
L 1178 4134 
L 603 4134 
L 603 4863 
z
" id="DejaVuSans-69" transform="scale(0.015625)"/>
       <path d="M 1959 3097 
Q 1497 3097 1228 2736 
Q 959 2375 959 1747 
Q 959 1119 1226 758 
Q 1494 397 1959 397 
Q 2419 397 2687 759 
Q 2956 1122 2956 1747 
Q 2956 2369 2687 2733 
Q 2419 3097 1959 3097 
z
M 1959 3584 
Q 2709 3584 3137 3096 
Q 3566 2609 3566 1747 
Q 3566 888 3137 398 
Q 2709 -91 1959 -91 
Q 1206 -91 779 398 
Q 353 888 353 1747 
Q 353 2609 779 3096 
Q 1206 3584 1959 3584 
z
" id="DejaVuSans-6f" transform="scale(0.015625)"/>
       <path d="M 2834 3397 
L 2834 2853 
Q 2591 2978 2328 3040 
Q 2066 3103 1784 3103 
Q 1356 3103 1142 2972 
Q 928 2841 928 2578 
Q 928 2378 1081 2264 
Q 1234 2150 1697 2047 
L 1894 2003 
Q 2506 1872 2764 1633 
Q 3022 1394 3022 966 
Q 3022 478 2636 193 
Q 2250 -91 1575 -91 
Q 1294 -91 989 -36 
Q 684 19 347 128 
L 347 722 
Q 666 556 975 473 
Q 1284 391 1588 391 
Q 1994 391 2212 530 
Q 2431 669 2431 922 
Q 2431 1156 2273 1281 
Q 2116 1406 1581 1522 
L 1381 1569 
Q 847 1681 609 1914 
Q 372 2147 372 2553 
Q 372 3047 722 3315 
Q 1072 3584 1716 3584 
Q 2034 3584 2315 3537 
Q 2597 3491 2834 3397 
z
" id="DejaVuSans-73" transform="scale(0.015625)"/>
      </defs>
      <use xlink:href="#DejaVuSans-47"/>
      <use x="77.490234" xlink:href="#DejaVuSans-65"/>
      <use x="139.013672" xlink:href="#DejaVuSans-6e"/>
      <use x="202.392578" xlink:href="#DejaVuSans-65"/>
      <use x="263.916016" xlink:href="#DejaVuSans-72"/>
      <use x="305.029297" xlink:href="#DejaVuSans-61"/>
      <use x="366.308594" xlink:href="#DejaVuSans-74"/>
      <use x="405.517578" xlink:href="#DejaVuSans-69"/>
      <use x="433.300781" xlink:href="#DejaVuSans-6f"/>
      <use x="494.482422" xlink:href="#DejaVuSans-6e"/>
      <use x="557.861328" xlink:href="#DejaVuSans-73"/>
     </g>
    </g>
   </g>
   <g id="matplotlib.axis_2">
    <g id="ytick_1">
     <g id="line2d_11">
      <path clip-path="url(#p226b7a87ea)" d="M 57.6 291.703949 
L 414.72 291.703949 
" style="fill:none;stroke:#b0b0b0;stroke-linecap:square;stroke-width:0.8;"/>
     </g>
     <g id="line2d_12">
      <defs>
       <path d="M 0 0 
L -3.5 0 
" id="mffd75963f9" style="stroke:#000000;stroke-width:0.8;"/>
      </defs>
      <g>
       <use style="stroke:#000000;stroke-width:0.8;" x="57.6" xlink:href="#mffd75963f9" y="291.703949"/>
      </g>
     </g>
     <g id="text_7">
      <!-- 0 -->
      <g transform="translate(44.2375 295.503168)scale(0.1 -0.1)">
       <use xlink:href="#DejaVuSans-30"/>
      </g>
     </g>
    </g>
    <g id="ytick_2">
     <g id="line2d_13">
      <path clip-path="url(#p226b7a87ea)" d="M 57.6 244.076759 
L 414.72 244.076759 
" style="fill:none;stroke:#b0b0b0;stroke-linecap:square;stroke-width:0.8;"/>
     </g>
     <g id="line2d_14">
      <g>
       <use style="stroke:#000000;stroke-width:0.8;" x="57.6" xlink:href="#mffd75963f9" y="244.076759"/>
      </g>
     </g>
     <g id="text_8">
      <!-- 2 -->
      <g transform="translate(44.2375 247.875978)scale(0.1 -0.1)">
       <use xlink:href="#DejaVuSans-32"/>
      </g>
     </g>
    </g>
    <g id="ytick_3">
     <g id="line2d_15">
      <path clip-path="url(#p226b7a87ea)" d="M 57.6 196.449569 
L 414.72 196.449569 
" style="fill:none;stroke:#b0b0b0;stroke-linecap:square;stroke-width:0.8;"/>
     </g>
     <g id="line2d_16">
      <g>
       <use style="stroke:#000000;stroke-width:0.8;" x="57.6" xlink:href="#mffd75963f9" y="196.449569"/>
      </g>
     </g>
     <g id="text_9">
      <!-- 4 -->
      <g transform="translate(44.2375 200.248788)scale(0.1 -0.1)">
       <defs>
        <path d="M 2419 4116 
L 825 1625 
L 2419 1625 
L 2419 4116 
z
M 2253 4666 
L 3047 4666 
L 3047 1625 
L 3713 1625 
L 3713 1100 
L 3047 1100 
L 3047 0 
L 2419 0 
L 2419 1100 
L 313 1100 
L 313 1709 
L 2253 4666 
z
" id="DejaVuSans-34" transform="scale(0.015625)"/>
       </defs>
       <use xlink:href="#DejaVuSans-34"/>
      </g>
     </g>
    </g>
    <g id="ytick_4">
     <g id="line2d_17">
      <path clip-path="url(#p226b7a87ea)" d="M 57.6 148.82238 
L 414.72 148.82238 
" style="fill:none;stroke:#b0b0b0;stroke-linecap:square;stroke-width:0.8;"/>
     </g>
     <g id="line2d_18">
      <g>
       <use style="stroke:#000000;stroke-width:0.8;" x="57.6" xlink:href="#mffd75963f9" y="148.82238"/>
      </g>
     </g>
     <g id="text_10">
      <!-- 6 -->
      <g transform="translate(44.2375 152.621598)scale(0.1 -0.1)">
       <defs>
        <path d="M 2113 2584 
Q 1688 2584 1439 2293 
Q 1191 2003 1191 1497 
Q 1191 994 1439 701 
Q 1688 409 2113 409 
Q 2538 409 2786 701 
Q 3034 994 3034 1497 
Q 3034 2003 2786 2293 
Q 2538 2584 2113 2584 
z
M 3366 4563 
L 3366 3988 
Q 3128 4100 2886 4159 
Q 2644 4219 2406 4219 
Q 1781 4219 1451 3797 
Q 1122 3375 1075 2522 
Q 1259 2794 1537 2939 
Q 1816 3084 2150 3084 
Q 2853 3084 3261 2657 
Q 3669 2231 3669 1497 
Q 3669 778 3244 343 
Q 2819 -91 2113 -91 
Q 1303 -91 875 529 
Q 447 1150 447 2328 
Q 447 3434 972 4092 
Q 1497 4750 2381 4750 
Q 2619 4750 2861 4703 
Q 3103 4656 3366 4563 
z
" id="DejaVuSans-36" transform="scale(0.015625)"/>
       </defs>
       <use xlink:href="#DejaVuSans-36"/>
      </g>
     </g>
    </g>
    <g id="ytick_5">
     <g id="line2d_19">
      <path clip-path="url(#p226b7a87ea)" d="M 57.6 101.19519 
L 414.72 101.19519 
" style="fill:none;stroke:#b0b0b0;stroke-linecap:square;stroke-width:0.8;"/>
     </g>
     <g id="line2d_20">
      <g>
       <use style="stroke:#000000;stroke-width:0.8;" x="57.6" xlink:href="#mffd75963f9" y="101.19519"/>
      </g>
     </g>
     <g id="text_11">
      <!-- 8 -->
      <g transform="translate(44.2375 104.994409)scale(0.1 -0.1)">
       <defs>
        <path d="M 2034 2216 
Q 1584 2216 1326 1975 
Q 1069 1734 1069 1313 
Q 1069 891 1326 650 
Q 1584 409 2034 409 
Q 2484 409 2743 651 
Q 3003 894 3003 1313 
Q 3003 1734 2745 1975 
Q 2488 2216 2034 2216 
z
M 1403 2484 
Q 997 2584 770 2862 
Q 544 3141 544 3541 
Q 544 4100 942 4425 
Q 1341 4750 2034 4750 
Q 2731 4750 3128 4425 
Q 3525 4100 3525 3541 
Q 3525 3141 3298 2862 
Q 3072 2584 2669 2484 
Q 3125 2378 3379 2068 
Q 3634 1759 3634 1313 
Q 3634 634 3220 271 
Q 2806 -91 2034 -91 
Q 1263 -91 848 271 
Q 434 634 434 1313 
Q 434 1759 690 2068 
Q 947 2378 1403 2484 
z
M 1172 3481 
Q 1172 3119 1398 2916 
Q 1625 2713 2034 2713 
Q 2441 2713 2670 2916 
Q 2900 3119 2900 3481 
Q 2900 3844 2670 4047 
Q 2441 4250 2034 4250 
Q 1625 4250 1398 4047 
Q 1172 3844 1172 3481 
z
" id="DejaVuSans-38" transform="scale(0.015625)"/>
       </defs>
       <use xlink:href="#DejaVuSans-38"/>
      </g>
     </g>
    </g>
    <g id="ytick_6">
     <g id="line2d_21">
      <path clip-path="url(#p226b7a87ea)" d="M 57.6 53.568 
L 414.72 53.568 
" style="fill:none;stroke:#b0b0b0;stroke-linecap:square;stroke-width:0.8;"/>
     </g>
     <g id="line2d_22">
      <g>
       <use style="stroke:#000000;stroke-width:0.8;" x="57.6" xlink:href="#mffd75963f9" y="53.568"/>
      </g>
     </g>
     <g id="text_12">
      <!-- 10 -->
      <g transform="translate(37.875 57.367219)scale(0.1 -0.1)">
       <use xlink:href="#DejaVuSans-31"/>
       <use x="63.623047" xlink:href="#DejaVuSans-30"/>
      </g>
     </g>
    </g>
    <g id="text_13">
     <!-- Fitness -->
     <g transform="translate(31.795312 191.845187)rotate(-90)scale(0.1 -0.1)">
      <defs>
       <path d="M 628 4666 
L 3309 4666 
L 3309 4134 
L 1259 4134 
L 1259 2759 
L 3109 2759 
L 3109 2228 
L 1259 2228 
L 1259 0 
L 628 0 
L 628 4666 
z
" id="DejaVuSans-46" transform="scale(0.015625)"/>
      </defs>
      <use xlink:href="#DejaVuSans-46"/>
      <use x="50.269531" xlink:href="#DejaVuSans-69"/>
      <use x="78.052734" xlink:href="#DejaVuSans-74"/>
      <use x="117.261719" xlink:href="#DejaVuSans-6e"/>
      <use x="180.640625" xlink:href="#DejaVuSans-65"/>
      <use x="242.164062" xlink:href="#DejaVuSans-73"/>
      <use x="294.263672" xlink:href="#DejaVuSans-73"/>
     </g>
    </g>
   </g>
   <g id="line2d_23">
    <path clip-path="url(#p226b7a87ea)" d="M 73.832727 276.742734 
L 75.202578 275.618423 
L 76.572428 274.723238 
L 77.942278 273.337071 
L 79.312129 272.536689 
L 80.681979 272.259558 
L 82.05183 271.754114 
L 83.42168 270.739152 
L 84.79153 270.810188 
L 86.161381 270.036434 
L 87.531231 271.120688 
L 88.901082 271.765819 
L 90.270932 272.278003 
L 91.640783 270.504094 
L 93.010633 269.715698 
L 94.380483 267.883239 
L 95.750334 269.296574 
L 97.120184 269.635139 
L 98.490035 268.75615 
L 99.859885 270.233982 
L 101.229735 269.045628 
L 102.599586 268.865604 
L 103.969436 267.089703 
L 105.339287 269.950342 
L 106.709137 267.703774 
L 108.078987 269.180691 
L 109.448838 268.36042 
L 110.818688 268.602429 
L 112.188539 269.6714 
L 113.558389 266.832852 
L 114.928239 267.796362 
L 116.29809 269.036909 
L 117.66794 269.576158 
L 119.037791 267.3593 
L 120.407641 268.463873 
L 121.777491 267.074799 
L 123.147342 267.060231 
L 124.517192 268.286424 
L 125.887043 266.431221 
L 127.256893 269.465162 
L 128.626743 268.484181 
L 129.996594 268.691257 
L 131.366444 267.74493 
L 132.736295 267.04012 
L 134.106145 266.518477 
L 135.475995 267.371727 
L 136.845846 266.058004 
L 138.215696 266.247188 
L 139.585547 266.015601 
L 142.325247 266.2835 
L 143.695098 266.524497 
L 145.064948 266.492417 
L 146.434799 266.296804 
L 147.804649 265.398412 
L 149.174499 266.853512 
L 150.54435 265.282083 
L 151.9142 269.698444 
L 153.284051 269.920907 
L 154.653901 271.130544 
L 156.023751 270.310756 
L 158.763452 269.546604 
L 160.133303 270.608842 
L 161.503153 269.785519 
L 162.873003 266.088402 
L 165.612704 269.120023 
L 166.982555 269.861409 
L 168.352405 270.932064 
L 169.722255 269.456088 
L 171.092106 268.438768 
L 172.461956 266.661843 
L 173.831807 270.490529 
L 175.201657 267.706339 
L 176.571507 269.077133 
L 177.941358 267.457016 
L 179.311208 267.18616 
L 180.681059 268.385124 
L 182.050909 267.515006 
L 183.420759 268.353534 
L 184.79061 266.417844 
L 186.16046 267.81399 
L 188.900161 269.462643 
L 191.639862 267.22284 
L 193.009712 267.80547 
L 194.379563 269.439198 
L 195.749413 267.976957 
L 197.119264 266.240964 
L 198.489114 266.100289 
L 199.858964 266.944139 
L 201.228815 266.000775 
L 202.598665 264.882173 
L 203.968516 264.770421 
L 205.338366 267.207032 
L 206.708216 266.62331 
L 208.078067 265.871527 
L 209.447917 266.598764 
L 210.817768 267.459902 
L 212.187618 267.811799 
L 213.557468 266.321285 
L 214.927319 265.943808 
L 216.297169 264.790697 
L 217.66702 265.52892 
L 219.03687 265.492356 
L 220.40672 266.760728 
L 221.776571 266.964692 
L 223.146421 266.944993 
L 224.516272 266.281279 
L 225.886122 266.547946 
L 227.255972 267.455537 
L 228.625823 263.95513 
L 229.995673 266.397222 
L 231.365524 267.40325 
L 232.735374 267.197378 
L 234.105224 266.817194 
L 235.475075 266.901347 
L 236.844925 264.481317 
L 238.214776 263.169682 
L 239.584626 263.029168 
L 240.954476 261.884791 
L 242.324327 262.748299 
L 243.694177 267.140359 
L 245.064028 265.470496 
L 246.433878 266.068937 
L 247.803728 265.43163 
L 249.173579 266.423856 
L 250.543429 268.046594 
L 251.91328 266.009296 
L 253.28313 266.314307 
L 254.65298 267.092102 
L 256.022831 265.77177 
L 257.392681 265.72299 
L 258.762532 267.97473 
L 260.132382 264.04313 
L 261.502232 263.439506 
L 262.872083 263.321493 
L 264.241933 263.828044 
L 265.611784 266.051895 
L 268.351484 262.886929 
L 269.721335 264.216211 
L 271.091185 262.825526 
L 272.461036 262.394341 
L 273.830886 263.12998 
L 275.200736 266.272028 
L 276.570587 266.052404 
L 277.940437 264.976378 
L 279.310288 264.131728 
L 280.680138 266.674237 
L 282.049988 265.529096 
L 283.419839 264.68163 
L 284.789689 262.082608 
L 286.15954 263.239523 
L 287.52939 265.165163 
L 288.899241 266.136109 
L 290.269091 265.565901 
L 291.638941 262.961762 
L 293.008792 265.330098 
L 295.748493 263.795222 
L 297.118343 263.157055 
L 298.488193 262.772864 
L 299.858044 261.988435 
L 301.227894 260.985706 
L 302.597745 263.574515 
L 303.967595 263.621332 
L 305.337445 262.670043 
L 306.707296 261.214793 
L 308.077146 264.191788 
L 309.446997 263.559176 
L 310.816847 262.574181 
L 312.186697 263.333735 
L 313.556548 262.677257 
L 314.926398 266.153139 
L 316.296249 262.105767 
L 317.666099 262.298056 
L 319.035949 263.217318 
L 320.4058 263.71338 
L 321.77565 263.649439 
L 323.145501 265.985621 
L 324.515351 264.844962 
L 325.885201 264.91106 
L 327.255052 266.892378 
L 328.624902 263.521393 
L 329.994753 264.056334 
L 331.364603 261.42879 
L 332.734453 262.912746 
L 334.104304 264.829322 
L 335.474154 264.373744 
L 336.844005 262.744166 
L 338.213855 260.171898 
L 339.583705 263.574681 
L 340.953556 263.420909 
L 342.323406 265.944173 
L 343.693257 266.211369 
L 345.063107 267.636138 
L 346.432957 265.61186 
L 347.802808 266.857105 
L 350.542509 268.03677 
L 351.912359 266.006945 
L 353.282209 266.462848 
L 354.65206 265.205392 
L 356.02191 266.311727 
L 357.391761 263.383228 
L 358.761611 265.633274 
L 360.131461 265.427437 
L 361.501312 268.21314 
L 362.871162 268.066861 
L 364.241013 265.598121 
L 365.610863 268.593164 
L 366.980713 266.61371 
L 368.350564 265.649415 
L 369.720414 265.052246 
L 371.090265 264.953296 
L 372.460115 265.326424 
L 373.829965 265.046727 
L 375.199816 264.909258 
L 376.569666 265.43505 
L 377.939517 266.895184 
L 379.309367 264.014757 
L 382.049068 267.222819 
L 383.418918 265.222243 
L 386.158619 266.942079 
L 387.52847 268.151005 
L 388.89832 267.426879 
L 390.26817 265.129153 
L 391.638021 265.788352 
L 393.007871 265.390866 
L 394.377722 266.150338 
L 395.747572 266.593076 
L 397.117422 264.770992 
L 398.487273 268.103624 
L 398.487273 268.103624 
" style="fill:none;stroke:#0000ff;stroke-linecap:square;stroke-width:1.5;"/>
   </g>
   <g id="line2d_24">
    <path clip-path="url(#p226b7a87ea)" d="M 73.832727 281.054174 
L 75.202578 281.256676 
L 76.572428 282.060878 
L 77.942278 281.851973 
L 79.312129 282.240896 
L 80.681979 283.182564 
L 82.05183 283.389702 
L 83.42168 282.589741 
L 84.79153 282.715152 
L 86.161381 282.684443 
L 87.531231 283.918824 
L 88.901082 283.469069 
L 90.270932 283.596981 
L 91.640783 283.567889 
L 93.010633 284.024767 
L 94.380483 282.670039 
L 95.750334 283.484931 
L 98.490035 283.696502 
L 99.859885 284.441691 
L 101.229735 284.864649 
L 102.599586 284.54287 
L 103.969436 283.405239 
L 105.339287 284.663142 
L 106.709137 284.283178 
L 108.078987 284.650595 
L 109.448838 283.371701 
L 112.188539 284.839269 
L 113.558389 283.073546 
L 114.928239 284.61445 
L 117.66794 286.028468 
L 119.037791 284.093929 
L 120.407641 284.59273 
L 121.777491 285.58996 
L 123.147342 285.40039 
L 124.517192 285.709209 
L 125.887043 285.196887 
L 127.256893 286.155232 
L 128.626743 286.759228 
L 129.996594 285.738829 
L 131.366444 286.836771 
L 132.736295 285.658584 
L 134.106145 285.026704 
L 135.475995 285.545366 
L 136.845846 284.525052 
L 138.215696 284.613685 
L 139.585547 285.288839 
L 140.955397 285.159385 
L 142.325247 285.976966 
L 145.064948 286.085946 
L 146.434799 285.503196 
L 147.804649 285.679378 
L 149.174499 285.659779 
L 150.54435 286.105996 
L 151.9142 289.857696 
L 153.284051 288.962352 
L 154.653901 289.02557 
L 156.023751 289.959509 
L 157.393602 288.630929 
L 158.763452 289.440894 
L 160.133303 288.657865 
L 161.503153 287.721813 
L 162.873003 287.590938 
L 164.242854 288.360055 
L 165.612704 288.965155 
L 166.982555 290.565594 
L 168.352405 289.274785 
L 169.722255 290.042492 
L 171.092106 288.82475 
L 172.461956 289.254567 
L 173.831807 290.226906 
L 175.201657 289.401537 
L 176.571507 289.209646 
L 177.941358 291.223591 
L 179.311208 290.362405 
L 180.681059 290.347261 
L 182.050909 290.162809 
L 183.420759 289.54195 
L 184.79061 290.153362 
L 186.16046 288.958125 
L 187.530311 289.535065 
L 188.900161 290.934508 
L 190.270012 290.907904 
L 191.639862 291.379698 
L 193.009712 289.896985 
L 194.379563 289.368782 
L 195.749413 288.403854 
L 197.119264 289.228231 
L 198.489114 289.526017 
L 199.858964 288.660567 
L 201.228815 288.604738 
L 202.598665 288.893637 
L 203.968516 288.538556 
L 205.338366 289.349381 
L 206.708216 288.850617 
L 208.078067 289.029083 
L 209.447917 289.803822 
L 210.817768 289.214838 
L 212.187618 288.931616 
L 213.557468 290.089248 
L 214.927319 289.819325 
L 216.297169 289.215932 
L 217.66702 290.746268 
L 219.03687 290.25721 
L 221.776571 290.152608 
L 223.146421 290.629768 
L 224.516272 289.742909 
L 225.886122 289.513144 
L 227.255972 290.34518 
L 228.625823 289.229638 
L 229.995673 289.910976 
L 231.365524 291.02796 
L 232.735374 290.701445 
L 234.105224 291.014051 
L 235.475075 290.531238 
L 236.844925 289.700353 
L 238.214776 289.924264 
L 239.584626 289.484356 
L 240.954476 289.500023 
L 243.694177 291.453888 
L 245.064028 290.761002 
L 247.803728 290.782047 
L 249.173579 290.14287 
L 250.543429 290.663416 
L 251.91328 288.168357 
L 253.28313 289.305051 
L 254.65298 288.866905 
L 257.392681 289.218645 
L 258.762532 290.180603 
L 260.132382 288.270003 
L 261.502232 288.479056 
L 262.872083 287.450467 
L 264.241933 289.467487 
L 265.611784 290.302009 
L 266.981634 290.366926 
L 268.351484 289.967447 
L 269.721335 290.529438 
L 271.091185 289.824828 
L 272.461036 288.629982 
L 273.830886 290.08739 
L 275.200736 291.080913 
L 276.570587 291.354131 
L 277.940437 290.781468 
L 279.310288 290.533068 
L 280.680138 291.333928 
L 282.049988 290.586924 
L 283.419839 291.039993 
L 284.789689 289.898315 
L 286.15954 290.894829 
L 287.52939 290.917979 
L 288.899241 291.143775 
L 291.638941 289.900166 
L 293.008792 290.78738 
L 294.378642 290.56137 
L 295.748493 291.701089 
L 297.118343 290.979993 
L 298.488193 290.48724 
L 299.858044 290.517559 
L 301.227894 289.803724 
L 302.597745 291.539107 
L 303.967595 292.083525 
L 305.337445 291.979695 
L 306.707296 290.81042 
L 308.077146 292.382168 
L 309.446997 292.867713 
L 310.816847 291.730444 
L 312.186697 293.128145 
L 313.556548 292.15217 
L 314.926398 293.226971 
L 316.296249 291.113248 
L 317.666099 291.882564 
L 319.035949 292.883378 
L 320.4058 291.748443 
L 321.77565 292.589761 
L 323.145501 293.029187 
L 325.885201 291.722101 
L 327.255052 293.119432 
L 328.624902 292.833357 
L 329.994753 293.253193 
L 331.364603 292.649877 
L 332.734453 294.778274 
L 334.104304 292.482105 
L 335.474154 293.89328 
L 336.844005 293.304153 
L 338.213855 294.397127 
L 339.583705 292.813937 
L 340.953556 291.537935 
L 342.323406 290.777231 
L 343.693257 289.798985 
L 345.063107 288.560495 
L 346.432957 288.433603 
L 349.172658 290.066528 
L 350.542509 290.099839 
L 351.912359 289.316787 
L 353.282209 290.152496 
L 354.65206 289.237328 
L 356.02191 289.959952 
L 357.391761 289.294475 
L 358.761611 289.485842 
L 360.131461 289.993795 
L 361.501312 289.78236 
L 362.871162 289.322733 
L 364.241013 289.732291 
L 365.610863 290.560862 
L 366.980713 289.960747 
L 368.350564 290.523767 
L 369.720414 289.506848 
L 371.090265 289.61289 
L 372.460115 290.144958 
L 373.829965 290.352766 
L 375.199816 290.246613 
L 376.569666 291.457377 
L 377.939517 290.892692 
L 379.309367 289.80396 
L 380.679217 290.938273 
L 382.049068 291.199335 
L 383.418918 290.297517 
L 384.788769 290.776571 
L 386.158619 290.337515 
L 387.52847 290.634389 
L 388.89832 291.114434 
L 390.26817 290.645704 
L 391.638021 290.812226 
L 393.007871 290.770546 
L 394.377722 290.5774 
L 395.747572 290.995531 
L 397.117422 290.656927 
L 398.487273 295.488 
L 398.487273 295.488 
" style="fill:none;stroke:#008000;stroke-dasharray:9.6,2.4,1.5,2.4;stroke-dashoffset:0;stroke-width:1.5;"/>
   </g>
   <g id="line2d_25">
    <path clip-path="url(#p226b7a87ea)" d="M 73.832727 272.431295 
L 76.572428 267.385599 
L 77.942278 264.82217 
L 79.312129 262.832483 
L 80.681979 261.336553 
L 83.42168 258.888563 
L 84.79153 258.905224 
L 86.161381 257.388426 
L 87.531231 258.322551 
L 88.901082 260.062568 
L 90.270932 260.959025 
L 91.640783 257.440298 
L 93.010633 255.406629 
L 94.380483 253.096439 
L 95.750334 255.108217 
L 97.120184 255.63786 
L 98.490035 253.815798 
L 99.859885 256.026272 
L 101.229735 253.226608 
L 102.599586 253.188337 
L 103.969436 250.774166 
L 105.339287 255.237542 
L 106.709137 251.12437 
L 108.078987 253.710787 
L 110.818688 253.065039 
L 112.188539 254.50353 
L 113.558389 250.592158 
L 114.928239 250.978274 
L 116.29809 252.800096 
L 117.66794 253.123847 
L 119.037791 250.624672 
L 120.407641 252.335017 
L 121.777491 248.559638 
L 123.147342 248.720071 
L 124.517192 250.86364 
L 125.887043 247.665556 
L 127.256893 252.775092 
L 128.626743 250.209134 
L 129.996594 251.643686 
L 131.366444 248.653089 
L 132.736295 248.421657 
L 134.106145 248.010251 
L 135.475995 249.198089 
L 136.845846 247.590956 
L 138.215696 247.880691 
L 139.585547 246.742363 
L 140.955397 247.041426 
L 142.325247 246.590034 
L 143.695098 247.025688 
L 145.064948 246.898888 
L 146.434799 247.090412 
L 147.804649 245.117445 
L 149.174499 248.047246 
L 150.54435 244.45817 
L 151.9142 249.539191 
L 153.284051 250.879461 
L 154.653901 253.235518 
L 156.023751 250.662004 
L 157.393602 251.318157 
L 158.763452 249.652315 
L 160.133303 252.559819 
L 161.503153 251.849225 
L 162.873003 244.585867 
L 165.612704 249.274891 
L 166.982555 249.157224 
L 168.352405 252.589343 
L 169.722255 248.869685 
L 171.092106 248.052786 
L 172.461956 244.069119 
L 173.831807 250.754152 
L 175.201657 246.011142 
L 176.571507 248.944621 
L 177.941358 243.690441 
L 179.311208 244.009916 
L 180.681059 246.422988 
L 182.050909 244.867203 
L 183.420759 247.165119 
L 184.79061 242.682326 
L 186.16046 246.669855 
L 187.530311 247.846266 
L 188.900161 247.990778 
L 190.270012 245.675077 
L 191.639862 243.065981 
L 193.009712 245.713954 
L 194.379563 249.509613 
L 195.749413 247.550059 
L 197.119264 243.253697 
L 198.489114 242.67456 
L 199.858964 245.22771 
L 201.228815 243.396812 
L 202.598665 240.87071 
L 203.968516 241.002285 
L 205.338366 245.064684 
L 206.708216 244.396003 
L 208.078067 242.713971 
L 209.447917 243.393705 
L 210.817768 245.704967 
L 212.187618 246.691981 
L 213.557468 242.553323 
L 214.927319 242.068292 
L 216.297169 240.365462 
L 217.66702 240.311572 
L 219.03687 240.727502 
L 220.40672 243.352728 
L 221.776571 243.776776 
L 224.516272 242.819649 
L 225.886122 243.582749 
L 227.255972 244.565894 
L 228.625823 238.680622 
L 229.995673 242.883469 
L 231.365524 243.77854 
L 232.735374 243.693311 
L 234.105224 242.620337 
L 235.475075 243.271456 
L 236.844925 239.262281 
L 238.214776 236.4151 
L 239.584626 236.573979 
L 240.954476 234.26956 
L 242.324327 235.032291 
L 243.694177 242.82683 
L 245.064028 240.17999 
L 246.433878 241.32946 
L 247.803728 240.081213 
L 250.543429 245.429772 
L 251.91328 243.850236 
L 253.28313 243.323563 
L 254.65298 245.3173 
L 256.022831 242.45666 
L 257.392681 242.227336 
L 258.762532 245.768857 
L 260.132382 239.816257 
L 261.502232 238.399955 
L 262.872083 239.19252 
L 264.241933 238.188601 
L 265.611784 241.801781 
L 266.981634 238.600222 
L 268.351484 235.80641 
L 269.721335 237.902984 
L 271.091185 235.826225 
L 272.461036 236.158701 
L 273.830886 236.172569 
L 275.200736 241.463142 
L 276.570587 240.750676 
L 279.310288 237.730388 
L 280.680138 242.014547 
L 282.049988 240.471267 
L 283.419839 238.323266 
L 284.789689 234.266902 
L 286.15954 235.584217 
L 287.52939 239.412347 
L 288.899241 241.128443 
L 290.269091 240.648647 
L 291.638941 236.023359 
L 293.008792 239.872816 
L 294.378642 238.557224 
L 295.748493 235.889355 
L 297.118343 235.334118 
L 298.488193 235.058488 
L 299.858044 233.459311 
L 301.227894 232.167688 
L 302.597745 235.609924 
L 303.967595 235.159139 
L 306.707296 231.619166 
L 308.077146 236.001408 
L 309.446997 234.250638 
L 310.816847 233.417918 
L 312.186697 233.539324 
L 313.556548 233.202344 
L 314.926398 239.079307 
L 316.296249 233.098285 
L 317.666099 232.713549 
L 319.035949 233.551258 
L 320.4058 235.678316 
L 321.77565 234.709117 
L 323.145501 238.942056 
L 324.515351 237.350431 
L 325.885201 238.10002 
L 327.255052 240.665324 
L 328.624902 234.209429 
L 329.994753 234.859475 
L 331.364603 230.207703 
L 332.734453 231.047218 
L 334.104304 237.176539 
L 335.474154 234.854207 
L 336.844005 232.184179 
L 338.213855 225.946669 
L 339.583705 234.335424 
L 340.953556 235.303884 
L 342.323406 241.111116 
L 343.693257 242.623753 
L 345.063107 246.71178 
L 346.432957 242.790118 
L 347.802808 244.423149 
L 349.172658 244.909572 
L 350.542509 245.973701 
L 351.912359 242.697103 
L 353.282209 242.773201 
L 354.65206 241.173457 
L 356.02191 242.663501 
L 357.391761 237.471982 
L 358.761611 241.780706 
L 360.131461 240.86108 
L 361.501312 246.643921 
L 362.871162 246.810989 
L 364.241013 241.463951 
L 365.610863 246.625466 
L 366.980713 243.266674 
L 368.350564 240.775063 
L 369.720414 240.597644 
L 371.090265 240.293702 
L 372.460115 240.507889 
L 373.829965 239.740688 
L 376.569666 239.412723 
L 377.939517 242.897677 
L 379.309367 238.225555 
L 380.679217 240.384386 
L 382.049068 243.246304 
L 383.418918 240.146969 
L 384.788769 241.489081 
L 387.52847 245.66762 
L 388.89832 243.739324 
L 390.26817 239.612601 
L 391.638021 240.764479 
L 393.007871 240.011187 
L 394.377722 241.723276 
L 395.747572 242.190621 
L 397.117422 238.885057 
L 398.487273 240.719247 
L 398.487273 240.719247 
" style="fill:none;stroke:#008000;stroke-dasharray:9.6,2.4,1.5,2.4;stroke-dashoffset:0;stroke-width:1.5;"/>
   </g>
   <g id="line2d_26">
    <path clip-path="url(#p226b7a87ea)" d="M 73.832727 254.888817 
L 75.202578 243.838623 
L 76.572428 230.918911 
L 80.681979 230.918911 
L 82.05183 226.792387 
L 86.161381 226.792387 
L 87.531231 200.81574 
L 91.640783 200.81574 
L 93.010633 196.211433 
L 105.339287 196.211433 
L 106.709137 183.142492 
L 121.777491 183.142492 
L 123.147342 172.397838 
L 150.54435 172.397838 
L 151.9142 144.533161 
L 165.612704 144.533161 
L 166.982555 144.108066 
L 176.571507 144.108066 
L 177.941358 137.610532 
L 397.117422 137.610532 
L 398.487273 53.568 
L 398.487273 53.568 
" style="fill:none;stroke:#ff0000;stroke-linecap:square;stroke-width:1.5;"/>
   </g>
   <g id="patch_3">
    <path d="M 57.6 307.584 
L 57.6 41.472 
" style="fill:none;stroke:#000000;stroke-linecap:square;stroke-linejoin:miter;stroke-width:0.8;"/>
   </g>
   <g id="patch_4">
    <path d="M 414.72 307.584 
L 414.72 41.472 
" style="fill:none;stroke:#000000;stroke-linecap:square;stroke-linejoin:miter;stroke-width:0.8;"/>
   </g>
   <g id="patch_5">
    <path d="M 57.6 307.584 
L 414.72 307.584 
" style="fill:none;stroke:#000000;stroke-linecap:square;stroke-linejoin:miter;stroke-width:0.8;"/>
   </g>
   <g id="patch_6">
    <path d="M 57.6 41.472 
L 414.72 41.472 
" style="fill:none;stroke:#000000;stroke-linecap:square;stroke-linejoin:miter;stroke-width:0.8;"/>
   </g>
   <g id="text_14">
    <!-- Population's average and best fitness -->
    <g transform="translate(123.529687 35.472)scale(0.12 -0.12)">
     <defs>
      <path d="M 1259 4147 
L 1259 2394 
L 2053 2394 
Q 2494 2394 2734 2622 
Q 2975 2850 2975 3272 
Q 2975 3691 2734 3919 
Q 2494 4147 2053 4147 
L 1259 4147 
z
M 628 4666 
L 2053 4666 
Q 2838 4666 3239 4311 
Q 3641 3956 3641 3272 
Q 3641 2581 3239 2228 
Q 2838 1875 2053 1875 
L 1259 1875 
L 1259 0 
L 628 0 
L 628 4666 
z
" id="DejaVuSans-50" transform="scale(0.015625)"/>
      <path d="M 1159 525 
L 1159 -1331 
L 581 -1331 
L 581 3500 
L 1159 3500 
L 1159 2969 
Q 1341 3281 1617 3432 
Q 1894 3584 2278 3584 
Q 2916 3584 3314 3078 
Q 3713 2572 3713 1747 
Q 3713 922 3314 415 
Q 2916 -91 2278 -91 
Q 1894 -91 1617 61 
Q 1341 213 1159 525 
z
M 3116 1747 
Q 3116 2381 2855 2742 
Q 2594 3103 2138 3103 
Q 1681 3103 1420 2742 
Q 1159 2381 1159 1747 
Q 1159 1113 1420 752 
Q 1681 391 2138 391 
Q 2594 391 2855 752 
Q 3116 1113 3116 1747 
z
" id="DejaVuSans-70" transform="scale(0.015625)"/>
      <path d="M 544 1381 
L 544 3500 
L 1119 3500 
L 1119 1403 
Q 1119 906 1312 657 
Q 1506 409 1894 409 
Q 2359 409 2629 706 
Q 2900 1003 2900 1516 
L 2900 3500 
L 3475 3500 
L 3475 0 
L 2900 0 
L 2900 538 
Q 2691 219 2414 64 
Q 2138 -91 1772 -91 
Q 1169 -91 856 284 
Q 544 659 544 1381 
z
M 1991 3584 
L 1991 3584 
z
" id="DejaVuSans-75" transform="scale(0.015625)"/>
      <path d="M 603 4863 
L 1178 4863 
L 1178 0 
L 603 0 
L 603 4863 
z
" id="DejaVuSans-6c" transform="scale(0.015625)"/>
      <path d="M 1147 4666 
L 1147 2931 
L 616 2931 
L 616 4666 
L 1147 4666 
z
" id="DejaVuSans-27" transform="scale(0.015625)"/>
      <path id="DejaVuSans-20" transform="scale(0.015625)"/>
      <path d="M 191 3500 
L 800 3500 
L 1894 563 
L 2988 3500 
L 3597 3500 
L 2284 0 
L 1503 0 
L 191 3500 
z
" id="DejaVuSans-76" transform="scale(0.015625)"/>
      <path d="M 2906 1791 
Q 2906 2416 2648 2759 
Q 2391 3103 1925 3103 
Q 1463 3103 1205 2759 
Q 947 2416 947 1791 
Q 947 1169 1205 825 
Q 1463 481 1925 481 
Q 2391 481 2648 825 
Q 2906 1169 2906 1791 
z
M 3481 434 
Q 3481 -459 3084 -895 
Q 2688 -1331 1869 -1331 
Q 1566 -1331 1297 -1286 
Q 1028 -1241 775 -1147 
L 775 -588 
Q 1028 -725 1275 -790 
Q 1522 -856 1778 -856 
Q 2344 -856 2625 -561 
Q 2906 -266 2906 331 
L 2906 616 
Q 2728 306 2450 153 
Q 2172 0 1784 0 
Q 1141 0 747 490 
Q 353 981 353 1791 
Q 353 2603 747 3093 
Q 1141 3584 1784 3584 
Q 2172 3584 2450 3431 
Q 2728 3278 2906 2969 
L 2906 3500 
L 3481 3500 
L 3481 434 
z
" id="DejaVuSans-67" transform="scale(0.015625)"/>
      <path d="M 2906 2969 
L 2906 4863 
L 3481 4863 
L 3481 0 
L 2906 0 
L 2906 525 
Q 2725 213 2448 61 
Q 2172 -91 1784 -91 
Q 1150 -91 751 415 
Q 353 922 353 1747 
Q 353 2572 751 3078 
Q 1150 3584 1784 3584 
Q 2172 3584 2448 3432 
Q 2725 3281 2906 2969 
z
M 947 1747 
Q 947 1113 1208 752 
Q 1469 391 1925 391 
Q 2381 391 2643 752 
Q 2906 1113 2906 1747 
Q 2906 2381 2643 2742 
Q 2381 3103 1925 3103 
Q 1469 3103 1208 2742 
Q 947 2381 947 1747 
z
" id="DejaVuSans-64" transform="scale(0.015625)"/>
      <path d="M 3116 1747 
Q 3116 2381 2855 2742 
Q 2594 3103 2138 3103 
Q 1681 3103 1420 2742 
Q 1159 2381 1159 1747 
Q 1159 1113 1420 752 
Q 1681 391 2138 391 
Q 2594 391 2855 752 
Q 3116 1113 3116 1747 
z
M 1159 2969 
Q 1341 3281 1617 3432 
Q 1894 3584 2278 3584 
Q 2916 3584 3314 3078 
Q 3713 2572 3713 1747 
Q 3713 922 3314 415 
Q 2916 -91 2278 -91 
Q 1894 -91 1617 61 
Q 1341 213 1159 525 
L 1159 0 
L 581 0 
L 581 4863 
L 1159 4863 
L 1159 2969 
z
" id="DejaVuSans-62" transform="scale(0.015625)"/>
      <path d="M 2375 4863 
L 2375 4384 
L 1825 4384 
Q 1516 4384 1395 4259 
Q 1275 4134 1275 3809 
L 1275 3500 
L 2222 3500 
L 2222 3053 
L 1275 3053 
L 1275 0 
L 697 0 
L 697 3053 
L 147 3053 
L 147 3500 
L 697 3500 
L 697 3744 
Q 697 4328 969 4595 
Q 1241 4863 1831 4863 
L 2375 4863 
z
" id="DejaVuSans-66" transform="scale(0.015625)"/>
     </defs>
     <use xlink:href="#DejaVuSans-50"/>
     <use x="56.677734" xlink:href="#DejaVuSans-6f"/>
     <use x="117.859375" xlink:href="#DejaVuSans-70"/>
     <use x="181.335938" xlink:href="#DejaVuSans-75"/>
     <use x="244.714844" xlink:href="#DejaVuSans-6c"/>
     <use x="272.498047" xlink:href="#DejaVuSans-61"/>
     <use x="333.777344" xlink:href="#DejaVuSans-74"/>
     <use x="372.986328" xlink:href="#DejaVuSans-69"/>
     <use x="400.769531" xlink:href="#DejaVuSans-6f"/>
     <use x="461.951172" xlink:href="#DejaVuSans-6e"/>
     <use x="525.330078" xlink:href="#DejaVuSans-27"/>
     <use x="552.820312" xlink:href="#DejaVuSans-73"/>
     <use x="604.919922" xlink:href="#DejaVuSans-20"/>
     <use x="636.707031" xlink:href="#DejaVuSans-61"/>
     <use x="697.986328" xlink:href="#DejaVuSans-76"/>
     <use x="757.166016" xlink:href="#DejaVuSans-65"/>
     <use x="818.689453" xlink:href="#DejaVuSans-72"/>
     <use x="859.802734" xlink:href="#DejaVuSans-61"/>
     <use x="921.082031" xlink:href="#DejaVuSans-67"/>
     <use x="984.558594" xlink:href="#DejaVuSans-65"/>
     <use x="1046.082031" xlink:href="#DejaVuSans-20"/>
     <use x="1077.869141" xlink:href="#DejaVuSans-61"/>
     <use x="1139.148438" xlink:href="#DejaVuSans-6e"/>
     <use x="1202.527344" xlink:href="#DejaVuSans-64"/>
     <use x="1266.003906" xlink:href="#DejaVuSans-20"/>
     <use x="1297.791016" xlink:href="#DejaVuSans-62"/>
     <use x="1361.267578" xlink:href="#DejaVuSans-65"/>
     <use x="1422.791016" xlink:href="#DejaVuSans-73"/>
     <use x="1474.890625" xlink:href="#DejaVuSans-74"/>
     <use x="1514.099609" xlink:href="#DejaVuSans-20"/>
     <use x="1545.886719" xlink:href="#DejaVuSans-66"/>
     <use x="1581.091797" xlink:href="#DejaVuSans-69"/>
     <use x="1608.875" xlink:href="#DejaVuSans-74"/>
     <use x="1648.083984" xlink:href="#DejaVuSans-6e"/>
     <use x="1711.462891" xlink:href="#DejaVuSans-65"/>
     <use x="1772.986328" xlink:href="#DejaVuSans-73"/>
     <use x="1825.085938" xlink:href="#DejaVuSans-73"/>
    </g>
   </g>
   <g id="legend_1">
    <g id="patch_7">
     <path d="M 64.6 108.1845 
L 137.540625 108.1845 
Q 139.540625 108.1845 139.540625 106.1845 
L 139.540625 48.472 
Q 139.540625 46.472 137.540625 46.472 
L 64.6 46.472 
Q 62.6 46.472 62.6 48.472 
L 62.6 106.1845 
Q 62.6 108.1845 64.6 108.1845 
z
" style="fill:#ffffff;opacity:0.8;stroke:#cccccc;stroke-linejoin:miter;"/>
    </g>
    <g id="line2d_27">
     <path d="M 66.6 54.570438 
L 86.6 54.570438 
" style="fill:none;stroke:#0000ff;stroke-linecap:square;stroke-width:1.5;"/>
    </g>
    <g id="line2d_28"/>
    <g id="text_15">
     <!-- average -->
     <g transform="translate(94.6 58.070438)scale(0.1 -0.1)">
      <use xlink:href="#DejaVuSans-61"/>
      <use x="61.279297" xlink:href="#DejaVuSans-76"/>
      <use x="120.458984" xlink:href="#DejaVuSans-65"/>
      <use x="181.982422" xlink:href="#DejaVuSans-72"/>
      <use x="223.095703" xlink:href="#DejaVuSans-61"/>
      <use x="284.375" xlink:href="#DejaVuSans-67"/>
      <use x="347.851562" xlink:href="#DejaVuSans-65"/>
     </g>
    </g>
    <g id="line2d_29">
     <path d="M 66.6 69.248563 
L 86.6 69.248563 
" style="fill:none;stroke:#008000;stroke-dasharray:9.6,2.4,1.5,2.4;stroke-dashoffset:0;stroke-width:1.5;"/>
    </g>
    <g id="line2d_30"/>
    <g id="text_16">
     <!-- -1 sd -->
     <g transform="translate(94.6 72.748563)scale(0.1 -0.1)">
      <defs>
       <path d="M 313 2009 
L 1997 2009 
L 1997 1497 
L 313 1497 
L 313 2009 
z
" id="DejaVuSans-2d" transform="scale(0.015625)"/>
      </defs>
      <use xlink:href="#DejaVuSans-2d"/>
      <use x="36.083984" xlink:href="#DejaVuSans-31"/>
      <use x="99.707031" xlink:href="#DejaVuSans-20"/>
      <use x="131.494141" xlink:href="#DejaVuSans-73"/>
      <use x="183.59375" xlink:href="#DejaVuSans-64"/>
     </g>
    </g>
    <g id="line2d_31">
     <path d="M 66.6 83.926688 
L 86.6 83.926688 
" style="fill:none;stroke:#008000;stroke-dasharray:9.6,2.4,1.5,2.4;stroke-dashoffset:0;stroke-width:1.5;"/>
    </g>
    <g id="line2d_32"/>
    <g id="text_17">
     <!-- +1 sd -->
     <g transform="translate(94.6 87.426688)scale(0.1 -0.1)">
      <defs>
       <path d="M 2944 4013 
L 2944 2272 
L 4684 2272 
L 4684 1741 
L 2944 1741 
L 2944 0 
L 2419 0 
L 2419 1741 
L 678 1741 
L 678 2272 
L 2419 2272 
L 2419 4013 
L 2944 4013 
z
" id="DejaVuSans-2b" transform="scale(0.015625)"/>
      </defs>
      <use xlink:href="#DejaVuSans-2b"/>
      <use x="83.789062" xlink:href="#DejaVuSans-31"/>
      <use x="147.412109" xlink:href="#DejaVuSans-20"/>
      <use x="179.199219" xlink:href="#DejaVuSans-73"/>
      <use x="231.298828" xlink:href="#DejaVuSans-64"/>
     </g>
    </g>
    <g id="line2d_33">
     <path d="M 66.6 98.604813 
L 86.6 98.604813 
" style="fill:none;stroke:#ff0000;stroke-linecap:square;stroke-width:1.5;"/>
    </g>
    <g id="line2d_34"/>
    <g id="text_18">
     <!-- best -->
     <g transform="translate(94.6 102.104813)scale(0.1 -0.1)">
      <use xlink:href="#DejaVuSans-62"/>
      <use x="63.476562" xlink:href="#DejaVuSans-65"/>
      <use x="125" xlink:href="#DejaVuSans-73"/>
      <use x="177.099609" xlink:href="#DejaVuSans-74"/>
     </g>
    </g>
   </g>
  </g>
 </g>
 <defs>
  <clipPath id="p226b7a87ea">
   <rect height="266.112" width="357.12" x="57.6" y="41.472"/>
  </clipPath>
 </defs>
</svg>
