<?xml version="1.0" encoding="utf-8" standalone="no"?>
<!DOCTYPE svg PUBLIC "-//W3C//DTD SVG 1.1//EN"
  "http://www.w3.org/Graphics/SVG/1.1/DTD/svg11.dtd">
<svg height="345.6pt" version="1.1" viewBox="0 0 460.8 345.6" width="460.8pt" xmlns="http://www.w3.org/2000/svg" xmlns:xlink="http://www.w3.org/1999/xlink">
 <metadata>
  <rdf:RDF xmlns:cc="http://creativecommons.org/ns#" xmlns:dc="http://purl.org/dc/elements/1.1/" xmlns:rdf="http://www.w3.org/1999/02/22-rdf-syntax-ns#">
   <cc:Work>
    <dc:type rdf:resource="http://purl.org/dc/dcmitype/StillImage"/>
    <dc:date>2022-05-29T15:56:51.023422</dc:date>
    <dc:format>image/svg+xml</dc:format>
    <dc:creator>
     <cc:Agent>
      <dc:title>Matplotlib v3.3.4+2343.g7e3cef3ba, https://matplotlib.org/</dc:title>
     </cc:Agent>
    </dc:creator>
   </cc:Work>
  </rdf:RDF>
 </metadata>
 <defs>
  <style type="text/css">*{stroke-linecap:butt;stroke-linejoin:round;}</style>
 </defs>
 <g id="figure_1">
  <g id="patch_1">
   <path d="M 0 345.6 
L 460.8 345.6 
L 460.8 0 
L 0 0 
z
" style="fill:#ffffff;"/>
  </g>
  <g id="axes_1">
   <g id="patch_2">
    <path d="M 57.6 307.584 
L 414.72 307.584 
L 414.72 41.472 
L 57.6 41.472 
z
" style="fill:#ffffff;"/>
   </g>
   <g id="matplotlib.axis_1">
    <g id="xtick_1">
     <g id="line2d_1">
      <path clip-path="url(#p046114f356)" d="M 73.832727 307.584 
L 73.832727 41.472 
" style="fill:none;stroke:#b0b0b0;stroke-linecap:square;stroke-width:0.8;"/>
     </g>
     <g id="line2d_2">
      <defs>
       <path d="M 0 0 
L 0 3.5 
" id="m5c8ca7febe" style="stroke:#000000;stroke-width:0.8;"/>
      </defs>
      <g>
       <use style="stroke:#000000;stroke-width:0.8;" x="73.832727" xlink:href="#m5c8ca7febe" y="307.584"/>
      </g>
     </g>
     <g id="text_1">
      <!-- 0 -->
      <g transform="translate(70.651477 322.182437)scale(0.1 -0.1)">
       <defs>
        <path d="M 2034 4250 
Q 1547 4250 1301 3770 
Q 1056 3291 1056 2328 
Q 1056 1369 1301 889 
Q 1547 409 2034 409 
Q 2525 409 2770 889 
Q 3016 1369 3016 2328 
Q 3016 3291 2770 3770 
Q 2525 4250 2034 4250 
z
M 2034 4750 
Q 2819 4750 3233 4129 
Q 3647 3509 3647 2328 
Q 3647 1150 3233 529 
Q 2819 -91 2034 -91 
Q 1250 -91 836 529 
Q 422 1150 422 2328 
Q 422 3509 836 4129 
Q 1250 4750 2034 4750 
z
" id="DejaVuSans-30" transform="scale(0.015625)"/>
       </defs>
       <use xlink:href="#DejaVuSans-30"/>
      </g>
     </g>
    </g>
    <g id="xtick_2">
     <g id="line2d_3">
      <path clip-path="url(#p046114f356)" d="M 114.618474 307.584 
L 114.618474 41.472 
" style="fill:none;stroke:#b0b0b0;stroke-linecap:square;stroke-width:0.8;"/>
     </g>
     <g id="line2d_4">
      <g>
       <use style="stroke:#000000;stroke-width:0.8;" x="114.618474" xlink:href="#m5c8ca7febe" y="307.584"/>
      </g>
     </g>
     <g id="text_2">
      <!-- 25 -->
      <g transform="translate(108.255974 322.182437)scale(0.1 -0.1)">
       <defs>
        <path d="M 1228 531 
L 3431 531 
L 3431 0 
L 469 0 
L 469 531 
Q 828 903 1448 1529 
Q 2069 2156 2228 2338 
Q 2531 2678 2651 2914 
Q 2772 3150 2772 3378 
Q 2772 3750 2511 3984 
Q 2250 4219 1831 4219 
Q 1534 4219 1204 4116 
Q 875 4013 500 3803 
L 500 4441 
Q 881 4594 1212 4672 
Q 1544 4750 1819 4750 
Q 2544 4750 2975 4387 
Q 3406 4025 3406 3419 
Q 3406 3131 3298 2873 
Q 3191 2616 2906 2266 
Q 2828 2175 2409 1742 
Q 1991 1309 1228 531 
z
" id="DejaVuSans-32" transform="scale(0.015625)"/>
        <path d="M 691 4666 
L 3169 4666 
L 3169 4134 
L 1269 4134 
L 1269 2991 
Q 1406 3038 1543 3061 
Q 1681 3084 1819 3084 
Q 2600 3084 3056 2656 
Q 3513 2228 3513 1497 
Q 3513 744 3044 326 
Q 2575 -91 1722 -91 
Q 1428 -91 1123 -41 
Q 819 9 494 109 
L 494 744 
Q 775 591 1075 516 
Q 1375 441 1709 441 
Q 2250 441 2565 725 
Q 2881 1009 2881 1497 
Q 2881 1984 2565 2268 
Q 2250 2553 1709 2553 
Q 1456 2553 1204 2497 
Q 953 2441 691 2322 
L 691 4666 
z
" id="DejaVuSans-35" transform="scale(0.015625)"/>
       </defs>
       <use xlink:href="#DejaVuSans-32"/>
       <use x="63.623047" xlink:href="#DejaVuSans-35"/>
      </g>
     </g>
    </g>
    <g id="xtick_3">
     <g id="line2d_5">
      <path clip-path="url(#p046114f356)" d="M 155.404221 307.584 
L 155.404221 41.472 
" style="fill:none;stroke:#b0b0b0;stroke-linecap:square;stroke-width:0.8;"/>
     </g>
     <g id="line2d_6">
      <g>
       <use style="stroke:#000000;stroke-width:0.8;" x="155.404221" xlink:href="#m5c8ca7febe" y="307.584"/>
      </g>
     </g>
     <g id="text_3">
      <!-- 50 -->
      <g transform="translate(149.041721 322.182437)scale(0.1 -0.1)">
       <use xlink:href="#DejaVuSans-35"/>
       <use x="63.623047" xlink:href="#DejaVuSans-30"/>
      </g>
     </g>
    </g>
    <g id="xtick_4">
     <g id="line2d_7">
      <path clip-path="url(#p046114f356)" d="M 196.189968 307.584 
L 196.189968 41.472 
" style="fill:none;stroke:#b0b0b0;stroke-linecap:square;stroke-width:0.8;"/>
     </g>
     <g id="line2d_8">
      <g>
       <use style="stroke:#000000;stroke-width:0.8;" x="196.189968" xlink:href="#m5c8ca7febe" y="307.584"/>
      </g>
     </g>
     <g id="text_4">
      <!-- 75 -->
      <g transform="translate(189.827468 322.182437)scale(0.1 -0.1)">
       <defs>
        <path d="M 525 4666 
L 3525 4666 
L 3525 4397 
L 1831 0 
L 1172 0 
L 2766 4134 
L 525 4134 
L 525 4666 
z
" id="DejaVuSans-37" transform="scale(0.015625)"/>
       </defs>
       <use xlink:href="#DejaVuSans-37"/>
       <use x="63.623047" xlink:href="#DejaVuSans-35"/>
      </g>
     </g>
    </g>
    <g id="xtick_5">
     <g id="line2d_9">
      <path clip-path="url(#p046114f356)" d="M 236.975715 307.584 
L 236.975715 41.472 
" style="fill:none;stroke:#b0b0b0;stroke-linecap:square;stroke-width:0.8;"/>
     </g>
     <g id="line2d_10">
      <g>
       <use style="stroke:#000000;stroke-width:0.8;" x="236.975715" xlink:href="#m5c8ca7febe" y="307.584"/>
      </g>
     </g>
     <g id="text_5">
      <!-- 100 -->
      <g transform="translate(227.431965 322.182437)scale(0.1 -0.1)">
       <defs>
        <path d="M 794 531 
L 1825 531 
L 1825 4091 
L 703 3866 
L 703 4441 
L 1819 4666 
L 2450 4666 
L 2450 531 
L 3481 531 
L 3481 0 
L 794 0 
L 794 531 
z
" id="DejaVuSans-31" transform="scale(0.015625)"/>
       </defs>
       <use xlink:href="#DejaVuSans-31"/>
       <use x="63.623047" xlink:href="#DejaVuSans-30"/>
       <use x="127.246094" xlink:href="#DejaVuSans-30"/>
      </g>
     </g>
    </g>
    <g id="xtick_6">
     <g id="line2d_11">
      <path clip-path="url(#p046114f356)" d="M 277.761462 307.584 
L 277.761462 41.472 
" style="fill:none;stroke:#b0b0b0;stroke-linecap:square;stroke-width:0.8;"/>
     </g>
     <g id="line2d_12">
      <g>
       <use style="stroke:#000000;stroke-width:0.8;" x="277.761462" xlink:href="#m5c8ca7febe" y="307.584"/>
      </g>
     </g>
     <g id="text_6">
      <!-- 125 -->
      <g transform="translate(268.217712 322.182437)scale(0.1 -0.1)">
       <use xlink:href="#DejaVuSans-31"/>
       <use x="63.623047" xlink:href="#DejaVuSans-32"/>
       <use x="127.246094" xlink:href="#DejaVuSans-35"/>
      </g>
     </g>
    </g>
    <g id="xtick_7">
     <g id="line2d_13">
      <path clip-path="url(#p046114f356)" d="M 318.547209 307.584 
L 318.547209 41.472 
" style="fill:none;stroke:#b0b0b0;stroke-linecap:square;stroke-width:0.8;"/>
     </g>
     <g id="line2d_14">
      <g>
       <use style="stroke:#000000;stroke-width:0.8;" x="318.547209" xlink:href="#m5c8ca7febe" y="307.584"/>
      </g>
     </g>
     <g id="text_7">
      <!-- 150 -->
      <g transform="translate(309.003459 322.182437)scale(0.1 -0.1)">
       <use xlink:href="#DejaVuSans-31"/>
       <use x="63.623047" xlink:href="#DejaVuSans-35"/>
       <use x="127.246094" xlink:href="#DejaVuSans-30"/>
      </g>
     </g>
    </g>
    <g id="xtick_8">
     <g id="line2d_15">
      <path clip-path="url(#p046114f356)" d="M 359.332956 307.584 
L 359.332956 41.472 
" style="fill:none;stroke:#b0b0b0;stroke-linecap:square;stroke-width:0.8;"/>
     </g>
     <g id="line2d_16">
      <g>
       <use style="stroke:#000000;stroke-width:0.8;" x="359.332956" xlink:href="#m5c8ca7febe" y="307.584"/>
      </g>
     </g>
     <g id="text_8">
      <!-- 175 -->
      <g transform="translate(349.789206 322.182437)scale(0.1 -0.1)">
       <use xlink:href="#DejaVuSans-31"/>
       <use x="63.623047" xlink:href="#DejaVuSans-37"/>
       <use x="127.246094" xlink:href="#DejaVuSans-35"/>
      </g>
     </g>
    </g>
    <g id="xtick_9">
     <g id="line2d_17">
      <path clip-path="url(#p046114f356)" d="M 400.118703 307.584 
L 400.118703 41.472 
" style="fill:none;stroke:#b0b0b0;stroke-linecap:square;stroke-width:0.8;"/>
     </g>
     <g id="line2d_18">
      <g>
       <use style="stroke:#000000;stroke-width:0.8;" x="400.118703" xlink:href="#m5c8ca7febe" y="307.584"/>
      </g>
     </g>
     <g id="text_9">
      <!-- 200 -->
      <g transform="translate(390.574953 322.182437)scale(0.1 -0.1)">
       <use xlink:href="#DejaVuSans-32"/>
       <use x="63.623047" xlink:href="#DejaVuSans-30"/>
       <use x="127.246094" xlink:href="#DejaVuSans-30"/>
      </g>
     </g>
    </g>
    <g id="text_10">
     <!-- Generations -->
     <g transform="translate(205.662344 335.860562)scale(0.1 -0.1)">
      <defs>
       <path d="M 3809 666 
L 3809 1919 
L 2778 1919 
L 2778 2438 
L 4434 2438 
L 4434 434 
Q 4069 175 3628 42 
Q 3188 -91 2688 -91 
Q 1594 -91 976 548 
Q 359 1188 359 2328 
Q 359 3472 976 4111 
Q 1594 4750 2688 4750 
Q 3144 4750 3555 4637 
Q 3966 4525 4313 4306 
L 4313 3634 
Q 3963 3931 3569 4081 
Q 3175 4231 2741 4231 
Q 1884 4231 1454 3753 
Q 1025 3275 1025 2328 
Q 1025 1384 1454 906 
Q 1884 428 2741 428 
Q 3075 428 3337 486 
Q 3600 544 3809 666 
z
" id="DejaVuSans-47" transform="scale(0.015625)"/>
       <path d="M 3597 1894 
L 3597 1613 
L 953 1613 
Q 991 1019 1311 708 
Q 1631 397 2203 397 
Q 2534 397 2845 478 
Q 3156 559 3463 722 
L 3463 178 
Q 3153 47 2828 -22 
Q 2503 -91 2169 -91 
Q 1331 -91 842 396 
Q 353 884 353 1716 
Q 353 2575 817 3079 
Q 1281 3584 2069 3584 
Q 2775 3584 3186 3129 
Q 3597 2675 3597 1894 
z
M 3022 2063 
Q 3016 2534 2758 2815 
Q 2500 3097 2075 3097 
Q 1594 3097 1305 2825 
Q 1016 2553 972 2059 
L 3022 2063 
z
" id="DejaVuSans-65" transform="scale(0.015625)"/>
       <path d="M 3513 2113 
L 3513 0 
L 2938 0 
L 2938 2094 
Q 2938 2591 2744 2837 
Q 2550 3084 2163 3084 
Q 1697 3084 1428 2787 
Q 1159 2491 1159 1978 
L 1159 0 
L 581 0 
L 581 3500 
L 1159 3500 
L 1159 2956 
Q 1366 3272 1645 3428 
Q 1925 3584 2291 3584 
Q 2894 3584 3203 3211 
Q 3513 2838 3513 2113 
z
" id="DejaVuSans-6e" transform="scale(0.015625)"/>
       <path d="M 2631 2963 
Q 2534 3019 2420 3045 
Q 2306 3072 2169 3072 
Q 1681 3072 1420 2755 
Q 1159 2438 1159 1844 
L 1159 0 
L 581 0 
L 581 3500 
L 1159 3500 
L 1159 2956 
Q 1341 3275 1631 3429 
Q 1922 3584 2338 3584 
Q 2397 3584 2469 3576 
Q 2541 3569 2628 3553 
L 2631 2963 
z
" id="DejaVuSans-72" transform="scale(0.015625)"/>
       <path d="M 2194 1759 
Q 1497 1759 1228 1600 
Q 959 1441 959 1056 
Q 959 750 1161 570 
Q 1363 391 1709 391 
Q 2188 391 2477 730 
Q 2766 1069 2766 1631 
L 2766 1759 
L 2194 1759 
z
M 3341 1997 
L 3341 0 
L 2766 0 
L 2766 531 
Q 2569 213 2275 61 
Q 1981 -91 1556 -91 
Q 1019 -91 701 211 
Q 384 513 384 1019 
Q 384 1609 779 1909 
Q 1175 2209 1959 2209 
L 2766 2209 
L 2766 2266 
Q 2766 2663 2505 2880 
Q 2244 3097 1772 3097 
Q 1472 3097 1187 3025 
Q 903 2953 641 2809 
L 641 3341 
Q 956 3463 1253 3523 
Q 1550 3584 1831 3584 
Q 2591 3584 2966 3190 
Q 3341 2797 3341 1997 
z
" id="DejaVuSans-61" transform="scale(0.015625)"/>
       <path d="M 1172 4494 
L 1172 3500 
L 2356 3500 
L 2356 3053 
L 1172 3053 
L 1172 1153 
Q 1172 725 1289 603 
Q 1406 481 1766 481 
L 2356 481 
L 2356 0 
L 1766 0 
Q 1100 0 847 248 
Q 594 497 594 1153 
L 594 3053 
L 172 3053 
L 172 3500 
L 594 3500 
L 594 4494 
L 1172 4494 
z
" id="DejaVuSans-74" transform="scale(0.015625)"/>
       <path d="M 603 3500 
L 1178 3500 
L 1178 0 
L 603 0 
L 603 3500 
z
M 603 4863 
L 1178 4863 
L 1178 4134 
L 603 4134 
L 603 4863 
z
" id="DejaVuSans-69" transform="scale(0.015625)"/>
       <path d="M 1959 3097 
Q 1497 3097 1228 2736 
Q 959 2375 959 1747 
Q 959 1119 1226 758 
Q 1494 397 1959 397 
Q 2419 397 2687 759 
Q 2956 1122 2956 1747 
Q 2956 2369 2687 2733 
Q 2419 3097 1959 3097 
z
M 1959 3584 
Q 2709 3584 3137 3096 
Q 3566 2609 3566 1747 
Q 3566 888 3137 398 
Q 2709 -91 1959 -91 
Q 1206 -91 779 398 
Q 353 888 353 1747 
Q 353 2609 779 3096 
Q 1206 3584 1959 3584 
z
" id="DejaVuSans-6f" transform="scale(0.015625)"/>
       <path d="M 2834 3397 
L 2834 2853 
Q 2591 2978 2328 3040 
Q 2066 3103 1784 3103 
Q 1356 3103 1142 2972 
Q 928 2841 928 2578 
Q 928 2378 1081 2264 
Q 1234 2150 1697 2047 
L 1894 2003 
Q 2506 1872 2764 1633 
Q 3022 1394 3022 966 
Q 3022 478 2636 193 
Q 2250 -91 1575 -91 
Q 1294 -91 989 -36 
Q 684 19 347 128 
L 347 722 
Q 666 556 975 473 
Q 1284 391 1588 391 
Q 1994 391 2212 530 
Q 2431 669 2431 922 
Q 2431 1156 2273 1281 
Q 2116 1406 1581 1522 
L 1381 1569 
Q 847 1681 609 1914 
Q 372 2147 372 2553 
Q 372 3047 722 3315 
Q 1072 3584 1716 3584 
Q 2034 3584 2315 3537 
Q 2597 3491 2834 3397 
z
" id="DejaVuSans-73" transform="scale(0.015625)"/>
      </defs>
      <use xlink:href="#DejaVuSans-47"/>
      <use x="77.490234" xlink:href="#DejaVuSans-65"/>
      <use x="139.013672" xlink:href="#DejaVuSans-6e"/>
      <use x="202.392578" xlink:href="#DejaVuSans-65"/>
      <use x="263.916016" xlink:href="#DejaVuSans-72"/>
      <use x="305.029297" xlink:href="#DejaVuSans-61"/>
      <use x="366.308594" xlink:href="#DejaVuSans-74"/>
      <use x="405.517578" xlink:href="#DejaVuSans-69"/>
      <use x="433.300781" xlink:href="#DejaVuSans-6f"/>
      <use x="494.482422" xlink:href="#DejaVuSans-6e"/>
      <use x="557.861328" xlink:href="#DejaVuSans-73"/>
     </g>
    </g>
   </g>
   <g id="matplotlib.axis_2">
    <g id="ytick_1">
     <g id="line2d_19">
      <path clip-path="url(#p046114f356)" d="M 57.6 293.238074 
L 414.72 293.238074 
" style="fill:none;stroke:#b0b0b0;stroke-linecap:square;stroke-width:0.8;"/>
     </g>
     <g id="line2d_20">
      <defs>
       <path d="M 0 0 
L -3.5 0 
" id="mb7b38294a5" style="stroke:#000000;stroke-width:0.8;"/>
      </defs>
      <g>
       <use style="stroke:#000000;stroke-width:0.8;" x="57.6" xlink:href="#mb7b38294a5" y="293.238074"/>
      </g>
     </g>
     <g id="text_11">
      <!-- 0 -->
      <g transform="translate(44.2375 297.037293)scale(0.1 -0.1)">
       <use xlink:href="#DejaVuSans-30"/>
      </g>
     </g>
    </g>
    <g id="ytick_2">
     <g id="line2d_21">
      <path clip-path="url(#p046114f356)" d="M 57.6 262.140492 
L 414.72 262.140492 
" style="fill:none;stroke:#b0b0b0;stroke-linecap:square;stroke-width:0.8;"/>
     </g>
     <g id="line2d_22">
      <g>
       <use style="stroke:#000000;stroke-width:0.8;" x="57.6" xlink:href="#mb7b38294a5" y="262.140492"/>
      </g>
     </g>
     <g id="text_12">
      <!-- 1 -->
      <g transform="translate(44.2375 265.939711)scale(0.1 -0.1)">
       <use xlink:href="#DejaVuSans-31"/>
      </g>
     </g>
    </g>
    <g id="ytick_3">
     <g id="line2d_23">
      <path clip-path="url(#p046114f356)" d="M 57.6 231.04291 
L 414.72 231.04291 
" style="fill:none;stroke:#b0b0b0;stroke-linecap:square;stroke-width:0.8;"/>
     </g>
     <g id="line2d_24">
      <g>
       <use style="stroke:#000000;stroke-width:0.8;" x="57.6" xlink:href="#mb7b38294a5" y="231.04291"/>
      </g>
     </g>
     <g id="text_13">
      <!-- 2 -->
      <g transform="translate(44.2375 234.842129)scale(0.1 -0.1)">
       <use xlink:href="#DejaVuSans-32"/>
      </g>
     </g>
    </g>
    <g id="ytick_4">
     <g id="line2d_25">
      <path clip-path="url(#p046114f356)" d="M 57.6 199.945329 
L 414.72 199.945329 
" style="fill:none;stroke:#b0b0b0;stroke-linecap:square;stroke-width:0.8;"/>
     </g>
     <g id="line2d_26">
      <g>
       <use style="stroke:#000000;stroke-width:0.8;" x="57.6" xlink:href="#mb7b38294a5" y="199.945329"/>
      </g>
     </g>
     <g id="text_14">
      <!-- 3 -->
      <g transform="translate(44.2375 203.744547)scale(0.1 -0.1)">
       <defs>
        <path d="M 2597 2516 
Q 3050 2419 3304 2112 
Q 3559 1806 3559 1356 
Q 3559 666 3084 287 
Q 2609 -91 1734 -91 
Q 1441 -91 1130 -33 
Q 819 25 488 141 
L 488 750 
Q 750 597 1062 519 
Q 1375 441 1716 441 
Q 2309 441 2620 675 
Q 2931 909 2931 1356 
Q 2931 1769 2642 2001 
Q 2353 2234 1838 2234 
L 1294 2234 
L 1294 2753 
L 1863 2753 
Q 2328 2753 2575 2939 
Q 2822 3125 2822 3475 
Q 2822 3834 2567 4026 
Q 2313 4219 1838 4219 
Q 1578 4219 1281 4162 
Q 984 4106 628 3988 
L 628 4550 
Q 988 4650 1302 4700 
Q 1616 4750 1894 4750 
Q 2613 4750 3031 4423 
Q 3450 4097 3450 3541 
Q 3450 3153 3228 2886 
Q 3006 2619 2597 2516 
z
" id="DejaVuSans-33" transform="scale(0.015625)"/>
       </defs>
       <use xlink:href="#DejaVuSans-33"/>
      </g>
     </g>
    </g>
    <g id="ytick_5">
     <g id="line2d_27">
      <path clip-path="url(#p046114f356)" d="M 57.6 168.847747 
L 414.72 168.847747 
" style="fill:none;stroke:#b0b0b0;stroke-linecap:square;stroke-width:0.8;"/>
     </g>
     <g id="line2d_28">
      <g>
       <use style="stroke:#000000;stroke-width:0.8;" x="57.6" xlink:href="#mb7b38294a5" y="168.847747"/>
      </g>
     </g>
     <g id="text_15">
      <!-- 4 -->
      <g transform="translate(44.2375 172.646966)scale(0.1 -0.1)">
       <defs>
        <path d="M 2419 4116 
L 825 1625 
L 2419 1625 
L 2419 4116 
z
M 2253 4666 
L 3047 4666 
L 3047 1625 
L 3713 1625 
L 3713 1100 
L 3047 1100 
L 3047 0 
L 2419 0 
L 2419 1100 
L 313 1100 
L 313 1709 
L 2253 4666 
z
" id="DejaVuSans-34" transform="scale(0.015625)"/>
       </defs>
       <use xlink:href="#DejaVuSans-34"/>
      </g>
     </g>
    </g>
    <g id="ytick_6">
     <g id="line2d_29">
      <path clip-path="url(#p046114f356)" d="M 57.6 137.750165 
L 414.72 137.750165 
" style="fill:none;stroke:#b0b0b0;stroke-linecap:square;stroke-width:0.8;"/>
     </g>
     <g id="line2d_30">
      <g>
       <use style="stroke:#000000;stroke-width:0.8;" x="57.6" xlink:href="#mb7b38294a5" y="137.750165"/>
      </g>
     </g>
     <g id="text_16">
      <!-- 5 -->
      <g transform="translate(44.2375 141.549384)scale(0.1 -0.1)">
       <use xlink:href="#DejaVuSans-35"/>
      </g>
     </g>
    </g>
    <g id="ytick_7">
     <g id="line2d_31">
      <path clip-path="url(#p046114f356)" d="M 57.6 106.652584 
L 414.72 106.652584 
" style="fill:none;stroke:#b0b0b0;stroke-linecap:square;stroke-width:0.8;"/>
     </g>
     <g id="line2d_32">
      <g>
       <use style="stroke:#000000;stroke-width:0.8;" x="57.6" xlink:href="#mb7b38294a5" y="106.652584"/>
      </g>
     </g>
     <g id="text_17">
      <!-- 6 -->
      <g transform="translate(44.2375 110.451802)scale(0.1 -0.1)">
       <defs>
        <path d="M 2113 2584 
Q 1688 2584 1439 2293 
Q 1191 2003 1191 1497 
Q 1191 994 1439 701 
Q 1688 409 2113 409 
Q 2538 409 2786 701 
Q 3034 994 3034 1497 
Q 3034 2003 2786 2293 
Q 2538 2584 2113 2584 
z
M 3366 4563 
L 3366 3988 
Q 3128 4100 2886 4159 
Q 2644 4219 2406 4219 
Q 1781 4219 1451 3797 
Q 1122 3375 1075 2522 
Q 1259 2794 1537 2939 
Q 1816 3084 2150 3084 
Q 2853 3084 3261 2657 
Q 3669 2231 3669 1497 
Q 3669 778 3244 343 
Q 2819 -91 2113 -91 
Q 1303 -91 875 529 
Q 447 1150 447 2328 
Q 447 3434 972 4092 
Q 1497 4750 2381 4750 
Q 2619 4750 2861 4703 
Q 3103 4656 3366 4563 
z
" id="DejaVuSans-36" transform="scale(0.015625)"/>
       </defs>
       <use xlink:href="#DejaVuSans-36"/>
      </g>
     </g>
    </g>
    <g id="ytick_8">
     <g id="line2d_33">
      <path clip-path="url(#p046114f356)" d="M 57.6 75.555002 
L 414.72 75.555002 
" style="fill:none;stroke:#b0b0b0;stroke-linecap:square;stroke-width:0.8;"/>
     </g>
     <g id="line2d_34">
      <g>
       <use style="stroke:#000000;stroke-width:0.8;" x="57.6" xlink:href="#mb7b38294a5" y="75.555002"/>
      </g>
     </g>
     <g id="text_18">
      <!-- 7 -->
      <g transform="translate(44.2375 79.354221)scale(0.1 -0.1)">
       <use xlink:href="#DejaVuSans-37"/>
      </g>
     </g>
    </g>
    <g id="ytick_9">
     <g id="line2d_35">
      <path clip-path="url(#p046114f356)" d="M 57.6 44.45742 
L 414.72 44.45742 
" style="fill:none;stroke:#b0b0b0;stroke-linecap:square;stroke-width:0.8;"/>
     </g>
     <g id="line2d_36">
      <g>
       <use style="stroke:#000000;stroke-width:0.8;" x="57.6" xlink:href="#mb7b38294a5" y="44.45742"/>
      </g>
     </g>
     <g id="text_19">
      <!-- 8 -->
      <g transform="translate(44.2375 48.256639)scale(0.1 -0.1)">
       <defs>
        <path d="M 2034 2216 
Q 1584 2216 1326 1975 
Q 1069 1734 1069 1313 
Q 1069 891 1326 650 
Q 1584 409 2034 409 
Q 2484 409 2743 651 
Q 3003 894 3003 1313 
Q 3003 1734 2745 1975 
Q 2488 2216 2034 2216 
z
M 1403 2484 
Q 997 2584 770 2862 
Q 544 3141 544 3541 
Q 544 4100 942 4425 
Q 1341 4750 2034 4750 
Q 2731 4750 3128 4425 
Q 3525 4100 3525 3541 
Q 3525 3141 3298 2862 
Q 3072 2584 2669 2484 
Q 3125 2378 3379 2068 
Q 3634 1759 3634 1313 
Q 3634 634 3220 271 
Q 2806 -91 2034 -91 
Q 1263 -91 848 271 
Q 434 634 434 1313 
Q 434 1759 690 2068 
Q 947 2378 1403 2484 
z
M 1172 3481 
Q 1172 3119 1398 2916 
Q 1625 2713 2034 2713 
Q 2441 2713 2670 2916 
Q 2900 3119 2900 3481 
Q 2900 3844 2670 4047 
Q 2441 4250 2034 4250 
Q 1625 4250 1398 4047 
Q 1172 3844 1172 3481 
z
" id="DejaVuSans-38" transform="scale(0.015625)"/>
       </defs>
       <use xlink:href="#DejaVuSans-38"/>
      </g>
     </g>
    </g>
    <g id="text_20">
     <!-- Fitness -->
     <g transform="translate(38.157812 191.845187)rotate(-90)scale(0.1 -0.1)">
      <defs>
       <path d="M 628 4666 
L 3309 4666 
L 3309 4134 
L 1259 4134 
L 1259 2759 
L 3109 2759 
L 3109 2228 
L 1259 2228 
L 1259 0 
L 628 0 
L 628 4666 
z
" id="DejaVuSans-46" transform="scale(0.015625)"/>
      </defs>
      <use xlink:href="#DejaVuSans-46"/>
      <use x="50.269531" xlink:href="#DejaVuSans-69"/>
      <use x="78.052734" xlink:href="#DejaVuSans-74"/>
      <use x="117.261719" xlink:href="#DejaVuSans-6e"/>
      <use x="180.640625" xlink:href="#DejaVuSans-65"/>
      <use x="242.164062" xlink:href="#DejaVuSans-73"/>
      <use x="294.263672" xlink:href="#DejaVuSans-73"/>
     </g>
    </g>
   </g>
   <g id="line2d_37">
    <path clip-path="url(#p046114f356)" d="M 73.832727 272.396332 
L 75.464157 269.465848 
L 77.095587 266.988623 
L 78.727017 266.243502 
L 80.358447 265.009294 
L 81.989877 261.887534 
L 83.621307 261.297634 
L 85.252736 263.087269 
L 86.884166 263.482466 
L 88.515596 262.345132 
L 90.147026 259.641913 
L 91.778456 259.985011 
L 93.409886 258.970027 
L 95.041316 261.511991 
L 96.672746 257.992724 
L 98.304175 257.672627 
L 99.935605 255.957547 
L 101.567035 254.635572 
L 104.829895 260.075333 
L 106.461325 260.776734 
L 108.092755 259.881348 
L 109.724185 266.247474 
L 111.355614 267.147865 
L 112.987044 265.005056 
L 114.618474 256.081099 
L 116.249904 256.089862 
L 117.881334 250.76107 
L 119.512764 254.933681 
L 121.144194 251.770416 
L 122.775624 251.673259 
L 124.407053 252.332745 
L 126.038483 251.05682 
L 127.669913 255.051737 
L 129.301343 250.28653 
L 130.932773 251.343119 
L 132.564203 250.212891 
L 134.195633 252.86298 
L 135.827063 251.794828 
L 137.458492 251.198473 
L 139.089922 255.412854 
L 140.721352 254.271656 
L 142.352782 254.078833 
L 143.984212 251.627964 
L 145.615642 250.317881 
L 147.247072 255.444378 
L 148.878502 250.076394 
L 150.509931 251.712463 
L 152.141361 250.266149 
L 153.772791 252.557145 
L 155.404221 250.167143 
L 157.035651 251.779651 
L 158.667081 253.810101 
L 160.298511 251.150187 
L 161.929941 250.136819 
L 163.56137 249.901813 
L 165.1928 253.355051 
L 166.82423 254.76585 
L 168.45566 255.744436 
L 171.71852 256.308791 
L 173.34995 253.477302 
L 174.98138 252.681141 
L 176.61281 256.830642 
L 178.244239 255.460654 
L 179.875669 256.456182 
L 181.507099 253.418526 
L 183.138529 253.019151 
L 184.769959 254.478373 
L 186.401389 253.781362 
L 188.032819 253.867462 
L 189.664249 252.509737 
L 191.295678 252.410759 
L 192.927108 253.442301 
L 194.558538 251.052101 
L 196.189968 257.739542 
L 197.821398 253.321694 
L 199.452828 253.452844 
L 201.084258 248.235991 
L 202.715688 248.493409 
L 204.347117 252.559838 
L 205.978547 250.261227 
L 207.609977 254.701429 
L 209.241407 251.356002 
L 210.872837 254.839747 
L 212.504267 252.182326 
L 214.135697 254.023893 
L 215.767127 252.719099 
L 217.398556 254.213344 
L 219.029986 253.159776 
L 220.661416 255.340591 
L 222.292846 257.74859 
L 223.924276 253.17595 
L 225.555706 251.370751 
L 227.187136 253.604191 
L 228.818566 253.363426 
L 230.449995 251.770899 
L 232.081425 254.49335 
L 233.712855 251.497319 
L 235.344285 257.367773 
L 236.975715 255.009295 
L 238.607145 255.451014 
L 240.238575 254.322698 
L 241.870005 250.221115 
L 243.501434 251.098269 
L 245.132864 252.176811 
L 246.764294 255.82459 
L 248.395724 251.708248 
L 250.027154 252.693735 
L 251.658584 254.816298 
L 253.290014 252.814305 
L 254.921444 249.826257 
L 256.552873 253.153184 
L 258.184303 253.196366 
L 259.815733 253.453178 
L 261.447163 250.943711 
L 263.078593 252.714191 
L 264.710023 255.808635 
L 266.341453 255.567158 
L 267.972883 254.699154 
L 269.604312 254.806292 
L 271.235742 258.313831 
L 272.867172 259.291371 
L 274.498602 258.464882 
L 276.130032 253.872576 
L 277.761462 256.459714 
L 279.392892 254.670337 
L 281.024322 256.723494 
L 282.655751 259.173109 
L 284.287181 257.743039 
L 285.918611 262.140775 
L 287.550041 262.487416 
L 289.181471 265.764741 
L 290.812901 259.672728 
L 292.444331 258.927714 
L 294.075761 262.587152 
L 295.70719 262.83663 
L 297.33862 260.7095 
L 298.97005 263.725324 
L 300.60148 260.272632 
L 302.23291 260.610937 
L 303.86434 260.527984 
L 305.49577 254.933738 
L 307.1272 260.922615 
L 308.75863 262.951466 
L 310.390059 260.798703 
L 312.021489 263.401833 
L 313.652919 259.385515 
L 315.284349 263.150952 
L 316.915779 259.356716 
L 318.547209 252.445355 
L 320.178639 253.220011 
L 321.810069 253.33403 
L 323.441498 251.111821 
L 325.072928 254.41055 
L 326.704358 253.054315 
L 328.335788 255.436022 
L 329.967218 254.833953 
L 331.598648 251.744015 
L 333.230078 250.388978 
L 334.861508 254.113819 
L 336.492937 252.13301 
L 338.124367 251.622091 
L 339.755797 252.763979 
L 341.387227 253.647878 
L 343.018657 251.780458 
L 344.650087 253.794133 
L 346.281517 253.686953 
L 347.912947 252.005729 
L 349.544376 248.979913 
L 351.175806 249.051044 
L 352.807236 248.393144 
L 354.438666 250.222328 
L 357.701526 250.615749 
L 359.332956 249.02086 
L 360.964386 248.945136 
L 362.595815 250.128681 
L 364.227245 247.297428 
L 365.858675 247.965895 
L 367.490105 247.15149 
L 369.121535 249.805233 
L 370.752965 248.54241 
L 372.384395 252.175604 
L 374.015825 250.500716 
L 375.647254 248.358606 
L 377.278684 248.193156 
L 378.910114 251.598911 
L 380.541544 247.587827 
L 382.172974 251.209448 
L 383.804404 250.739543 
L 385.435834 248.324947 
L 387.067264 249.227898 
L 388.698693 250.000231 
L 390.330123 250.540265 
L 391.961553 247.430248 
L 393.592983 251.210285 
L 395.224413 250.042505 
L 396.855843 249.120383 
L 398.487273 249.980443 
L 398.487273 249.980443 
" style="fill:none;stroke:#0000ff;stroke-linecap:square;stroke-width:1.5;"/>
   </g>
   <g id="line2d_38">
    <path clip-path="url(#p046114f356)" d="M 73.832727 280.006363 
L 75.464157 282.806835 
L 77.095587 284.675644 
L 78.727017 285.629124 
L 80.358447 285.286382 
L 81.989877 283.471055 
L 83.621307 283.409743 
L 86.884166 285.60374 
L 88.515596 285.278735 
L 90.147026 284.785753 
L 91.778456 285.003759 
L 93.409886 284.070289 
L 96.672746 285.860198 
L 98.304175 284.907747 
L 99.935605 285.910007 
L 101.567035 283.867761 
L 103.198465 285.46628 
L 104.829895 286.354801 
L 106.461325 286.306501 
L 108.092755 285.706728 
L 109.724185 287.569603 
L 111.355614 286.468664 
L 112.987044 286.907756 
L 114.618474 285.12283 
L 116.249904 285.32732 
L 117.881334 282.629404 
L 119.512764 284.832308 
L 121.144194 282.588958 
L 122.775624 282.596727 
L 126.038483 282.975842 
L 127.669913 284.93598 
L 129.301343 281.665354 
L 130.932773 282.978337 
L 132.564203 282.465537 
L 134.195633 284.208335 
L 135.827063 282.833069 
L 137.458492 282.791113 
L 139.089922 285.436093 
L 140.721352 285.696401 
L 142.352782 285.543954 
L 143.984212 284.32442 
L 145.615642 284.008839 
L 147.247072 286.652736 
L 148.878502 283.318487 
L 150.509931 284.416341 
L 152.141361 283.327477 
L 153.772791 284.093696 
L 155.404221 283.491493 
L 157.035651 283.819553 
L 158.667081 285.614117 
L 160.298511 282.678473 
L 161.929941 281.929394 
L 165.1928 284.454473 
L 166.82423 286.841865 
L 168.45566 285.783304 
L 170.08709 286.643487 
L 171.71852 287.772864 
L 173.34995 285.18628 
L 174.98138 286.024077 
L 176.61281 287.73435 
L 178.244239 286.091849 
L 179.875669 286.078348 
L 181.507099 284.547205 
L 183.138529 284.152891 
L 184.769959 285.70521 
L 186.401389 285.22714 
L 188.032819 286.128033 
L 189.664249 284.852559 
L 192.927108 284.599651 
L 194.558538 283.102769 
L 196.189968 288.198858 
L 197.821398 284.590302 
L 199.452828 285.83331 
L 201.084258 281.187125 
L 202.715688 282.031273 
L 204.347117 285.031789 
L 205.978547 282.421666 
L 207.609977 285.010905 
L 209.241407 283.443066 
L 210.872837 285.817898 
L 212.504267 285.02759 
L 214.135697 283.961121 
L 215.767127 283.826744 
L 217.398556 285.290319 
L 219.029986 285.843294 
L 220.661416 285.789176 
L 222.292846 287.701645 
L 223.924276 285.360612 
L 225.555706 283.245036 
L 227.187136 285.557593 
L 228.818566 285.568073 
L 230.449995 284.967022 
L 232.081425 285.454712 
L 233.712855 283.246314 
L 235.344285 287.511022 
L 236.975715 287.128434 
L 238.607145 286.54361 
L 240.238575 286.286171 
L 241.870005 283.396887 
L 243.501434 285.061406 
L 245.132864 284.605101 
L 246.764294 287.122428 
L 248.395724 284.656592 
L 250.027154 284.944772 
L 251.658584 285.516833 
L 253.290014 284.933516 
L 254.921444 282.867861 
L 258.184303 286.540655 
L 261.447163 283.857748 
L 263.078593 284.769347 
L 264.710023 287.301378 
L 266.341453 286.698611 
L 267.972883 285.71243 
L 269.604312 286.448302 
L 271.235742 287.475938 
L 272.867172 289.054135 
L 274.498602 288.681203 
L 276.130032 286.631898 
L 277.761462 286.895069 
L 279.392892 286.298016 
L 281.024322 286.983728 
L 282.655751 288.935579 
L 284.287181 287.840913 
L 285.918611 289.843379 
L 287.550041 289.746083 
L 289.181471 290.44848 
L 290.812901 289.421654 
L 292.444331 289.191573 
L 294.075761 289.502133 
L 295.70719 289.156902 
L 297.33862 288.939338 
L 298.97005 290.46497 
L 300.60148 289.276406 
L 302.23291 288.776848 
L 303.86434 289.248293 
L 305.49577 287.042119 
L 307.1272 291.201303 
L 308.75863 291.823661 
L 310.390059 290.535609 
L 312.021489 290.458542 
L 313.652919 289.766497 
L 315.284349 290.959746 
L 316.915779 290.519004 
L 318.547209 287.236099 
L 320.178639 288.890994 
L 321.810069 288.793014 
L 323.441498 289.166563 
L 325.072928 290.615656 
L 326.704358 290.630859 
L 328.335788 290.902748 
L 329.967218 290.28276 
L 331.598648 290.307404 
L 333.230078 289.814665 
L 334.861508 291.689149 
L 336.492937 290.287663 
L 338.124367 289.172727 
L 339.755797 290.734939 
L 341.387227 291.119799 
L 343.018657 289.690897 
L 344.650087 288.779694 
L 346.281517 290.234221 
L 347.912947 288.534159 
L 349.544376 286.480521 
L 351.175806 286.451541 
L 352.807236 288.527702 
L 354.438666 289.487038 
L 356.070096 288.827084 
L 357.701526 288.487335 
L 359.332956 288.807117 
L 360.964386 290.815633 
L 362.595815 291.718578 
L 364.227245 290.812038 
L 365.858675 291.348935 
L 367.490105 288.187692 
L 369.121535 290.954111 
L 370.752965 291.135069 
L 372.384395 292.355038 
L 374.015825 293.060807 
L 375.647254 294.470057 
L 377.278684 295.028921 
L 378.910114 293.512696 
L 380.541544 294.687996 
L 382.172974 295.427734 
L 383.804404 295.488 
L 385.435834 294.994776 
L 387.067264 293.276815 
L 388.698693 293.838691 
L 390.330123 293.915587 
L 391.961553 295.266346 
L 393.592983 293.82582 
L 395.224413 292.994501 
L 396.855843 293.331999 
L 398.487273 294.847366 
L 398.487273 294.847366 
" style="fill:none;stroke:#008000;stroke-dasharray:9.6,2.4,1.5,2.4;stroke-dashoffset:0;stroke-width:1.5;"/>
   </g>
   <g id="line2d_39">
    <path clip-path="url(#p046114f356)" d="M 73.832727 264.7863 
L 75.464157 256.124861 
L 77.095587 249.301601 
L 78.727017 246.857879 
L 80.358447 244.732206 
L 81.989877 240.304012 
L 83.621307 239.185525 
L 85.252736 241.612596 
L 86.884166 241.361193 
L 88.515596 239.41153 
L 90.147026 234.498073 
L 91.778456 234.966262 
L 93.409886 233.869765 
L 95.041316 238.111184 
L 96.672746 230.125251 
L 98.304175 230.437507 
L 99.935605 226.005087 
L 101.567035 225.403382 
L 103.198465 229.274415 
L 104.829895 233.795866 
L 106.461325 235.246968 
L 108.092755 234.055968 
L 109.724185 244.925344 
L 111.355614 247.827066 
L 112.987044 243.102356 
L 114.618474 227.039368 
L 116.249904 226.852404 
L 117.881334 218.892737 
L 119.512764 225.035055 
L 121.144194 220.951875 
L 122.775624 220.749791 
L 124.407053 221.926676 
L 126.038483 219.137797 
L 127.669913 225.167495 
L 129.301343 218.907705 
L 130.932773 219.7079 
L 132.564203 217.960245 
L 134.195633 221.517626 
L 135.827063 220.756587 
L 137.458492 219.605833 
L 139.089922 225.389616 
L 140.721352 222.84691 
L 142.352782 222.613711 
L 143.984212 218.931509 
L 145.615642 216.626924 
L 147.247072 224.23602 
L 148.878502 216.8343 
L 150.509931 219.008585 
L 152.141361 217.204822 
L 153.772791 221.020593 
L 155.404221 216.842794 
L 157.035651 219.739749 
L 158.667081 222.006085 
L 160.298511 219.621902 
L 161.929941 218.344244 
L 163.56137 216.615448 
L 165.1928 222.25563 
L 166.82423 222.689835 
L 168.45566 225.705567 
L 170.08709 225.451874 
L 171.71852 224.844719 
L 173.34995 221.768324 
L 174.98138 219.338204 
L 176.61281 225.926934 
L 178.244239 224.829459 
L 179.875669 226.834015 
L 181.507099 222.289848 
L 183.138529 221.88541 
L 184.769959 223.251536 
L 186.401389 222.335584 
L 188.032819 221.606891 
L 189.664249 220.166915 
L 191.295678 220.132425 
L 192.927108 222.28495 
L 194.558538 219.001432 
L 196.189968 227.280225 
L 197.821398 222.053086 
L 199.452828 221.072377 
L 201.084258 215.284857 
L 202.715688 214.955545 
L 204.347117 220.087886 
L 205.978547 218.100789 
L 207.609977 224.391954 
L 209.241407 219.268938 
L 210.872837 223.861596 
L 212.504267 219.337062 
L 214.135697 224.086665 
L 215.767127 221.611454 
L 217.398556 223.13637 
L 219.029986 220.476257 
L 220.661416 224.892006 
L 222.292846 227.795535 
L 223.924276 220.991287 
L 225.555706 219.496465 
L 227.187136 221.650789 
L 228.818566 221.158779 
L 230.449995 218.574775 
L 232.081425 223.531989 
L 233.712855 219.748323 
L 235.344285 227.224523 
L 236.975715 222.890156 
L 238.607145 224.358418 
L 240.238575 222.359224 
L 241.870005 217.045343 
L 243.501434 217.135132 
L 245.132864 219.748521 
L 246.764294 224.526752 
L 248.395724 218.759903 
L 250.027154 220.442698 
L 251.658584 224.115763 
L 253.290014 220.695095 
L 254.921444 216.784654 
L 256.552873 221.540089 
L 258.184303 219.852078 
L 259.815733 221.774556 
L 261.447163 218.029673 
L 263.078593 220.659035 
L 264.710023 224.315892 
L 266.341453 224.435705 
L 267.972883 223.685878 
L 269.604312 223.164281 
L 271.235742 229.151724 
L 272.867172 229.528608 
L 274.498602 228.248561 
L 276.130032 221.113255 
L 277.761462 226.024358 
L 279.392892 223.042658 
L 281.024322 226.46326 
L 282.655751 229.410639 
L 284.287181 227.645164 
L 285.918611 234.438172 
L 287.550041 235.22875 
L 289.181471 241.081003 
L 290.812901 229.923802 
L 292.444331 228.663855 
L 294.075761 235.67217 
L 295.70719 236.516357 
L 297.33862 232.479662 
L 298.97005 236.985678 
L 300.60148 231.268857 
L 302.23291 232.445025 
L 303.86434 231.807674 
L 305.49577 222.825358 
L 307.1272 230.643928 
L 308.75863 234.079271 
L 310.390059 231.061798 
L 312.021489 236.345124 
L 313.652919 229.004533 
L 315.284349 235.342159 
L 316.915779 228.194427 
L 318.547209 217.65461 
L 320.178639 217.549028 
L 321.810069 217.875046 
L 323.441498 213.057079 
L 325.072928 218.205445 
L 326.704358 215.477771 
L 328.335788 219.969296 
L 329.967218 219.385146 
L 331.598648 213.180626 
L 333.230078 210.96329 
L 334.861508 216.538489 
L 336.492937 213.978358 
L 338.124367 214.071456 
L 339.755797 214.793019 
L 341.387227 216.175958 
L 343.018657 213.87002 
L 344.650087 218.808571 
L 347.912947 215.477299 
L 349.544376 211.479306 
L 351.175806 211.650546 
L 352.807236 208.258585 
L 354.438666 210.957618 
L 356.070096 211.975752 
L 357.701526 212.744163 
L 359.332956 209.234603 
L 360.964386 207.074638 
L 362.595815 208.538783 
L 364.227245 203.782817 
L 365.858675 204.582856 
L 367.490105 206.115288 
L 369.121535 208.656356 
L 370.752965 205.94975 
L 372.384395 211.99617 
L 374.015825 207.940625 
L 375.647254 202.247155 
L 377.278684 201.357391 
L 378.910114 209.685126 
L 380.541544 200.487658 
L 382.172974 206.991161 
L 383.804404 205.991087 
L 385.435834 201.655119 
L 387.067264 205.178982 
L 390.330123 207.164944 
L 391.961553 199.594149 
L 393.592983 208.59475 
L 395.224413 207.090508 
L 396.855843 204.908766 
L 398.487273 205.113519 
L 398.487273 205.113519 
" style="fill:none;stroke:#008000;stroke-dasharray:9.6,2.4,1.5,2.4;stroke-dashoffset:0;stroke-width:1.5;"/>
   </g>
   <g id="line2d_40">
    <path clip-path="url(#p046114f356)" d="M 73.832727 235.996692 
L 75.464157 147.341611 
L 95.041316 147.341611 
L 96.672746 147.2011 
L 130.932773 147.128425 
L 132.564203 145.982183 
L 139.089922 145.982183 
L 140.721352 145.579192 
L 142.352782 115.750835 
L 143.984212 110.78905 
L 329.967218 110.78905 
L 331.598648 53.568 
L 398.487273 53.568 
L 398.487273 53.568 
" style="fill:none;stroke:#ff0000;stroke-linecap:square;stroke-width:1.5;"/>
   </g>
   <g id="patch_3">
    <path d="M 57.6 307.584 
L 57.6 41.472 
" style="fill:none;stroke:#000000;stroke-linecap:square;stroke-linejoin:miter;stroke-width:0.8;"/>
   </g>
   <g id="patch_4">
    <path d="M 414.72 307.584 
L 414.72 41.472 
" style="fill:none;stroke:#000000;stroke-linecap:square;stroke-linejoin:miter;stroke-width:0.8;"/>
   </g>
   <g id="patch_5">
    <path d="M 57.6 307.584 
L 414.72 307.584 
" style="fill:none;stroke:#000000;stroke-linecap:square;stroke-linejoin:miter;stroke-width:0.8;"/>
   </g>
   <g id="patch_6">
    <path d="M 57.6 41.472 
L 414.72 41.472 
" style="fill:none;stroke:#000000;stroke-linecap:square;stroke-linejoin:miter;stroke-width:0.8;"/>
   </g>
   <g id="text_21">
    <!-- Population's average and best fitness -->
    <g transform="translate(123.529687 35.472)scale(0.12 -0.12)">
     <defs>
      <path d="M 1259 4147 
L 1259 2394 
L 2053 2394 
Q 2494 2394 2734 2622 
Q 2975 2850 2975 3272 
Q 2975 3691 2734 3919 
Q 2494 4147 2053 4147 
L 1259 4147 
z
M 628 4666 
L 2053 4666 
Q 2838 4666 3239 4311 
Q 3641 3956 3641 3272 
Q 3641 2581 3239 2228 
Q 2838 1875 2053 1875 
L 1259 1875 
L 1259 0 
L 628 0 
L 628 4666 
z
" id="DejaVuSans-50" transform="scale(0.015625)"/>
      <path d="M 1159 525 
L 1159 -1331 
L 581 -1331 
L 581 3500 
L 1159 3500 
L 1159 2969 
Q 1341 3281 1617 3432 
Q 1894 3584 2278 3584 
Q 2916 3584 3314 3078 
Q 3713 2572 3713 1747 
Q 3713 922 3314 415 
Q 2916 -91 2278 -91 
Q 1894 -91 1617 61 
Q 1341 213 1159 525 
z
M 3116 1747 
Q 3116 2381 2855 2742 
Q 2594 3103 2138 3103 
Q 1681 3103 1420 2742 
Q 1159 2381 1159 1747 
Q 1159 1113 1420 752 
Q 1681 391 2138 391 
Q 2594 391 2855 752 
Q 3116 1113 3116 1747 
z
" id="DejaVuSans-70" transform="scale(0.015625)"/>
      <path d="M 544 1381 
L 544 3500 
L 1119 3500 
L 1119 1403 
Q 1119 906 1312 657 
Q 1506 409 1894 409 
Q 2359 409 2629 706 
Q 2900 1003 2900 1516 
L 2900 3500 
L 3475 3500 
L 3475 0 
L 2900 0 
L 2900 538 
Q 2691 219 2414 64 
Q 2138 -91 1772 -91 
Q 1169 -91 856 284 
Q 544 659 544 1381 
z
M 1991 3584 
L 1991 3584 
z
" id="DejaVuSans-75" transform="scale(0.015625)"/>
      <path d="M 603 4863 
L 1178 4863 
L 1178 0 
L 603 0 
L 603 4863 
z
" id="DejaVuSans-6c" transform="scale(0.015625)"/>
      <path d="M 1147 4666 
L 1147 2931 
L 616 2931 
L 616 4666 
L 1147 4666 
z
" id="DejaVuSans-27" transform="scale(0.015625)"/>
      <path id="DejaVuSans-20" transform="scale(0.015625)"/>
      <path d="M 191 3500 
L 800 3500 
L 1894 563 
L 2988 3500 
L 3597 3500 
L 2284 0 
L 1503 0 
L 191 3500 
z
" id="DejaVuSans-76" transform="scale(0.015625)"/>
      <path d="M 2906 1791 
Q 2906 2416 2648 2759 
Q 2391 3103 1925 3103 
Q 1463 3103 1205 2759 
Q 947 2416 947 1791 
Q 947 1169 1205 825 
Q 1463 481 1925 481 
Q 2391 481 2648 825 
Q 2906 1169 2906 1791 
z
M 3481 434 
Q 3481 -459 3084 -895 
Q 2688 -1331 1869 -1331 
Q 1566 -1331 1297 -1286 
Q 1028 -1241 775 -1147 
L 775 -588 
Q 1028 -725 1275 -790 
Q 1522 -856 1778 -856 
Q 2344 -856 2625 -561 
Q 2906 -266 2906 331 
L 2906 616 
Q 2728 306 2450 153 
Q 2172 0 1784 0 
Q 1141 0 747 490 
Q 353 981 353 1791 
Q 353 2603 747 3093 
Q 1141 3584 1784 3584 
Q 2172 3584 2450 3431 
Q 2728 3278 2906 2969 
L 2906 3500 
L 3481 3500 
L 3481 434 
z
" id="DejaVuSans-67" transform="scale(0.015625)"/>
      <path d="M 2906 2969 
L 2906 4863 
L 3481 4863 
L 3481 0 
L 2906 0 
L 2906 525 
Q 2725 213 2448 61 
Q 2172 -91 1784 -91 
Q 1150 -91 751 415 
Q 353 922 353 1747 
Q 353 2572 751 3078 
Q 1150 3584 1784 3584 
Q 2172 3584 2448 3432 
Q 2725 3281 2906 2969 
z
M 947 1747 
Q 947 1113 1208 752 
Q 1469 391 1925 391 
Q 2381 391 2643 752 
Q 2906 1113 2906 1747 
Q 2906 2381 2643 2742 
Q 2381 3103 1925 3103 
Q 1469 3103 1208 2742 
Q 947 2381 947 1747 
z
" id="DejaVuSans-64" transform="scale(0.015625)"/>
      <path d="M 3116 1747 
Q 3116 2381 2855 2742 
Q 2594 3103 2138 3103 
Q 1681 3103 1420 2742 
Q 1159 2381 1159 1747 
Q 1159 1113 1420 752 
Q 1681 391 2138 391 
Q 2594 391 2855 752 
Q 3116 1113 3116 1747 
z
M 1159 2969 
Q 1341 3281 1617 3432 
Q 1894 3584 2278 3584 
Q 2916 3584 3314 3078 
Q 3713 2572 3713 1747 
Q 3713 922 3314 415 
Q 2916 -91 2278 -91 
Q 1894 -91 1617 61 
Q 1341 213 1159 525 
L 1159 0 
L 581 0 
L 581 4863 
L 1159 4863 
L 1159 2969 
z
" id="DejaVuSans-62" transform="scale(0.015625)"/>
      <path d="M 2375 4863 
L 2375 4384 
L 1825 4384 
Q 1516 4384 1395 4259 
Q 1275 4134 1275 3809 
L 1275 3500 
L 2222 3500 
L 2222 3053 
L 1275 3053 
L 1275 0 
L 697 0 
L 697 3053 
L 147 3053 
L 147 3500 
L 697 3500 
L 697 3744 
Q 697 4328 969 4595 
Q 1241 4863 1831 4863 
L 2375 4863 
z
" id="DejaVuSans-66" transform="scale(0.015625)"/>
     </defs>
     <use xlink:href="#DejaVuSans-50"/>
     <use x="56.677734" xlink:href="#DejaVuSans-6f"/>
     <use x="117.859375" xlink:href="#DejaVuSans-70"/>
     <use x="181.335938" xlink:href="#DejaVuSans-75"/>
     <use x="244.714844" xlink:href="#DejaVuSans-6c"/>
     <use x="272.498047" xlink:href="#DejaVuSans-61"/>
     <use x="333.777344" xlink:href="#DejaVuSans-74"/>
     <use x="372.986328" xlink:href="#DejaVuSans-69"/>
     <use x="400.769531" xlink:href="#DejaVuSans-6f"/>
     <use x="461.951172" xlink:href="#DejaVuSans-6e"/>
     <use x="525.330078" xlink:href="#DejaVuSans-27"/>
     <use x="552.820312" xlink:href="#DejaVuSans-73"/>
     <use x="604.919922" xlink:href="#DejaVuSans-20"/>
     <use x="636.707031" xlink:href="#DejaVuSans-61"/>
     <use x="697.986328" xlink:href="#DejaVuSans-76"/>
     <use x="757.166016" xlink:href="#DejaVuSans-65"/>
     <use x="818.689453" xlink:href="#DejaVuSans-72"/>
     <use x="859.802734" xlink:href="#DejaVuSans-61"/>
     <use x="921.082031" xlink:href="#DejaVuSans-67"/>
     <use x="984.558594" xlink:href="#DejaVuSans-65"/>
     <use x="1046.082031" xlink:href="#DejaVuSans-20"/>
     <use x="1077.869141" xlink:href="#DejaVuSans-61"/>
     <use x="1139.148438" xlink:href="#DejaVuSans-6e"/>
     <use x="1202.527344" xlink:href="#DejaVuSans-64"/>
     <use x="1266.003906" xlink:href="#DejaVuSans-20"/>
     <use x="1297.791016" xlink:href="#DejaVuSans-62"/>
     <use x="1361.267578" xlink:href="#DejaVuSans-65"/>
     <use x="1422.791016" xlink:href="#DejaVuSans-73"/>
     <use x="1474.890625" xlink:href="#DejaVuSans-74"/>
     <use x="1514.099609" xlink:href="#DejaVuSans-20"/>
     <use x="1545.886719" xlink:href="#DejaVuSans-66"/>
     <use x="1581.091797" xlink:href="#DejaVuSans-69"/>
     <use x="1608.875" xlink:href="#DejaVuSans-74"/>
     <use x="1648.083984" xlink:href="#DejaVuSans-6e"/>
     <use x="1711.462891" xlink:href="#DejaVuSans-65"/>
     <use x="1772.986328" xlink:href="#DejaVuSans-73"/>
     <use x="1825.085938" xlink:href="#DejaVuSans-73"/>
    </g>
   </g>
   <g id="legend_1">
    <g id="patch_7">
     <path d="M 64.6 108.1845 
L 137.540625 108.1845 
Q 139.540625 108.1845 139.540625 106.1845 
L 139.540625 48.472 
Q 139.540625 46.472 137.540625 46.472 
L 64.6 46.472 
Q 62.6 46.472 62.6 48.472 
L 62.6 106.1845 
Q 62.6 108.1845 64.6 108.1845 
z
" style="fill:#ffffff;opacity:0.8;stroke:#cccccc;stroke-linejoin:miter;"/>
    </g>
    <g id="line2d_41">
     <path d="M 66.6 54.570438 
L 86.6 54.570438 
" style="fill:none;stroke:#0000ff;stroke-linecap:square;stroke-width:1.5;"/>
    </g>
    <g id="line2d_42"/>
    <g id="text_22">
     <!-- average -->
     <g transform="translate(94.6 58.070438)scale(0.1 -0.1)">
      <use xlink:href="#DejaVuSans-61"/>
      <use x="61.279297" xlink:href="#DejaVuSans-76"/>
      <use x="120.458984" xlink:href="#DejaVuSans-65"/>
      <use x="181.982422" xlink:href="#DejaVuSans-72"/>
      <use x="223.095703" xlink:href="#DejaVuSans-61"/>
      <use x="284.375" xlink:href="#DejaVuSans-67"/>
      <use x="347.851562" xlink:href="#DejaVuSans-65"/>
     </g>
    </g>
    <g id="line2d_43">
     <path d="M 66.6 69.248563 
L 86.6 69.248563 
" style="fill:none;stroke:#008000;stroke-dasharray:9.6,2.4,1.5,2.4;stroke-dashoffset:0;stroke-width:1.5;"/>
    </g>
    <g id="line2d_44"/>
    <g id="text_23">
     <!-- -1 sd -->
     <g transform="translate(94.6 72.748563)scale(0.1 -0.1)">
      <defs>
       <path d="M 313 2009 
L 1997 2009 
L 1997 1497 
L 313 1497 
L 313 2009 
z
" id="DejaVuSans-2d" transform="scale(0.015625)"/>
      </defs>
      <use xlink:href="#DejaVuSans-2d"/>
      <use x="36.083984" xlink:href="#DejaVuSans-31"/>
      <use x="99.707031" xlink:href="#DejaVuSans-20"/>
      <use x="131.494141" xlink:href="#DejaVuSans-73"/>
      <use x="183.59375" xlink:href="#DejaVuSans-64"/>
     </g>
    </g>
    <g id="line2d_45">
     <path d="M 66.6 83.926688 
L 86.6 83.926688 
" style="fill:none;stroke:#008000;stroke-dasharray:9.6,2.4,1.5,2.4;stroke-dashoffset:0;stroke-width:1.5;"/>
    </g>
    <g id="line2d_46"/>
    <g id="text_24">
     <!-- +1 sd -->
     <g transform="translate(94.6 87.426688)scale(0.1 -0.1)">
      <defs>
       <path d="M 2944 4013 
L 2944 2272 
L 4684 2272 
L 4684 1741 
L 2944 1741 
L 2944 0 
L 2419 0 
L 2419 1741 
L 678 1741 
L 678 2272 
L 2419 2272 
L 2419 4013 
L 2944 4013 
z
" id="DejaVuSans-2b" transform="scale(0.015625)"/>
      </defs>
      <use xlink:href="#DejaVuSans-2b"/>
      <use x="83.789062" xlink:href="#DejaVuSans-31"/>
      <use x="147.412109" xlink:href="#DejaVuSans-20"/>
      <use x="179.199219" xlink:href="#DejaVuSans-73"/>
      <use x="231.298828" xlink:href="#DejaVuSans-64"/>
     </g>
    </g>
    <g id="line2d_47">
     <path d="M 66.6 98.604813 
L 86.6 98.604813 
" style="fill:none;stroke:#ff0000;stroke-linecap:square;stroke-width:1.5;"/>
    </g>
    <g id="line2d_48"/>
    <g id="text_25">
     <!-- best -->
     <g transform="translate(94.6 102.104813)scale(0.1 -0.1)">
      <use xlink:href="#DejaVuSans-62"/>
      <use x="63.476562" xlink:href="#DejaVuSans-65"/>
      <use x="125" xlink:href="#DejaVuSans-73"/>
      <use x="177.099609" xlink:href="#DejaVuSans-74"/>
     </g>
    </g>
   </g>
  </g>
 </g>
 <defs>
  <clipPath id="p046114f356">
   <rect height="266.112" width="357.12" x="57.6" y="41.472"/>
  </clipPath>
 </defs>
</svg>
