<?xml version="1.0" encoding="UTF-8" standalone="no"?>
<!DOCTYPE svg PUBLIC "-//W3C//DTD SVG 1.1//EN"
 "http://www.w3.org/Graphics/SVG/1.1/DTD/svg11.dtd">
<!-- Generated by graphviz version 2.50.0 (20211204.2007)
 -->
<!-- Pages: 1 -->
<svg width="532pt" height="145pt"
 viewBox="0.00 0.00 532.00 145.44" xmlns="http://www.w3.org/2000/svg" xmlns:xlink="http://www.w3.org/1999/xlink">
<g id="graph0" class="graph" transform="scale(1 1) rotate(0) translate(4 141.44)">
<polygon fill="white" stroke="transparent" points="-4,4 -4,-141.44 528,-141.44 528,4 -4,4"/>
<!-- RF_R -->
<g id="node1" class="node">
<title>RF_R</title>
<polygon fill="lightgray" stroke="black" points="38,-137.44 0,-137.44 0,-119.44 38,-119.44 38,-137.44"/>
<text text-anchor="middle" x="19" y="-126.24" font-family="Times,serif" font-size="9.00">RF_R</text>
</g>
<!-- ANG_VEL -->
<g id="node10" class="node">
<title>ANG_VEL</title>
<ellipse fill="lightblue" stroke="black" cx="47" cy="-41.72" rx="41.94" ry="41.94"/>
<text text-anchor="middle" x="47" y="-39.52" font-family="Times,serif" font-size="9.00">ANG_VEL</text>
</g>
<!-- RF_R&#45;&gt;ANG_VEL -->
<g id="edge2" class="edge">
<title>RF_R&#45;&gt;ANG_VEL</title>
<path fill="none" stroke="green" stroke-width="0.43" d="M21.68,-119.32C23.93,-112.52 27.33,-102.23 30.92,-91.37"/>
<polygon fill="green" stroke="green" stroke-width="0.43" points="34.29,-92.34 34.1,-81.75 27.64,-90.15 34.29,-92.34"/>
</g>
<!-- RF_FR -->
<g id="node2" class="node">
<title>RF_FR</title>
<polygon fill="lightgray" stroke="black" points="156,-137.44 112,-137.44 112,-119.44 156,-119.44 156,-137.44"/>
<text text-anchor="middle" x="134" y="-126.24" font-family="Times,serif" font-size="9.00">RF_FR</text>
</g>
<!-- VEL -->
<g id="node11" class="node">
<title>VEL</title>
<ellipse fill="lightblue" stroke="black" cx="198" cy="-41.72" rx="24.08" ry="24.08"/>
<text text-anchor="middle" x="198" y="-39.52" font-family="Times,serif" font-size="9.00">VEL</text>
</g>
<!-- RF_FR&#45;&gt;VEL -->
<g id="edge1" class="edge">
<title>RF_FR&#45;&gt;VEL</title>
<path fill="none" stroke="red" stroke-width="0.33" d="M140.14,-119.32C148.74,-107.93 164.79,-86.67 177.81,-69.44"/>
<polygon fill="red" stroke="red" stroke-width="0.33" points="180.68,-71.45 183.92,-61.36 175.09,-67.23 180.68,-71.45"/>
</g>
<!-- RF_F -->
<g id="node3" class="node">
<title>RF_F</title>
<polygon fill="lightgray" stroke="black" points="278,-137.44 240,-137.44 240,-119.44 278,-119.44 278,-137.44"/>
<text text-anchor="middle" x="259" y="-126.24" font-family="Times,serif" font-size="9.00">RF_F</text>
</g>
<!-- RF_F&#45;&gt;VEL -->
<g id="edge7" class="edge">
<title>RF_F&#45;&gt;VEL</title>
<path fill="none" stroke="green" stroke-width="0.29" d="M253.15,-119.32C245.08,-108.1 230.11,-87.32 217.81,-70.23"/>
<polygon fill="green" stroke="green" stroke-width="0.29" points="220.35,-67.77 211.67,-61.7 214.67,-71.86 220.35,-67.77"/>
</g>
<!-- 2 -->
<g id="node12" class="node">
<title>2</title>
<ellipse fill="lightblue" stroke="black" cx="315" cy="-41.72" rx="14.7" ry="14.7"/>
<text text-anchor="middle" x="315" y="-39.52" font-family="Times,serif" font-size="9.00">2</text>
</g>
<!-- RF_F&#45;&gt;2 -->
<g id="edge4" class="edge">
<title>RF_F&#45;&gt;2</title>
<path fill="none" stroke="green" stroke-width="0.71" d="M264.37,-119.32C272.86,-106.48 289.62,-81.11 301.54,-63.09"/>
<polygon fill="green" stroke="green" stroke-width="0.71" points="304.66,-64.71 307.25,-54.44 298.82,-60.85 304.66,-64.71"/>
</g>
<!-- RF_FL -->
<g id="node4" class="node">
<title>RF_FL</title>
<polygon fill="lightgray" stroke="black" points="459.5,-137.44 416.5,-137.44 416.5,-119.44 459.5,-119.44 459.5,-137.44"/>
<text text-anchor="middle" x="438" y="-126.24" font-family="Times,serif" font-size="9.00">RF_FL</text>
</g>
<!-- RF_L -->
<g id="node5" class="node">
<title>RF_L</title>
<polygon fill="lightgray" stroke="black" points="94,-137.44 56,-137.44 56,-119.44 94,-119.44 94,-137.44"/>
<text text-anchor="middle" x="75" y="-126.24" font-family="Times,serif" font-size="9.00">RF_L</text>
</g>
<!-- RF_L&#45;&gt;ANG_VEL -->
<g id="edge6" class="edge">
<title>RF_L&#45;&gt;ANG_VEL</title>
<path fill="none" stroke="red" stroke-width="0.18" d="M72.32,-119.32C70.07,-112.52 66.67,-102.23 63.08,-91.37"/>
<polygon fill="red" stroke="red" stroke-width="0.18" points="66.36,-90.15 59.9,-81.75 59.71,-92.34 66.36,-90.15"/>
</g>
<!-- RF_B -->
<g id="node6" class="node">
<title>RF_B</title>
<polygon fill="lightgray" stroke="black" points="334,-137.44 296,-137.44 296,-119.44 334,-119.44 334,-137.44"/>
<text text-anchor="middle" x="315" y="-126.24" font-family="Times,serif" font-size="9.00">RF_B</text>
</g>
<!-- RF_B&#45;&gt;2 -->
<g id="edge3" class="edge">
<title>RF_B&#45;&gt;2</title>
<path fill="none" stroke="green" stroke-width="0.19" d="M315,-119.32C315,-107.38 315,-84.61 315,-66.99"/>
<polygon fill="green" stroke="green" stroke-width="0.19" points="318.5,-66.82 315,-56.82 311.5,-66.82 318.5,-66.82"/>
</g>
<!-- RAD_F -->
<g id="node7" class="node">
<title>RAD_F</title>
<polygon fill="lightgray" stroke="black" points="398,-137.44 352,-137.44 352,-119.44 398,-119.44 398,-137.44"/>
<text text-anchor="middle" x="375" y="-126.24" font-family="Times,serif" font-size="9.00">RAD_F</text>
</g>
<!-- RAD_F&#45;&gt;2 -->
<g id="edge5" class="edge">
<title>RAD_F&#45;&gt;2</title>
<path fill="none" stroke="green" stroke-width="0.38" d="M369.25,-119.32C360.16,-106.48 342.19,-81.11 329.43,-63.09"/>
<polygon fill="green" stroke="green" stroke-width="0.38" points="331.94,-60.58 323.3,-54.44 326.22,-64.62 331.94,-60.58"/>
</g>
<!-- RAD_L -->
<g id="node8" class="node">
<title>RAD_L</title>
<polygon fill="lightgray" stroke="black" points="524,-137.44 478,-137.44 478,-119.44 524,-119.44 524,-137.44"/>
<text text-anchor="middle" x="501" y="-126.24" font-family="Times,serif" font-size="9.00">RAD_L</text>
</g>
<!-- RAD_B -->
<g id="node9" class="node">
<title>RAD_B</title>
<polygon fill="lightgray" stroke="black" points="221.5,-137.44 174.5,-137.44 174.5,-119.44 221.5,-119.44 221.5,-137.44"/>
<text text-anchor="middle" x="198" y="-126.24" font-family="Times,serif" font-size="9.00">RAD_B</text>
</g>
<!-- RAD_B&#45;&gt;VEL -->
<g id="edge8" class="edge">
<title>RAD_B&#45;&gt;VEL</title>
<path fill="none" stroke="red" stroke-width="1.24" d="M198,-119.32C198,-109.33 198,-91.75 198,-75.96"/>
<polygon fill="red" stroke="red" stroke-width="1.24" points="201.5,-75.93 198,-65.93 194.5,-75.93 201.5,-75.93"/>
</g>
</g>
</svg>
