<?xml version="1.0" encoding="utf-8" standalone="no"?>
<!DOCTYPE svg PUBLIC "-//W3C//DTD SVG 1.1//EN"
  "http://www.w3.org/Graphics/SVG/1.1/DTD/svg11.dtd">
<svg height="504pt" version="1.1" viewBox="0 0 237.6 504" width="237.6pt" xmlns="http://www.w3.org/2000/svg" xmlns:xlink="http://www.w3.org/1999/xlink">
 <metadata>
  <rdf:RDF xmlns:cc="http://creativecommons.org/ns#" xmlns:dc="http://purl.org/dc/elements/1.1/" xmlns:rdf="http://www.w3.org/1999/02/22-rdf-syntax-ns#">
   <cc:Work>
    <dc:type rdf:resource="http://purl.org/dc/dcmitype/StillImage"/>
    <dc:date>2022-05-29T15:56:48.025922</dc:date>
    <dc:format>image/svg+xml</dc:format>
    <dc:creator>
     <cc:Agent>
      <dc:title>Matplotlib v3.3.4+2343.g7e3cef3ba, https://matplotlib.org/</dc:title>
     </cc:Agent>
    </dc:creator>
   </cc:Work>
  </rdf:RDF>
 </metadata>
 <defs>
  <style type="text/css">*{stroke-linecap:butt;stroke-linejoin:round;}</style>
 </defs>
 <g id="figure_1">
  <g id="patch_1">
   <path d="M 0 504 
L 237.6 504 
L 237.6 0 
L 0 0 
z
" style="fill:#ffffff;"/>
  </g>
  <g id="axes_1">
   <g id="patch_2">
    <path clip-path="url(#p3bb83eb47a)" d="M 149.912587 118.273533 
C 150.217803 118.273533 150.510558 118.389699 150.726378 118.596448 
C 150.942198 118.803196 151.063462 119.083647 151.063462 119.376033 
C 151.063462 119.668419 150.942198 119.94887 150.726378 120.155618 
C 150.510558 120.362367 150.217803 120.478533 149.912587 120.478533 
C 149.607371 120.478533 149.314615 120.362367 149.098795 120.155618 
C 148.882975 119.94887 148.761712 119.668419 148.761712 119.376033 
C 148.761712 119.083647 148.882975 118.803196 149.098795 118.596448 
C 149.314615 118.389699 149.607371 118.273533 149.912587 118.273533 
z
" style="fill:#99ff99;stroke:#ffffff;stroke-linejoin:miter;"/>
   </g>
   <g id="patch_3">
    <path clip-path="url(#p3bb83eb47a)" d="M 117.1665 125.9685 
C 117.471716 125.9685 117.764471 126.084666 117.980292 126.291415 
C 118.196112 126.498163 118.317375 126.778614 118.317375 127.071 
C 118.317375 127.363386 118.196112 127.643837 117.980292 127.850585 
C 117.764471 128.057334 117.471716 128.1735 117.1665 128.1735 
C 116.861284 128.1735 116.568529 128.057334 116.352708 127.850585 
C 116.136888 127.643837 116.015625 127.363386 116.015625 127.071 
C 116.015625 126.778614 116.136888 126.498163 116.352708 126.291415 
C 116.568529 126.084666 116.861284 125.9685 117.1665 125.9685 
z
" style="fill:#ff3300;stroke:#ffffff;stroke-linejoin:miter;"/>
   </g>
   <g id="line2d_1">
    <path clip-path="url(#p3bb83eb47a)" d="M 102.4353 150.444 
L 144.7875 145.152 
" style="fill:none;stroke:#1f77b4;stroke-linecap:square;stroke-width:1.5;"/>
   </g>
   <g id="line2d_2">
    <path clip-path="url(#p3bb83eb47a)" d="M 144.7875 145.152 
L 140.184 214.83 
" style="fill:none;stroke:#1f77b4;stroke-linecap:square;stroke-width:1.5;"/>
   </g>
   <g id="line2d_3">
    <path clip-path="url(#p3bb83eb47a)" d="M 103.356 167.643 
L 119.9286 187.488 
" style="fill:none;stroke:#1f77b4;stroke-linecap:square;stroke-width:1.5;"/>
   </g>
   <g id="line2d_4">
    <path clip-path="url(#p3bb83eb47a)" d="M 157.21695 241.731 
L 172.86885 225.855 
" style="fill:none;stroke:#1f77b4;stroke-linecap:square;stroke-width:1.5;"/>
   </g>
   <g id="line2d_5">
    <path clip-path="url(#p3bb83eb47a)" d="M 222.58665 241.731 
L 223.9677 110.313 
" style="fill:none;stroke:#1f77b4;stroke-linecap:square;stroke-width:1.5;"/>
   </g>
   <g id="line2d_6">
    <path clip-path="url(#p3bb83eb47a)" d="M 102.4353 111.195 
L 102.89565 242.613 
" style="fill:none;stroke:#1f77b4;stroke-linecap:square;stroke-width:1.5;"/>
   </g>
   <g id="line2d_7">
    <path clip-path="url(#p3bb83eb47a)" d="M 143.8668 176.904 
L 194.96565 213.066 
" style="fill:none;stroke:#1f77b4;stroke-linecap:square;stroke-width:1.5;"/>
   </g>
   <g id="line2d_8">
    <path clip-path="url(#p3bb83eb47a)" d="M 223.047 195.867 
L 174.71025 164.556 
" style="fill:none;stroke:#1f77b4;stroke-linecap:square;stroke-width:1.5;"/>
   </g>
   <g id="line2d_9">
    <path clip-path="url(#p3bb83eb47a)" d="M 144.7875 145.152 
L 173.78955 135.45 
" style="fill:none;stroke:#1f77b4;stroke-linecap:square;stroke-width:1.5;"/>
   </g>
   <g id="line2d_10">
    <path clip-path="url(#p3bb83eb47a)" d="M 101.97495 110.754 
L 223.9677 109.872 
" style="fill:none;stroke:#1f77b4;stroke-linecap:square;stroke-width:1.5;"/>
   </g>
   <g id="line2d_11">
    <path clip-path="url(#p3bb83eb47a)" d="M 102.4353 242.172 
L 222.1263 241.29 
" style="fill:none;stroke:#1f77b4;stroke-linecap:square;stroke-width:1.5;"/>
   </g>
   <g id="text_1">
    <!-- fitness &gt;= 0.8, species: 0 -->
    <g transform="translate(44.5125 54.48)scale(0.12 -0.12)">
     <defs>
      <path d="M 2375 4863 
L 2375 4384 
L 1825 4384 
Q 1516 4384 1395 4259 
Q 1275 4134 1275 3809 
L 1275 3500 
L 2222 3500 
L 2222 3053 
L 1275 3053 
L 1275 0 
L 697 0 
L 697 3053 
L 147 3053 
L 147 3500 
L 697 3500 
L 697 3744 
Q 697 4328 969 4595 
Q 1241 4863 1831 4863 
L 2375 4863 
z
" id="DejaVuSans-66" transform="scale(0.015625)"/>
      <path d="M 603 3500 
L 1178 3500 
L 1178 0 
L 603 0 
L 603 3500 
z
M 603 4863 
L 1178 4863 
L 1178 4134 
L 603 4134 
L 603 4863 
z
" id="DejaVuSans-69" transform="scale(0.015625)"/>
      <path d="M 1172 4494 
L 1172 3500 
L 2356 3500 
L 2356 3053 
L 1172 3053 
L 1172 1153 
Q 1172 725 1289 603 
Q 1406 481 1766 481 
L 2356 481 
L 2356 0 
L 1766 0 
Q 1100 0 847 248 
Q 594 497 594 1153 
L 594 3053 
L 172 3053 
L 172 3500 
L 594 3500 
L 594 4494 
L 1172 4494 
z
" id="DejaVuSans-74" transform="scale(0.015625)"/>
      <path d="M 3513 2113 
L 3513 0 
L 2938 0 
L 2938 2094 
Q 2938 2591 2744 2837 
Q 2550 3084 2163 3084 
Q 1697 3084 1428 2787 
Q 1159 2491 1159 1978 
L 1159 0 
L 581 0 
L 581 3500 
L 1159 3500 
L 1159 2956 
Q 1366 3272 1645 3428 
Q 1925 3584 2291 3584 
Q 2894 3584 3203 3211 
Q 3513 2838 3513 2113 
z
" id="DejaVuSans-6e" transform="scale(0.015625)"/>
      <path d="M 3597 1894 
L 3597 1613 
L 953 1613 
Q 991 1019 1311 708 
Q 1631 397 2203 397 
Q 2534 397 2845 478 
Q 3156 559 3463 722 
L 3463 178 
Q 3153 47 2828 -22 
Q 2503 -91 2169 -91 
Q 1331 -91 842 396 
Q 353 884 353 1716 
Q 353 2575 817 3079 
Q 1281 3584 2069 3584 
Q 2775 3584 3186 3129 
Q 3597 2675 3597 1894 
z
M 3022 2063 
Q 3016 2534 2758 2815 
Q 2500 3097 2075 3097 
Q 1594 3097 1305 2825 
Q 1016 2553 972 2059 
L 3022 2063 
z
" id="DejaVuSans-65" transform="scale(0.015625)"/>
      <path d="M 2834 3397 
L 2834 2853 
Q 2591 2978 2328 3040 
Q 2066 3103 1784 3103 
Q 1356 3103 1142 2972 
Q 928 2841 928 2578 
Q 928 2378 1081 2264 
Q 1234 2150 1697 2047 
L 1894 2003 
Q 2506 1872 2764 1633 
Q 3022 1394 3022 966 
Q 3022 478 2636 193 
Q 2250 -91 1575 -91 
Q 1294 -91 989 -36 
Q 684 19 347 128 
L 347 722 
Q 666 556 975 473 
Q 1284 391 1588 391 
Q 1994 391 2212 530 
Q 2431 669 2431 922 
Q 2431 1156 2273 1281 
Q 2116 1406 1581 1522 
L 1381 1569 
Q 847 1681 609 1914 
Q 372 2147 372 2553 
Q 372 3047 722 3315 
Q 1072 3584 1716 3584 
Q 2034 3584 2315 3537 
Q 2597 3491 2834 3397 
z
" id="DejaVuSans-73" transform="scale(0.015625)"/>
      <path id="DejaVuSans-20" transform="scale(0.015625)"/>
      <path d="M 678 3150 
L 678 3719 
L 4684 2266 
L 4684 1747 
L 678 294 
L 678 863 
L 3897 2003 
L 678 3150 
z
" id="DejaVuSans-3e" transform="scale(0.015625)"/>
      <path d="M 678 2906 
L 4684 2906 
L 4684 2381 
L 678 2381 
L 678 2906 
z
M 678 1631 
L 4684 1631 
L 4684 1100 
L 678 1100 
L 678 1631 
z
" id="DejaVuSans-3d" transform="scale(0.015625)"/>
      <path d="M 2034 4250 
Q 1547 4250 1301 3770 
Q 1056 3291 1056 2328 
Q 1056 1369 1301 889 
Q 1547 409 2034 409 
Q 2525 409 2770 889 
Q 3016 1369 3016 2328 
Q 3016 3291 2770 3770 
Q 2525 4250 2034 4250 
z
M 2034 4750 
Q 2819 4750 3233 4129 
Q 3647 3509 3647 2328 
Q 3647 1150 3233 529 
Q 2819 -91 2034 -91 
Q 1250 -91 836 529 
Q 422 1150 422 2328 
Q 422 3509 836 4129 
Q 1250 4750 2034 4750 
z
" id="DejaVuSans-30" transform="scale(0.015625)"/>
      <path d="M 684 794 
L 1344 794 
L 1344 0 
L 684 0 
L 684 794 
z
" id="DejaVuSans-2e" transform="scale(0.015625)"/>
      <path d="M 2034 2216 
Q 1584 2216 1326 1975 
Q 1069 1734 1069 1313 
Q 1069 891 1326 650 
Q 1584 409 2034 409 
Q 2484 409 2743 651 
Q 3003 894 3003 1313 
Q 3003 1734 2745 1975 
Q 2488 2216 2034 2216 
z
M 1403 2484 
Q 997 2584 770 2862 
Q 544 3141 544 3541 
Q 544 4100 942 4425 
Q 1341 4750 2034 4750 
Q 2731 4750 3128 4425 
Q 3525 4100 3525 3541 
Q 3525 3141 3298 2862 
Q 3072 2584 2669 2484 
Q 3125 2378 3379 2068 
Q 3634 1759 3634 1313 
Q 3634 634 3220 271 
Q 2806 -91 2034 -91 
Q 1263 -91 848 271 
Q 434 634 434 1313 
Q 434 1759 690 2068 
Q 947 2378 1403 2484 
z
M 1172 3481 
Q 1172 3119 1398 2916 
Q 1625 2713 2034 2713 
Q 2441 2713 2670 2916 
Q 2900 3119 2900 3481 
Q 2900 3844 2670 4047 
Q 2441 4250 2034 4250 
Q 1625 4250 1398 4047 
Q 1172 3844 1172 3481 
z
" id="DejaVuSans-38" transform="scale(0.015625)"/>
      <path d="M 750 794 
L 1409 794 
L 1409 256 
L 897 -744 
L 494 -744 
L 750 256 
L 750 794 
z
" id="DejaVuSans-2c" transform="scale(0.015625)"/>
      <path d="M 1159 525 
L 1159 -1331 
L 581 -1331 
L 581 3500 
L 1159 3500 
L 1159 2969 
Q 1341 3281 1617 3432 
Q 1894 3584 2278 3584 
Q 2916 3584 3314 3078 
Q 3713 2572 3713 1747 
Q 3713 922 3314 415 
Q 2916 -91 2278 -91 
Q 1894 -91 1617 61 
Q 1341 213 1159 525 
z
M 3116 1747 
Q 3116 2381 2855 2742 
Q 2594 3103 2138 3103 
Q 1681 3103 1420 2742 
Q 1159 2381 1159 1747 
Q 1159 1113 1420 752 
Q 1681 391 2138 391 
Q 2594 391 2855 752 
Q 3116 1113 3116 1747 
z
" id="DejaVuSans-70" transform="scale(0.015625)"/>
      <path d="M 3122 3366 
L 3122 2828 
Q 2878 2963 2633 3030 
Q 2388 3097 2138 3097 
Q 1578 3097 1268 2742 
Q 959 2388 959 1747 
Q 959 1106 1268 751 
Q 1578 397 2138 397 
Q 2388 397 2633 464 
Q 2878 531 3122 666 
L 3122 134 
Q 2881 22 2623 -34 
Q 2366 -91 2075 -91 
Q 1284 -91 818 406 
Q 353 903 353 1747 
Q 353 2603 823 3093 
Q 1294 3584 2113 3584 
Q 2378 3584 2631 3529 
Q 2884 3475 3122 3366 
z
" id="DejaVuSans-63" transform="scale(0.015625)"/>
      <path d="M 750 794 
L 1409 794 
L 1409 0 
L 750 0 
L 750 794 
z
M 750 3309 
L 1409 3309 
L 1409 2516 
L 750 2516 
L 750 3309 
z
" id="DejaVuSans-3a" transform="scale(0.015625)"/>
     </defs>
     <use xlink:href="#DejaVuSans-66"/>
     <use x="35.205078" xlink:href="#DejaVuSans-69"/>
     <use x="62.988281" xlink:href="#DejaVuSans-74"/>
     <use x="102.197266" xlink:href="#DejaVuSans-6e"/>
     <use x="165.576172" xlink:href="#DejaVuSans-65"/>
     <use x="227.099609" xlink:href="#DejaVuSans-73"/>
     <use x="279.199219" xlink:href="#DejaVuSans-73"/>
     <use x="331.298828" xlink:href="#DejaVuSans-20"/>
     <use x="363.085938" xlink:href="#DejaVuSans-3e"/>
     <use x="446.875" xlink:href="#DejaVuSans-3d"/>
     <use x="530.664062" xlink:href="#DejaVuSans-20"/>
     <use x="562.451172" xlink:href="#DejaVuSans-30"/>
     <use x="626.074219" xlink:href="#DejaVuSans-2e"/>
     <use x="657.861328" xlink:href="#DejaVuSans-38"/>
     <use x="721.484375" xlink:href="#DejaVuSans-2c"/>
     <use x="753.271484" xlink:href="#DejaVuSans-20"/>
     <use x="785.058594" xlink:href="#DejaVuSans-73"/>
     <use x="837.158203" xlink:href="#DejaVuSans-70"/>
     <use x="900.634766" xlink:href="#DejaVuSans-65"/>
     <use x="962.158203" xlink:href="#DejaVuSans-63"/>
     <use x="1017.138672" xlink:href="#DejaVuSans-69"/>
     <use x="1044.921875" xlink:href="#DejaVuSans-65"/>
     <use x="1106.445312" xlink:href="#DejaVuSans-73"/>
     <use x="1158.544922" xlink:href="#DejaVuSans-3a"/>
     <use x="1192.236328" xlink:href="#DejaVuSans-20"/>
     <use x="1224.023438" xlink:href="#DejaVuSans-30"/>
    </g>
   </g>
  </g>
  <g id="axes_2">
   <g id="patch_4">
    <path clip-path="url(#p340160049c)" d="M 149.912587 329.953533 
C 150.217803 329.953533 150.510558 330.069699 150.726378 330.276448 
C 150.942198 330.483196 151.063462 330.763647 151.063462 331.056033 
C 151.063462 331.348419 150.942198 331.62887 150.726378 331.835618 
C 150.510558 332.042367 150.217803 332.158533 149.912587 332.158533 
C 149.607371 332.158533 149.314615 332.042367 149.098795 331.835618 
C 148.882975 331.62887 148.761712 331.348419 148.761712 331.056033 
C 148.761712 330.763647 148.882975 330.483196 149.098795 330.276448 
C 149.314615 330.069699 149.607371 329.953533 149.912587 329.953533 
z
" style="fill:#99ff99;stroke:#ffffff;stroke-linejoin:miter;"/>
   </g>
   <g id="patch_5">
    <path clip-path="url(#p340160049c)" d="M 117.1665 337.6485 
C 117.471716 337.6485 117.764471 337.764666 117.980292 337.971415 
C 118.196112 338.178163 118.317375 338.458614 118.317375 338.751 
C 118.317375 339.043386 118.196112 339.323837 117.980292 339.530585 
C 117.764471 339.737334 117.471716 339.8535 117.1665 339.8535 
C 116.861284 339.8535 116.568529 339.737334 116.352708 339.530585 
C 116.136888 339.323837 116.015625 339.043386 116.015625 338.751 
C 116.015625 338.458614 116.136888 338.178163 116.352708 337.971415 
C 116.568529 337.764666 116.861284 337.6485 117.1665 337.6485 
z
" style="fill:#ff3300;stroke:#ffffff;stroke-linejoin:miter;"/>
   </g>
   <g id="line2d_12">
    <path clip-path="url(#p340160049c)" d="M 102.4353 362.124 
L 144.7875 356.832 
" style="fill:none;stroke:#1f77b4;stroke-linecap:square;stroke-width:1.5;"/>
   </g>
   <g id="line2d_13">
    <path clip-path="url(#p340160049c)" d="M 144.7875 356.832 
L 140.184 426.51 
" style="fill:none;stroke:#1f77b4;stroke-linecap:square;stroke-width:1.5;"/>
   </g>
   <g id="line2d_14">
    <path clip-path="url(#p340160049c)" d="M 103.356 379.323 
L 119.9286 399.168 
" style="fill:none;stroke:#1f77b4;stroke-linecap:square;stroke-width:1.5;"/>
   </g>
   <g id="line2d_15">
    <path clip-path="url(#p340160049c)" d="M 157.21695 453.411 
L 172.86885 437.535 
" style="fill:none;stroke:#1f77b4;stroke-linecap:square;stroke-width:1.5;"/>
   </g>
   <g id="line2d_16">
    <path clip-path="url(#p340160049c)" d="M 222.58665 453.411 
L 223.9677 321.993 
" style="fill:none;stroke:#1f77b4;stroke-linecap:square;stroke-width:1.5;"/>
   </g>
   <g id="line2d_17">
    <path clip-path="url(#p340160049c)" d="M 102.4353 322.875 
L 102.89565 454.293 
" style="fill:none;stroke:#1f77b4;stroke-linecap:square;stroke-width:1.5;"/>
   </g>
   <g id="line2d_18">
    <path clip-path="url(#p340160049c)" d="M 143.8668 388.584 
L 194.96565 424.746 
" style="fill:none;stroke:#1f77b4;stroke-linecap:square;stroke-width:1.5;"/>
   </g>
   <g id="line2d_19">
    <path clip-path="url(#p340160049c)" d="M 223.047 407.547 
L 174.71025 376.236 
" style="fill:none;stroke:#1f77b4;stroke-linecap:square;stroke-width:1.5;"/>
   </g>
   <g id="line2d_20">
    <path clip-path="url(#p340160049c)" d="M 144.7875 356.832 
L 173.78955 347.13 
" style="fill:none;stroke:#1f77b4;stroke-linecap:square;stroke-width:1.5;"/>
   </g>
   <g id="line2d_21">
    <path clip-path="url(#p340160049c)" d="M 101.97495 322.434 
L 223.9677 321.552 
" style="fill:none;stroke:#1f77b4;stroke-linecap:square;stroke-width:1.5;"/>
   </g>
   <g id="line2d_22">
    <path clip-path="url(#p340160049c)" d="M 102.4353 453.852 
L 222.1263 452.97 
" style="fill:none;stroke:#1f77b4;stroke-linecap:square;stroke-width:1.5;"/>
   </g>
   <g id="text_2">
    <!-- fitness &lt; 0.8 -->
    <g transform="translate(83.509688 266.16)scale(0.12 -0.12)">
     <defs>
      <path d="M 4684 3150 
L 1459 2003 
L 4684 863 
L 4684 294 
L 678 1747 
L 678 2266 
L 4684 3719 
L 4684 3150 
z
" id="DejaVuSans-3c" transform="scale(0.015625)"/>
     </defs>
     <use xlink:href="#DejaVuSans-66"/>
     <use x="35.205078" xlink:href="#DejaVuSans-69"/>
     <use x="62.988281" xlink:href="#DejaVuSans-74"/>
     <use x="102.197266" xlink:href="#DejaVuSans-6e"/>
     <use x="165.576172" xlink:href="#DejaVuSans-65"/>
     <use x="227.099609" xlink:href="#DejaVuSans-73"/>
     <use x="279.199219" xlink:href="#DejaVuSans-73"/>
     <use x="331.298828" xlink:href="#DejaVuSans-20"/>
     <use x="363.085938" xlink:href="#DejaVuSans-3c"/>
     <use x="446.875" xlink:href="#DejaVuSans-20"/>
     <use x="478.662109" xlink:href="#DejaVuSans-30"/>
     <use x="542.285156" xlink:href="#DejaVuSans-2e"/>
     <use x="574.072266" xlink:href="#DejaVuSans-38"/>
    </g>
   </g>
  </g>
 </g>
 <defs>
  <clipPath id="p3bb83eb47a">
   <rect height="176.4" width="184.14" x="29.7" y="60.48"/>
  </clipPath>
  <clipPath id="p340160049c">
   <rect height="176.4" width="184.14" x="29.7" y="272.16"/>
  </clipPath>
 </defs>
</svg>
