<?xml version="1.0" encoding="utf-8" standalone="no"?>
<!DOCTYPE svg PUBLIC "-//W3C//DTD SVG 1.1//EN"
  "http://www.w3.org/Graphics/SVG/1.1/DTD/svg11.dtd">
<svg height="345.6pt" version="1.1" viewBox="0 0 460.8 345.6" width="460.8pt" xmlns="http://www.w3.org/2000/svg" xmlns:xlink="http://www.w3.org/1999/xlink">
 <metadata>
  <rdf:RDF xmlns:cc="http://creativecommons.org/ns#" xmlns:dc="http://purl.org/dc/elements/1.1/" xmlns:rdf="http://www.w3.org/1999/02/22-rdf-syntax-ns#">
   <cc:Work>
    <dc:type rdf:resource="http://purl.org/dc/dcmitype/StillImage"/>
    <dc:date>2022-05-29T15:56:51.830382</dc:date>
    <dc:format>image/svg+xml</dc:format>
    <dc:creator>
     <cc:Agent>
      <dc:title>Matplotlib v3.3.4+2343.g7e3cef3ba, https://matplotlib.org/</dc:title>
     </cc:Agent>
    </dc:creator>
   </cc:Work>
  </rdf:RDF>
 </metadata>
 <defs>
  <style type="text/css">*{stroke-linecap:butt;stroke-linejoin:round;}</style>
 </defs>
 <g id="figure_1">
  <g id="patch_1">
   <path d="M 0 345.6 
L 460.8 345.6 
L 460.8 0 
L 0 0 
z
" style="fill:#ffffff;"/>
  </g>
  <g id="axes_1">
   <g id="patch_2">
    <path d="M 57.6 307.584 
L 414.72 307.584 
L 414.72 41.472 
L 57.6 41.472 
z
" style="fill:#ffffff;"/>
   </g>
   <g id="PolyCollection_1">
    <path clip-path="url(#pc2a7003981)" d="M 73.832727 55.153721 
L 73.832727 307.584 
L 75.464157 307.584 
L 77.095587 307.584 
L 78.727017 307.584 
L 80.358447 307.584 
L 81.989877 307.584 
L 83.621307 307.584 
L 85.252736 307.584 
L 86.884166 307.584 
L 88.515596 307.584 
L 90.147026 307.584 
L 91.778456 307.584 
L 93.409886 307.584 
L 95.041316 307.584 
L 96.672746 307.584 
L 98.304175 307.584 
L 99.935605 307.584 
L 101.567035 307.584 
L 103.198465 307.584 
L 104.829895 307.584 
L 106.461325 307.584 
L 108.092755 307.584 
L 109.724185 307.584 
L 111.355614 307.584 
L 112.987044 307.584 
L 114.618474 307.584 
L 116.249904 307.584 
L 117.881334 307.584 
L 119.512764 307.584 
L 121.144194 307.584 
L 122.775624 307.584 
L 124.407053 307.584 
L 126.038483 307.584 
L 127.669913 307.584 
L 129.301343 307.584 
L 130.932773 307.584 
L 132.564203 307.584 
L 134.195633 307.584 
L 135.827063 307.584 
L 137.458492 307.584 
L 139.089922 307.584 
L 140.721352 307.584 
L 142.352782 307.584 
L 143.984212 307.584 
L 145.615642 307.584 
L 147.247072 307.584 
L 148.878502 307.584 
L 150.509931 307.584 
L 152.141361 307.584 
L 153.772791 307.584 
L 155.404221 307.584 
L 157.035651 307.584 
L 158.667081 307.584 
L 160.298511 307.584 
L 161.929941 307.584 
L 163.56137 307.584 
L 165.1928 307.584 
L 166.82423 307.584 
L 168.45566 307.584 
L 170.08709 307.584 
L 171.71852 307.584 
L 173.34995 307.584 
L 174.98138 307.584 
L 176.61281 307.584 
L 178.244239 307.584 
L 179.875669 307.584 
L 181.507099 307.584 
L 183.138529 307.584 
L 184.769959 307.584 
L 186.401389 307.584 
L 188.032819 307.584 
L 189.664249 307.584 
L 191.295678 307.584 
L 192.927108 307.584 
L 194.558538 307.584 
L 196.189968 307.584 
L 197.821398 307.584 
L 199.452828 307.584 
L 201.084258 307.584 
L 202.715688 307.584 
L 204.347117 307.584 
L 205.978547 307.584 
L 207.609977 307.584 
L 209.241407 307.584 
L 210.872837 307.584 
L 212.504267 307.584 
L 214.135697 307.584 
L 215.767127 307.584 
L 217.398556 307.584 
L 219.029986 307.584 
L 220.661416 307.584 
L 222.292846 307.584 
L 223.924276 307.584 
L 225.555706 307.584 
L 227.187136 307.584 
L 228.818566 307.584 
L 230.449995 307.584 
L 232.081425 307.584 
L 233.712855 307.584 
L 235.344285 307.584 
L 236.975715 307.584 
L 238.607145 307.584 
L 240.238575 307.584 
L 241.870005 307.584 
L 243.501434 307.584 
L 245.132864 307.584 
L 246.764294 307.584 
L 248.395724 307.584 
L 250.027154 307.584 
L 251.658584 307.584 
L 253.290014 307.584 
L 254.921444 307.584 
L 256.552873 307.584 
L 258.184303 307.584 
L 259.815733 307.584 
L 261.447163 307.584 
L 263.078593 307.584 
L 264.710023 307.584 
L 266.341453 307.584 
L 267.972883 307.584 
L 269.604312 307.584 
L 271.235742 307.584 
L 272.867172 307.584 
L 274.498602 307.584 
L 276.130032 307.584 
L 277.761462 307.584 
L 279.392892 307.584 
L 281.024322 307.584 
L 282.655751 307.584 
L 284.287181 307.584 
L 285.918611 307.584 
L 287.550041 307.584 
L 289.181471 307.584 
L 290.812901 307.584 
L 292.444331 307.584 
L 294.075761 307.584 
L 295.70719 307.584 
L 297.33862 307.584 
L 298.97005 307.584 
L 300.60148 307.584 
L 302.23291 307.584 
L 303.86434 307.584 
L 305.49577 307.584 
L 307.1272 307.584 
L 308.75863 307.584 
L 310.390059 307.584 
L 312.021489 307.584 
L 313.652919 307.584 
L 315.284349 307.584 
L 316.915779 307.584 
L 318.547209 307.584 
L 320.178639 307.584 
L 321.810069 307.584 
L 323.441498 307.584 
L 325.072928 307.584 
L 326.704358 307.584 
L 328.335788 307.584 
L 329.967218 307.584 
L 331.598648 307.584 
L 333.230078 307.584 
L 334.861508 307.584 
L 336.492937 307.584 
L 338.124367 307.584 
L 339.755797 307.584 
L 341.387227 307.584 
L 343.018657 307.584 
L 344.650087 307.584 
L 346.281517 307.584 
L 347.912947 307.584 
L 349.544376 307.584 
L 351.175806 307.584 
L 352.807236 307.584 
L 354.438666 307.584 
L 356.070096 307.584 
L 357.701526 307.584 
L 359.332956 307.584 
L 360.964386 307.584 
L 362.595815 307.584 
L 364.227245 307.584 
L 365.858675 307.584 
L 367.490105 307.584 
L 369.121535 307.584 
L 370.752965 307.584 
L 372.384395 307.584 
L 374.015825 307.584 
L 375.647254 307.584 
L 377.278684 307.584 
L 378.910114 307.584 
L 380.541544 307.584 
L 382.172974 307.584 
L 383.804404 307.584 
L 385.435834 307.584 
L 387.067264 307.584 
L 388.698693 307.584 
L 390.330123 307.584 
L 391.961553 307.584 
L 393.592983 307.584 
L 395.224413 307.584 
L 396.855843 307.584 
L 398.487273 307.584 
L 398.487273 307.584 
L 398.487273 307.584 
L 396.855843 307.584 
L 395.224413 307.584 
L 393.592983 307.584 
L 391.961553 307.584 
L 390.330123 307.584 
L 388.698693 307.584 
L 387.067264 307.584 
L 385.435834 307.584 
L 383.804404 307.584 
L 382.172974 307.584 
L 380.541544 307.584 
L 378.910114 307.584 
L 377.278684 307.584 
L 375.647254 307.584 
L 374.015825 307.584 
L 372.384395 307.584 
L 370.752965 307.584 
L 369.121535 307.584 
L 367.490105 307.584 
L 365.858675 307.584 
L 364.227245 307.584 
L 362.595815 307.584 
L 360.964386 307.584 
L 359.332956 307.584 
L 357.701526 307.584 
L 356.070096 307.584 
L 354.438666 307.584 
L 352.807236 307.584 
L 351.175806 307.584 
L 349.544376 307.584 
L 347.912947 307.584 
L 346.281517 307.584 
L 344.650087 307.584 
L 343.018657 307.584 
L 341.387227 307.584 
L 339.755797 307.584 
L 338.124367 307.584 
L 336.492937 307.584 
L 334.861508 307.584 
L 333.230078 307.584 
L 331.598648 307.584 
L 329.967218 307.584 
L 328.335788 307.584 
L 326.704358 307.584 
L 325.072928 307.584 
L 323.441498 307.584 
L 321.810069 307.584 
L 320.178639 307.584 
L 318.547209 307.584 
L 316.915779 307.584 
L 315.284349 307.584 
L 313.652919 307.584 
L 312.021489 307.584 
L 310.390059 307.584 
L 308.75863 307.584 
L 307.1272 307.584 
L 305.49577 307.584 
L 303.86434 307.584 
L 302.23291 307.584 
L 300.60148 307.584 
L 298.97005 307.584 
L 297.33862 307.584 
L 295.70719 307.584 
L 294.075761 307.584 
L 292.444331 307.584 
L 290.812901 307.584 
L 289.181471 307.584 
L 287.550041 307.584 
L 285.918611 307.584 
L 284.287181 307.584 
L 282.655751 307.584 
L 281.024322 307.584 
L 279.392892 307.584 
L 277.761462 307.584 
L 276.130032 307.584 
L 274.498602 307.584 
L 272.867172 307.584 
L 271.235742 307.584 
L 269.604312 307.584 
L 267.972883 307.584 
L 266.341453 307.584 
L 264.710023 307.584 
L 263.078593 307.584 
L 261.447163 307.584 
L 259.815733 307.584 
L 258.184303 307.584 
L 256.552873 307.584 
L 254.921444 307.584 
L 253.290014 307.584 
L 251.658584 307.584 
L 250.027154 307.584 
L 248.395724 307.584 
L 246.764294 307.584 
L 245.132864 307.584 
L 243.501434 307.584 
L 241.870005 307.584 
L 240.238575 307.584 
L 238.607145 307.584 
L 236.975715 307.584 
L 235.344285 307.584 
L 233.712855 307.584 
L 232.081425 307.584 
L 230.449995 307.584 
L 228.818566 307.584 
L 227.187136 307.584 
L 225.555706 307.584 
L 223.924276 307.584 
L 222.292846 307.584 
L 220.661416 307.584 
L 219.029986 307.584 
L 217.398556 307.584 
L 215.767127 307.584 
L 214.135697 307.584 
L 212.504267 307.584 
L 210.872837 307.584 
L 209.241407 307.584 
L 207.609977 307.584 
L 205.978547 307.584 
L 204.347117 307.584 
L 202.715688 307.584 
L 201.084258 307.584 
L 199.452828 307.584 
L 197.821398 307.584 
L 196.189968 307.584 
L 194.558538 307.584 
L 192.927108 307.584 
L 191.295678 307.584 
L 189.664249 307.584 
L 188.032819 307.584 
L 186.401389 307.584 
L 184.769959 307.584 
L 183.138529 307.584 
L 181.507099 307.584 
L 179.875669 307.584 
L 178.244239 307.584 
L 176.61281 307.584 
L 174.98138 307.584 
L 173.34995 307.584 
L 171.71852 307.584 
L 170.08709 307.584 
L 168.45566 307.584 
L 166.82423 307.584 
L 165.1928 307.584 
L 163.56137 307.584 
L 161.929941 307.584 
L 160.298511 307.584 
L 158.667081 307.584 
L 157.035651 307.584 
L 155.404221 307.584 
L 153.772791 307.584 
L 152.141361 307.584 
L 150.509931 307.584 
L 148.878502 307.584 
L 147.247072 307.584 
L 145.615642 307.584 
L 143.984212 307.584 
L 142.352782 307.584 
L 140.721352 307.584 
L 139.089922 307.584 
L 137.458492 307.584 
L 135.827063 307.584 
L 134.195633 307.584 
L 132.564203 307.584 
L 130.932773 307.584 
L 129.301343 307.584 
L 127.669913 307.584 
L 126.038483 307.584 
L 124.407053 307.584 
L 122.775624 307.584 
L 121.144194 307.584 
L 119.512764 307.584 
L 117.881334 307.584 
L 116.249904 307.584 
L 114.618474 307.584 
L 112.987044 307.584 
L 111.355614 307.584 
L 109.724185 307.584 
L 108.092755 159.154996 
L 106.461325 163.19388 
L 104.829895 150.067506 
L 103.198465 150.067506 
L 101.567035 161.174438 
L 99.935605 166.223044 
L 98.304175 145.0189 
L 96.672746 129.873084 
L 95.041316 144.009179 
L 93.409886 137.950853 
L 91.778456 145.0189 
L 90.147026 196.514677 
L 88.515596 75.348143 
L 86.884166 55.153721 
L 85.252736 55.153721 
L 83.621307 55.153721 
L 81.989877 55.153721 
L 80.358447 55.153721 
L 78.727017 55.153721 
L 77.095587 55.153721 
L 75.464157 55.153721 
L 73.832727 55.153721 
z
" style="fill:#1f77b4;"/>
   </g>
   <g id="PolyCollection_2">
    <path clip-path="url(#pc2a7003981)" d="M 73.832727 55.153721 
L 73.832727 55.153721 
L 75.464157 55.153721 
L 77.095587 55.153721 
L 78.727017 55.153721 
L 80.358447 55.153721 
L 81.989877 55.153721 
L 83.621307 55.153721 
L 85.252736 55.153721 
L 86.884166 55.153721 
L 88.515596 75.348143 
L 90.147026 196.514677 
L 91.778456 145.0189 
L 93.409886 137.950853 
L 95.041316 144.009179 
L 96.672746 129.873084 
L 98.304175 145.0189 
L 99.935605 166.223044 
L 101.567035 161.174438 
L 103.198465 150.067506 
L 104.829895 150.067506 
L 106.461325 163.19388 
L 108.092755 159.154996 
L 109.724185 307.584 
L 111.355614 307.584 
L 112.987044 307.584 
L 114.618474 307.584 
L 116.249904 307.584 
L 117.881334 307.584 
L 119.512764 307.584 
L 121.144194 307.584 
L 122.775624 307.584 
L 124.407053 307.584 
L 126.038483 307.584 
L 127.669913 307.584 
L 129.301343 307.584 
L 130.932773 307.584 
L 132.564203 307.584 
L 134.195633 307.584 
L 135.827063 307.584 
L 137.458492 307.584 
L 139.089922 307.584 
L 140.721352 307.584 
L 142.352782 307.584 
L 143.984212 307.584 
L 145.615642 307.584 
L 147.247072 307.584 
L 148.878502 307.584 
L 150.509931 307.584 
L 152.141361 307.584 
L 153.772791 307.584 
L 155.404221 307.584 
L 157.035651 307.584 
L 158.667081 307.584 
L 160.298511 307.584 
L 161.929941 307.584 
L 163.56137 307.584 
L 165.1928 307.584 
L 166.82423 307.584 
L 168.45566 307.584 
L 170.08709 307.584 
L 171.71852 307.584 
L 173.34995 307.584 
L 174.98138 307.584 
L 176.61281 307.584 
L 178.244239 307.584 
L 179.875669 307.584 
L 181.507099 307.584 
L 183.138529 307.584 
L 184.769959 307.584 
L 186.401389 307.584 
L 188.032819 307.584 
L 189.664249 307.584 
L 191.295678 307.584 
L 192.927108 307.584 
L 194.558538 307.584 
L 196.189968 307.584 
L 197.821398 307.584 
L 199.452828 307.584 
L 201.084258 307.584 
L 202.715688 307.584 
L 204.347117 307.584 
L 205.978547 307.584 
L 207.609977 307.584 
L 209.241407 307.584 
L 210.872837 307.584 
L 212.504267 307.584 
L 214.135697 307.584 
L 215.767127 307.584 
L 217.398556 307.584 
L 219.029986 307.584 
L 220.661416 307.584 
L 222.292846 307.584 
L 223.924276 307.584 
L 225.555706 307.584 
L 227.187136 307.584 
L 228.818566 307.584 
L 230.449995 307.584 
L 232.081425 307.584 
L 233.712855 307.584 
L 235.344285 307.584 
L 236.975715 307.584 
L 238.607145 307.584 
L 240.238575 307.584 
L 241.870005 307.584 
L 243.501434 307.584 
L 245.132864 307.584 
L 246.764294 307.584 
L 248.395724 307.584 
L 250.027154 307.584 
L 251.658584 307.584 
L 253.290014 307.584 
L 254.921444 307.584 
L 256.552873 307.584 
L 258.184303 307.584 
L 259.815733 307.584 
L 261.447163 307.584 
L 263.078593 307.584 
L 264.710023 307.584 
L 266.341453 307.584 
L 267.972883 307.584 
L 269.604312 307.584 
L 271.235742 307.584 
L 272.867172 307.584 
L 274.498602 307.584 
L 276.130032 307.584 
L 277.761462 307.584 
L 279.392892 307.584 
L 281.024322 307.584 
L 282.655751 307.584 
L 284.287181 307.584 
L 285.918611 307.584 
L 287.550041 307.584 
L 289.181471 307.584 
L 290.812901 307.584 
L 292.444331 307.584 
L 294.075761 307.584 
L 295.70719 307.584 
L 297.33862 307.584 
L 298.97005 307.584 
L 300.60148 307.584 
L 302.23291 307.584 
L 303.86434 307.584 
L 305.49577 307.584 
L 307.1272 307.584 
L 308.75863 307.584 
L 310.390059 307.584 
L 312.021489 307.584 
L 313.652919 307.584 
L 315.284349 307.584 
L 316.915779 307.584 
L 318.547209 307.584 
L 320.178639 307.584 
L 321.810069 307.584 
L 323.441498 307.584 
L 325.072928 307.584 
L 326.704358 307.584 
L 328.335788 307.584 
L 329.967218 307.584 
L 331.598648 307.584 
L 333.230078 307.584 
L 334.861508 307.584 
L 336.492937 307.584 
L 338.124367 307.584 
L 339.755797 307.584 
L 341.387227 307.584 
L 343.018657 307.584 
L 344.650087 307.584 
L 346.281517 307.584 
L 347.912947 307.584 
L 349.544376 307.584 
L 351.175806 307.584 
L 352.807236 307.584 
L 354.438666 307.584 
L 356.070096 307.584 
L 357.701526 307.584 
L 359.332956 307.584 
L 360.964386 307.584 
L 362.595815 307.584 
L 364.227245 307.584 
L 365.858675 307.584 
L 367.490105 307.584 
L 369.121535 307.584 
L 370.752965 307.584 
L 372.384395 307.584 
L 374.015825 307.584 
L 375.647254 307.584 
L 377.278684 307.584 
L 378.910114 307.584 
L 380.541544 307.584 
L 382.172974 307.584 
L 383.804404 307.584 
L 385.435834 307.584 
L 387.067264 307.584 
L 388.698693 307.584 
L 390.330123 307.584 
L 391.961553 307.584 
L 393.592983 307.584 
L 395.224413 307.584 
L 396.855843 307.584 
L 398.487273 307.584 
L 398.487273 249.020175 
L 398.487273 249.020175 
L 396.855843 226.806311 
L 395.224413 222.767426 
L 393.592983 223.777147 
L 391.961553 228.825753 
L 390.330123 236.903522 
L 388.698693 238.922964 
L 387.067264 242.961849 
L 385.435834 245.991012 
L 383.804404 234.88408 
L 382.172974 235.893801 
L 380.541544 229.835474 
L 378.910114 241.952127 
L 377.278684 242.961849 
L 375.647254 238.922964 
L 374.015825 215.699378 
L 372.384395 239.932685 
L 370.752965 232.864637 
L 369.121535 231.854916 
L 367.490105 235.893801 
L 365.858675 234.88408 
L 364.227245 234.88408 
L 362.595815 237.913243 
L 360.964386 234.88408 
L 359.332956 232.864637 
L 357.701526 236.903522 
L 356.070096 235.893801 
L 354.438666 222.767426 
L 352.807236 238.922964 
L 351.175806 236.903522 
L 349.544376 231.854916 
L 347.912947 221.757705 
L 346.281517 212.670215 
L 344.650087 233.874359 
L 343.018657 237.913243 
L 341.387227 238.922964 
L 339.755797 234.88408 
L 338.124367 236.903522 
L 336.492937 241.952127 
L 334.861508 240.942406 
L 333.230078 240.942406 
L 331.598648 248.010454 
L 329.967218 244.981291 
L 328.335788 254.068781 
L 326.704358 242.961849 
L 325.072928 248.010454 
L 323.441498 245.991012 
L 321.810069 249.020175 
L 320.178639 252.049339 
L 318.547209 233.874359 
L 316.915779 210.650773 
L 315.284349 224.786869 
L 313.652919 207.62161 
L 312.021489 200.553562 
L 310.390059 198.53412 
L 308.75863 202.573004 
L 307.1272 204.592446 
L 305.49577 187.427187 
L 303.86434 180.359139 
L 302.23291 185.407745 
L 300.60148 183.388303 
L 298.97005 183.388303 
L 297.33862 186.417466 
L 295.70719 183.388303 
L 294.075761 174.300813 
L 292.444331 177.329976 
L 290.812901 175.310534 
L 289.181471 185.407745 
L 287.550041 178.339697 
L 285.918611 167.232765 
L 284.287181 230.845195 
L 282.655751 235.893801 
L 281.024322 242.961849 
L 279.392892 248.010454 
L 277.761462 255.078502 
L 276.130032 247.000733 
L 274.498602 242.961849 
L 272.867172 240.942406 
L 271.235742 236.903522 
L 269.604312 235.893801 
L 267.972883 237.913243 
L 266.341453 230.845195 
L 264.710023 233.874359 
L 263.078593 239.932685 
L 261.447163 240.942406 
L 259.815733 236.903522 
L 258.184303 239.932685 
L 256.552873 235.893801 
L 254.921444 234.88408 
L 253.290014 231.854916 
L 251.658584 234.88408 
L 250.027154 239.932685 
L 248.395724 240.942406 
L 246.764294 241.952127 
L 245.132864 239.932685 
L 243.501434 238.922964 
L 241.870005 233.874359 
L 240.238575 228.825753 
L 238.607145 229.835474 
L 236.975715 208.631331 
L 235.344285 208.631331 
L 233.712855 203.582725 
L 232.081425 206.611888 
L 230.449995 204.592446 
L 228.818566 208.631331 
L 227.187136 212.670215 
L 225.555706 208.631331 
L 223.924276 201.563283 
L 222.292846 214.689657 
L 220.661416 210.650773 
L 219.029986 208.631331 
L 217.398556 204.592446 
L 215.767127 209.641052 
L 214.135697 208.631331 
L 212.504267 207.62161 
L 210.872837 210.650773 
L 209.241407 208.631331 
L 207.609977 209.641052 
L 205.978547 210.650773 
L 204.347117 215.699378 
L 202.715688 217.718821 
L 201.084258 216.7091 
L 199.452828 208.631331 
L 197.821398 209.641052 
L 196.189968 217.718821 
L 194.558538 212.670215 
L 192.927108 207.62161 
L 191.295678 211.660494 
L 189.664249 208.631331 
L 188.032819 206.611888 
L 186.401389 206.611888 
L 184.769959 211.660494 
L 183.138529 208.631331 
L 181.507099 202.573004 
L 179.875669 197.524398 
L 178.244239 203.582725 
L 176.61281 202.573004 
L 174.98138 206.611888 
L 173.34995 212.670215 
L 171.71852 206.611888 
L 170.08709 201.563283 
L 168.45566 199.543841 
L 166.82423 200.553562 
L 165.1928 203.582725 
L 163.56137 241.952127 
L 161.929941 243.97157 
L 160.298511 239.932685 
L 158.667081 244.981291 
L 157.035651 247.000733 
L 155.404221 248.010454 
L 153.772791 249.020175 
L 152.141361 254.068781 
L 150.509931 248.010454 
L 148.878502 244.981291 
L 147.247072 242.961849 
L 145.615642 241.952127 
L 143.984212 238.922964 
L 142.352782 240.942406 
L 140.721352 238.922964 
L 139.089922 248.010454 
L 137.458492 247.000733 
L 135.827063 248.010454 
L 134.195633 239.932685 
L 132.564203 243.97157 
L 130.932773 237.913243 
L 129.301343 232.864637 
L 127.669913 247.000733 
L 126.038483 254.068781 
L 124.407053 249.020175 
L 122.775624 265.175713 
L 121.144194 171.271649 
L 119.512764 167.232765 
L 117.881334 182.378582 
L 116.249904 126.84392 
L 114.618474 55.153721 
L 112.987044 55.153721 
L 111.355614 55.153721 
L 109.724185 55.153721 
L 108.092755 55.153721 
L 106.461325 55.153721 
L 104.829895 55.153721 
L 103.198465 55.153721 
L 101.567035 55.153721 
L 99.935605 55.153721 
L 98.304175 55.153721 
L 96.672746 55.153721 
L 95.041316 55.153721 
L 93.409886 55.153721 
L 91.778456 55.153721 
L 90.147026 55.153721 
L 88.515596 55.153721 
L 86.884166 55.153721 
L 85.252736 55.153721 
L 83.621307 55.153721 
L 81.989877 55.153721 
L 80.358447 55.153721 
L 78.727017 55.153721 
L 77.095587 55.153721 
L 75.464157 55.153721 
L 73.832727 55.153721 
z
" style="fill:#ff7f0e;"/>
   </g>
   <g id="PolyCollection_3">
    <path clip-path="url(#pc2a7003981)" d="M 73.832727 55.153721 
L 73.832727 55.153721 
L 75.464157 55.153721 
L 77.095587 55.153721 
L 78.727017 55.153721 
L 80.358447 55.153721 
L 81.989877 55.153721 
L 83.621307 55.153721 
L 85.252736 55.153721 
L 86.884166 55.153721 
L 88.515596 55.153721 
L 90.147026 55.153721 
L 91.778456 55.153721 
L 93.409886 55.153721 
L 95.041316 55.153721 
L 96.672746 55.153721 
L 98.304175 55.153721 
L 99.935605 55.153721 
L 101.567035 55.153721 
L 103.198465 55.153721 
L 104.829895 55.153721 
L 106.461325 55.153721 
L 108.092755 55.153721 
L 109.724185 55.153721 
L 111.355614 55.153721 
L 112.987044 55.153721 
L 114.618474 55.153721 
L 116.249904 126.84392 
L 117.881334 182.378582 
L 119.512764 167.232765 
L 121.144194 171.271649 
L 122.775624 265.175713 
L 124.407053 249.020175 
L 126.038483 254.068781 
L 127.669913 247.000733 
L 129.301343 232.864637 
L 130.932773 237.913243 
L 132.564203 243.97157 
L 134.195633 239.932685 
L 135.827063 248.010454 
L 137.458492 247.000733 
L 139.089922 248.010454 
L 140.721352 238.922964 
L 142.352782 240.942406 
L 143.984212 238.922964 
L 145.615642 241.952127 
L 147.247072 242.961849 
L 148.878502 244.981291 
L 150.509931 248.010454 
L 152.141361 254.068781 
L 153.772791 249.020175 
L 155.404221 248.010454 
L 157.035651 247.000733 
L 158.667081 244.981291 
L 160.298511 239.932685 
L 161.929941 243.97157 
L 163.56137 241.952127 
L 165.1928 203.582725 
L 166.82423 200.553562 
L 168.45566 199.543841 
L 170.08709 201.563283 
L 171.71852 206.611888 
L 173.34995 212.670215 
L 174.98138 206.611888 
L 176.61281 202.573004 
L 178.244239 203.582725 
L 179.875669 197.524398 
L 181.507099 202.573004 
L 183.138529 208.631331 
L 184.769959 211.660494 
L 186.401389 206.611888 
L 188.032819 206.611888 
L 189.664249 208.631331 
L 191.295678 211.660494 
L 192.927108 207.62161 
L 194.558538 212.670215 
L 196.189968 217.718821 
L 197.821398 209.641052 
L 199.452828 208.631331 
L 201.084258 216.7091 
L 202.715688 217.718821 
L 204.347117 215.699378 
L 205.978547 210.650773 
L 207.609977 209.641052 
L 209.241407 208.631331 
L 210.872837 210.650773 
L 212.504267 207.62161 
L 214.135697 208.631331 
L 215.767127 209.641052 
L 217.398556 204.592446 
L 219.029986 208.631331 
L 220.661416 210.650773 
L 222.292846 214.689657 
L 223.924276 201.563283 
L 225.555706 208.631331 
L 227.187136 212.670215 
L 228.818566 208.631331 
L 230.449995 204.592446 
L 232.081425 206.611888 
L 233.712855 203.582725 
L 235.344285 208.631331 
L 236.975715 208.631331 
L 238.607145 229.835474 
L 240.238575 228.825753 
L 241.870005 233.874359 
L 243.501434 238.922964 
L 245.132864 239.932685 
L 246.764294 241.952127 
L 248.395724 240.942406 
L 250.027154 239.932685 
L 251.658584 234.88408 
L 253.290014 231.854916 
L 254.921444 234.88408 
L 256.552873 235.893801 
L 258.184303 239.932685 
L 259.815733 236.903522 
L 261.447163 240.942406 
L 263.078593 239.932685 
L 264.710023 233.874359 
L 266.341453 230.845195 
L 267.972883 237.913243 
L 269.604312 235.893801 
L 271.235742 236.903522 
L 272.867172 240.942406 
L 274.498602 242.961849 
L 276.130032 247.000733 
L 277.761462 255.078502 
L 279.392892 248.010454 
L 281.024322 242.961849 
L 282.655751 235.893801 
L 284.287181 230.845195 
L 285.918611 167.232765 
L 287.550041 178.339697 
L 289.181471 185.407745 
L 290.812901 175.310534 
L 292.444331 177.329976 
L 294.075761 174.300813 
L 295.70719 183.388303 
L 297.33862 186.417466 
L 298.97005 183.388303 
L 300.60148 183.388303 
L 302.23291 185.407745 
L 303.86434 180.359139 
L 305.49577 187.427187 
L 307.1272 204.592446 
L 308.75863 202.573004 
L 310.390059 198.53412 
L 312.021489 200.553562 
L 313.652919 207.62161 
L 315.284349 224.786869 
L 316.915779 210.650773 
L 318.547209 233.874359 
L 320.178639 252.049339 
L 321.810069 249.020175 
L 323.441498 245.991012 
L 325.072928 248.010454 
L 326.704358 242.961849 
L 328.335788 254.068781 
L 329.967218 244.981291 
L 331.598648 248.010454 
L 333.230078 240.942406 
L 334.861508 240.942406 
L 336.492937 241.952127 
L 338.124367 236.903522 
L 339.755797 234.88408 
L 341.387227 238.922964 
L 343.018657 237.913243 
L 344.650087 233.874359 
L 346.281517 212.670215 
L 347.912947 221.757705 
L 349.544376 231.854916 
L 351.175806 236.903522 
L 352.807236 238.922964 
L 354.438666 222.767426 
L 356.070096 235.893801 
L 357.701526 236.903522 
L 359.332956 232.864637 
L 360.964386 234.88408 
L 362.595815 237.913243 
L 364.227245 234.88408 
L 365.858675 234.88408 
L 367.490105 235.893801 
L 369.121535 231.854916 
L 370.752965 232.864637 
L 372.384395 239.932685 
L 374.015825 215.699378 
L 375.647254 238.922964 
L 377.278684 242.961849 
L 378.910114 241.952127 
L 380.541544 229.835474 
L 382.172974 235.893801 
L 383.804404 234.88408 
L 385.435834 245.991012 
L 387.067264 242.961849 
L 388.698693 238.922964 
L 390.330123 236.903522 
L 391.961553 228.825753 
L 393.592983 223.777147 
L 395.224413 222.767426 
L 396.855843 226.806311 
L 398.487273 249.020175 
L 398.487273 249.020175 
L 398.487273 249.020175 
L 396.855843 226.806311 
L 395.224413 222.767426 
L 393.592983 223.777147 
L 391.961553 228.825753 
L 390.330123 236.903522 
L 388.698693 238.922964 
L 387.067264 242.961849 
L 385.435834 245.991012 
L 383.804404 234.88408 
L 382.172974 235.893801 
L 380.541544 229.835474 
L 378.910114 241.952127 
L 377.278684 242.961849 
L 375.647254 238.922964 
L 374.015825 215.699378 
L 372.384395 239.932685 
L 370.752965 232.864637 
L 369.121535 231.854916 
L 367.490105 235.893801 
L 365.858675 234.88408 
L 364.227245 234.88408 
L 362.595815 237.913243 
L 360.964386 234.88408 
L 359.332956 232.864637 
L 357.701526 236.903522 
L 356.070096 235.893801 
L 354.438666 222.767426 
L 352.807236 238.922964 
L 351.175806 236.903522 
L 349.544376 231.854916 
L 347.912947 221.757705 
L 346.281517 212.670215 
L 344.650087 233.874359 
L 343.018657 237.913243 
L 341.387227 238.922964 
L 339.755797 234.88408 
L 338.124367 236.903522 
L 336.492937 241.952127 
L 334.861508 240.942406 
L 333.230078 240.942406 
L 331.598648 248.010454 
L 329.967218 244.981291 
L 328.335788 254.068781 
L 326.704358 242.961849 
L 325.072928 248.010454 
L 323.441498 245.991012 
L 321.810069 249.020175 
L 320.178639 252.049339 
L 318.547209 233.874359 
L 316.915779 210.650773 
L 315.284349 224.786869 
L 313.652919 207.62161 
L 312.021489 200.553562 
L 310.390059 198.53412 
L 308.75863 202.573004 
L 307.1272 204.592446 
L 305.49577 187.427187 
L 303.86434 180.359139 
L 302.23291 185.407745 
L 300.60148 183.388303 
L 298.97005 183.388303 
L 297.33862 186.417466 
L 295.70719 183.388303 
L 294.075761 174.300813 
L 292.444331 177.329976 
L 290.812901 175.310534 
L 289.181471 185.407745 
L 287.550041 178.339697 
L 285.918611 167.232765 
L 284.287181 123.814757 
L 282.655751 132.902247 
L 281.024322 139.970295 
L 279.392892 142.999458 
L 277.761462 147.038343 
L 276.130032 136.941131 
L 274.498602 142.999458 
L 272.867172 128.863363 
L 271.235742 127.853641 
L 269.604312 137.950853 
L 267.972883 122.805036 
L 266.341453 134.921689 
L 264.710023 137.950853 
L 263.078593 148.048064 
L 261.447163 144.009179 
L 259.815733 142.999458 
L 258.184303 152.086948 
L 256.552873 147.038343 
L 254.921444 142.999458 
L 253.290014 138.960574 
L 251.658584 135.93141 
L 250.027154 140.980016 
L 248.395724 136.941131 
L 246.764294 125.834199 
L 245.132864 121.795315 
L 243.501434 136.941131 
L 241.870005 140.980016 
L 240.238575 119.775873 
L 238.607145 99.58145 
L 236.975715 57.173163 
L 235.344285 55.153721 
L 233.712855 55.153721 
L 232.081425 55.153721 
L 230.449995 55.153721 
L 228.818566 55.153721 
L 227.187136 55.153721 
L 225.555706 55.153721 
L 223.924276 55.153721 
L 222.292846 55.153721 
L 220.661416 55.153721 
L 219.029986 55.153721 
L 217.398556 55.153721 
L 215.767127 55.153721 
L 214.135697 55.153721 
L 212.504267 55.153721 
L 210.872837 55.153721 
L 209.241407 55.153721 
L 207.609977 55.153721 
L 205.978547 55.153721 
L 204.347117 55.153721 
L 202.715688 55.153721 
L 201.084258 55.153721 
L 199.452828 55.153721 
L 197.821398 55.153721 
L 196.189968 55.153721 
L 194.558538 55.153721 
L 192.927108 55.153721 
L 191.295678 55.153721 
L 189.664249 55.153721 
L 188.032819 55.153721 
L 186.401389 55.153721 
L 184.769959 55.153721 
L 183.138529 55.153721 
L 181.507099 55.153721 
L 179.875669 55.153721 
L 178.244239 55.153721 
L 176.61281 55.153721 
L 174.98138 55.153721 
L 173.34995 55.153721 
L 171.71852 55.153721 
L 170.08709 55.153721 
L 168.45566 55.153721 
L 166.82423 55.153721 
L 165.1928 55.153721 
L 163.56137 154.10639 
L 161.929941 153.096669 
L 160.298511 157.135554 
L 158.667081 158.145275 
L 157.035651 159.154996 
L 155.404221 163.19388 
L 153.772791 158.145275 
L 152.141361 156.125833 
L 150.509931 154.10639 
L 148.878502 153.096669 
L 147.247072 147.038343 
L 145.615642 148.048064 
L 143.984212 147.038343 
L 142.352782 151.077227 
L 140.721352 148.048064 
L 139.089922 162.184159 
L 137.458492 179.349418 
L 135.827063 175.310534 
L 134.195633 168.242486 
L 132.564203 201.563283 
L 130.932773 217.718821 
L 129.301343 127.853641 
L 127.669913 186.417466 
L 126.038483 224.786869 
L 124.407053 116.746709 
L 122.775624 220.747984 
L 121.144194 74.338422 
L 119.512764 55.153721 
L 117.881334 55.153721 
L 116.249904 55.153721 
L 114.618474 55.153721 
L 112.987044 55.153721 
L 111.355614 55.153721 
L 109.724185 55.153721 
L 108.092755 55.153721 
L 106.461325 55.153721 
L 104.829895 55.153721 
L 103.198465 55.153721 
L 101.567035 55.153721 
L 99.935605 55.153721 
L 98.304175 55.153721 
L 96.672746 55.153721 
L 95.041316 55.153721 
L 93.409886 55.153721 
L 91.778456 55.153721 
L 90.147026 55.153721 
L 88.515596 55.153721 
L 86.884166 55.153721 
L 85.252736 55.153721 
L 83.621307 55.153721 
L 81.989877 55.153721 
L 80.358447 55.153721 
L 78.727017 55.153721 
L 77.095587 55.153721 
L 75.464157 55.153721 
L 73.832727 55.153721 
z
" style="fill:#2ca02c;"/>
   </g>
   <g id="PolyCollection_4">
    <path clip-path="url(#pc2a7003981)" d="M 73.832727 55.153721 
L 73.832727 55.153721 
L 75.464157 55.153721 
L 77.095587 55.153721 
L 78.727017 55.153721 
L 80.358447 55.153721 
L 81.989877 55.153721 
L 83.621307 55.153721 
L 85.252736 55.153721 
L 86.884166 55.153721 
L 88.515596 55.153721 
L 90.147026 55.153721 
L 91.778456 55.153721 
L 93.409886 55.153721 
L 95.041316 55.153721 
L 96.672746 55.153721 
L 98.304175 55.153721 
L 99.935605 55.153721 
L 101.567035 55.153721 
L 103.198465 55.153721 
L 104.829895 55.153721 
L 106.461325 55.153721 
L 108.092755 55.153721 
L 109.724185 55.153721 
L 111.355614 55.153721 
L 112.987044 55.153721 
L 114.618474 55.153721 
L 116.249904 55.153721 
L 117.881334 55.153721 
L 119.512764 55.153721 
L 121.144194 74.338422 
L 122.775624 220.747984 
L 124.407053 116.746709 
L 126.038483 224.786869 
L 127.669913 186.417466 
L 129.301343 127.853641 
L 130.932773 217.718821 
L 132.564203 201.563283 
L 134.195633 168.242486 
L 135.827063 175.310534 
L 137.458492 179.349418 
L 139.089922 162.184159 
L 140.721352 148.048064 
L 142.352782 151.077227 
L 143.984212 147.038343 
L 145.615642 148.048064 
L 147.247072 147.038343 
L 148.878502 153.096669 
L 150.509931 154.10639 
L 152.141361 156.125833 
L 153.772791 158.145275 
L 155.404221 163.19388 
L 157.035651 159.154996 
L 158.667081 158.145275 
L 160.298511 157.135554 
L 161.929941 153.096669 
L 163.56137 154.10639 
L 165.1928 55.153721 
L 166.82423 55.153721 
L 168.45566 55.153721 
L 170.08709 55.153721 
L 171.71852 55.153721 
L 173.34995 55.153721 
L 174.98138 55.153721 
L 176.61281 55.153721 
L 178.244239 55.153721 
L 179.875669 55.153721 
L 181.507099 55.153721 
L 183.138529 55.153721 
L 184.769959 55.153721 
L 186.401389 55.153721 
L 188.032819 55.153721 
L 189.664249 55.153721 
L 191.295678 55.153721 
L 192.927108 55.153721 
L 194.558538 55.153721 
L 196.189968 55.153721 
L 197.821398 55.153721 
L 199.452828 55.153721 
L 201.084258 55.153721 
L 202.715688 55.153721 
L 204.347117 55.153721 
L 205.978547 55.153721 
L 207.609977 55.153721 
L 209.241407 55.153721 
L 210.872837 55.153721 
L 212.504267 55.153721 
L 214.135697 55.153721 
L 215.767127 55.153721 
L 217.398556 55.153721 
L 219.029986 55.153721 
L 220.661416 55.153721 
L 222.292846 55.153721 
L 223.924276 55.153721 
L 225.555706 55.153721 
L 227.187136 55.153721 
L 228.818566 55.153721 
L 230.449995 55.153721 
L 232.081425 55.153721 
L 233.712855 55.153721 
L 235.344285 55.153721 
L 236.975715 57.173163 
L 238.607145 99.58145 
L 240.238575 119.775873 
L 241.870005 140.980016 
L 243.501434 136.941131 
L 245.132864 121.795315 
L 246.764294 125.834199 
L 248.395724 136.941131 
L 250.027154 140.980016 
L 251.658584 135.93141 
L 253.290014 138.960574 
L 254.921444 142.999458 
L 256.552873 147.038343 
L 258.184303 152.086948 
L 259.815733 142.999458 
L 261.447163 144.009179 
L 263.078593 148.048064 
L 264.710023 137.950853 
L 266.341453 134.921689 
L 267.972883 122.805036 
L 269.604312 137.950853 
L 271.235742 127.853641 
L 272.867172 128.863363 
L 274.498602 142.999458 
L 276.130032 136.941131 
L 277.761462 147.038343 
L 279.392892 142.999458 
L 281.024322 139.970295 
L 282.655751 132.902247 
L 284.287181 123.814757 
L 285.918611 167.232765 
L 287.550041 178.339697 
L 289.181471 185.407745 
L 290.812901 175.310534 
L 292.444331 177.329976 
L 294.075761 174.300813 
L 295.70719 183.388303 
L 297.33862 186.417466 
L 298.97005 183.388303 
L 300.60148 183.388303 
L 302.23291 185.407745 
L 303.86434 180.359139 
L 305.49577 187.427187 
L 307.1272 204.592446 
L 308.75863 202.573004 
L 310.390059 198.53412 
L 312.021489 200.553562 
L 313.652919 207.62161 
L 315.284349 224.786869 
L 316.915779 210.650773 
L 318.547209 233.874359 
L 320.178639 252.049339 
L 321.810069 249.020175 
L 323.441498 245.991012 
L 325.072928 248.010454 
L 326.704358 242.961849 
L 328.335788 254.068781 
L 329.967218 244.981291 
L 331.598648 248.010454 
L 333.230078 240.942406 
L 334.861508 240.942406 
L 336.492937 241.952127 
L 338.124367 236.903522 
L 339.755797 234.88408 
L 341.387227 238.922964 
L 343.018657 237.913243 
L 344.650087 233.874359 
L 346.281517 212.670215 
L 347.912947 221.757705 
L 349.544376 231.854916 
L 351.175806 236.903522 
L 352.807236 238.922964 
L 354.438666 222.767426 
L 356.070096 235.893801 
L 357.701526 236.903522 
L 359.332956 232.864637 
L 360.964386 234.88408 
L 362.595815 237.913243 
L 364.227245 234.88408 
L 365.858675 234.88408 
L 367.490105 235.893801 
L 369.121535 231.854916 
L 370.752965 232.864637 
L 372.384395 239.932685 
L 374.015825 215.699378 
L 375.647254 238.922964 
L 377.278684 242.961849 
L 378.910114 241.952127 
L 380.541544 229.835474 
L 382.172974 235.893801 
L 383.804404 234.88408 
L 385.435834 245.991012 
L 387.067264 242.961849 
L 388.698693 238.922964 
L 390.330123 236.903522 
L 391.961553 228.825753 
L 393.592983 223.777147 
L 395.224413 222.767426 
L 396.855843 226.806311 
L 398.487273 249.020175 
L 398.487273 249.020175 
L 398.487273 249.020175 
L 396.855843 226.806311 
L 395.224413 222.767426 
L 393.592983 223.777147 
L 391.961553 228.825753 
L 390.330123 236.903522 
L 388.698693 238.922964 
L 387.067264 242.961849 
L 385.435834 245.991012 
L 383.804404 234.88408 
L 382.172974 235.893801 
L 380.541544 229.835474 
L 378.910114 241.952127 
L 377.278684 242.961849 
L 375.647254 238.922964 
L 374.015825 215.699378 
L 372.384395 239.932685 
L 370.752965 232.864637 
L 369.121535 231.854916 
L 367.490105 235.893801 
L 365.858675 234.88408 
L 364.227245 234.88408 
L 362.595815 237.913243 
L 360.964386 234.88408 
L 359.332956 232.864637 
L 357.701526 236.903522 
L 356.070096 235.893801 
L 354.438666 222.767426 
L 352.807236 238.922964 
L 351.175806 236.903522 
L 349.544376 231.854916 
L 347.912947 221.757705 
L 346.281517 212.670215 
L 344.650087 233.874359 
L 343.018657 237.913243 
L 341.387227 238.922964 
L 339.755797 234.88408 
L 338.124367 236.903522 
L 336.492937 241.952127 
L 334.861508 240.942406 
L 333.230078 240.942406 
L 331.598648 248.010454 
L 329.967218 244.981291 
L 328.335788 254.068781 
L 326.704358 242.961849 
L 325.072928 248.010454 
L 323.441498 245.991012 
L 321.810069 249.020175 
L 320.178639 252.049339 
L 318.547209 233.874359 
L 316.915779 210.650773 
L 315.284349 224.786869 
L 313.652919 207.62161 
L 312.021489 200.553562 
L 310.390059 198.53412 
L 308.75863 202.573004 
L 307.1272 204.592446 
L 305.49577 187.427187 
L 303.86434 180.359139 
L 302.23291 185.407745 
L 300.60148 183.388303 
L 298.97005 183.388303 
L 297.33862 186.417466 
L 295.70719 183.388303 
L 294.075761 174.300813 
L 292.444331 177.329976 
L 290.812901 175.310534 
L 289.181471 185.407745 
L 287.550041 178.339697 
L 285.918611 167.232765 
L 284.287181 123.814757 
L 282.655751 132.902247 
L 281.024322 139.970295 
L 279.392892 142.999458 
L 277.761462 147.038343 
L 276.130032 136.941131 
L 274.498602 142.999458 
L 272.867172 128.863363 
L 271.235742 127.853641 
L 269.604312 137.950853 
L 267.972883 122.805036 
L 266.341453 134.921689 
L 264.710023 137.950853 
L 263.078593 148.048064 
L 261.447163 144.009179 
L 259.815733 142.999458 
L 258.184303 152.086948 
L 256.552873 147.038343 
L 254.921444 142.999458 
L 253.290014 138.960574 
L 251.658584 135.93141 
L 250.027154 140.980016 
L 248.395724 136.941131 
L 246.764294 125.834199 
L 245.132864 121.795315 
L 243.501434 136.941131 
L 241.870005 140.980016 
L 240.238575 119.775873 
L 238.607145 99.58145 
L 236.975715 57.173163 
L 235.344285 55.153721 
L 233.712855 55.153721 
L 232.081425 55.153721 
L 230.449995 55.153721 
L 228.818566 55.153721 
L 227.187136 55.153721 
L 225.555706 55.153721 
L 223.924276 55.153721 
L 222.292846 55.153721 
L 220.661416 55.153721 
L 219.029986 55.153721 
L 217.398556 55.153721 
L 215.767127 55.153721 
L 214.135697 55.153721 
L 212.504267 55.153721 
L 210.872837 55.153721 
L 209.241407 55.153721 
L 207.609977 55.153721 
L 205.978547 55.153721 
L 204.347117 55.153721 
L 202.715688 55.153721 
L 201.084258 55.153721 
L 199.452828 55.153721 
L 197.821398 55.153721 
L 196.189968 55.153721 
L 194.558538 55.153721 
L 192.927108 55.153721 
L 191.295678 55.153721 
L 189.664249 55.153721 
L 188.032819 55.153721 
L 186.401389 55.153721 
L 184.769959 55.153721 
L 183.138529 55.153721 
L 181.507099 55.153721 
L 179.875669 55.153721 
L 178.244239 55.153721 
L 176.61281 55.153721 
L 174.98138 55.153721 
L 173.34995 55.153721 
L 171.71852 55.153721 
L 170.08709 55.153721 
L 168.45566 55.153721 
L 166.82423 55.153721 
L 165.1928 55.153721 
L 163.56137 56.163442 
L 161.929941 55.153721 
L 160.298511 54.144 
L 158.667081 55.153721 
L 157.035651 54.144 
L 155.404221 54.144 
L 153.772791 55.153721 
L 152.141361 56.163442 
L 150.509931 55.153721 
L 148.878502 55.153721 
L 147.247072 54.144 
L 145.615642 55.153721 
L 143.984212 54.144 
L 142.352782 54.144 
L 140.721352 54.144 
L 139.089922 55.153721 
L 137.458492 55.153721 
L 135.827063 55.153721 
L 134.195633 55.153721 
L 132.564203 55.153721 
L 130.932773 56.163442 
L 129.301343 55.153721 
L 127.669913 55.153721 
L 126.038483 55.153721 
L 124.407053 55.153721 
L 122.775624 55.153721 
L 121.144194 55.153721 
L 119.512764 55.153721 
L 117.881334 55.153721 
L 116.249904 55.153721 
L 114.618474 55.153721 
L 112.987044 55.153721 
L 111.355614 55.153721 
L 109.724185 55.153721 
L 108.092755 55.153721 
L 106.461325 55.153721 
L 104.829895 55.153721 
L 103.198465 55.153721 
L 101.567035 55.153721 
L 99.935605 55.153721 
L 98.304175 55.153721 
L 96.672746 55.153721 
L 95.041316 55.153721 
L 93.409886 55.153721 
L 91.778456 55.153721 
L 90.147026 55.153721 
L 88.515596 55.153721 
L 86.884166 55.153721 
L 85.252736 55.153721 
L 83.621307 55.153721 
L 81.989877 55.153721 
L 80.358447 55.153721 
L 78.727017 55.153721 
L 77.095587 55.153721 
L 75.464157 55.153721 
L 73.832727 55.153721 
z
" style="fill:#d62728;"/>
   </g>
   <g id="PolyCollection_5">
    <path clip-path="url(#pc2a7003981)" d="M 73.832727 55.153721 
L 73.832727 55.153721 
L 75.464157 55.153721 
L 77.095587 55.153721 
L 78.727017 55.153721 
L 80.358447 55.153721 
L 81.989877 55.153721 
L 83.621307 55.153721 
L 85.252736 55.153721 
L 86.884166 55.153721 
L 88.515596 55.153721 
L 90.147026 55.153721 
L 91.778456 55.153721 
L 93.409886 55.153721 
L 95.041316 55.153721 
L 96.672746 55.153721 
L 98.304175 55.153721 
L 99.935605 55.153721 
L 101.567035 55.153721 
L 103.198465 55.153721 
L 104.829895 55.153721 
L 106.461325 55.153721 
L 108.092755 55.153721 
L 109.724185 55.153721 
L 111.355614 55.153721 
L 112.987044 55.153721 
L 114.618474 55.153721 
L 116.249904 55.153721 
L 117.881334 55.153721 
L 119.512764 55.153721 
L 121.144194 55.153721 
L 122.775624 55.153721 
L 124.407053 55.153721 
L 126.038483 55.153721 
L 127.669913 55.153721 
L 129.301343 55.153721 
L 130.932773 56.163442 
L 132.564203 55.153721 
L 134.195633 55.153721 
L 135.827063 55.153721 
L 137.458492 55.153721 
L 139.089922 55.153721 
L 140.721352 54.144 
L 142.352782 54.144 
L 143.984212 54.144 
L 145.615642 55.153721 
L 147.247072 54.144 
L 148.878502 55.153721 
L 150.509931 55.153721 
L 152.141361 56.163442 
L 153.772791 55.153721 
L 155.404221 54.144 
L 157.035651 54.144 
L 158.667081 55.153721 
L 160.298511 54.144 
L 161.929941 55.153721 
L 163.56137 56.163442 
L 165.1928 55.153721 
L 166.82423 55.153721 
L 168.45566 55.153721 
L 170.08709 55.153721 
L 171.71852 55.153721 
L 173.34995 55.153721 
L 174.98138 55.153721 
L 176.61281 55.153721 
L 178.244239 55.153721 
L 179.875669 55.153721 
L 181.507099 55.153721 
L 183.138529 55.153721 
L 184.769959 55.153721 
L 186.401389 55.153721 
L 188.032819 55.153721 
L 189.664249 55.153721 
L 191.295678 55.153721 
L 192.927108 55.153721 
L 194.558538 55.153721 
L 196.189968 55.153721 
L 197.821398 55.153721 
L 199.452828 55.153721 
L 201.084258 55.153721 
L 202.715688 55.153721 
L 204.347117 55.153721 
L 205.978547 55.153721 
L 207.609977 55.153721 
L 209.241407 55.153721 
L 210.872837 55.153721 
L 212.504267 55.153721 
L 214.135697 55.153721 
L 215.767127 55.153721 
L 217.398556 55.153721 
L 219.029986 55.153721 
L 220.661416 55.153721 
L 222.292846 55.153721 
L 223.924276 55.153721 
L 225.555706 55.153721 
L 227.187136 55.153721 
L 228.818566 55.153721 
L 230.449995 55.153721 
L 232.081425 55.153721 
L 233.712855 55.153721 
L 235.344285 55.153721 
L 236.975715 57.173163 
L 238.607145 99.58145 
L 240.238575 119.775873 
L 241.870005 140.980016 
L 243.501434 136.941131 
L 245.132864 121.795315 
L 246.764294 125.834199 
L 248.395724 136.941131 
L 250.027154 140.980016 
L 251.658584 135.93141 
L 253.290014 138.960574 
L 254.921444 142.999458 
L 256.552873 147.038343 
L 258.184303 152.086948 
L 259.815733 142.999458 
L 261.447163 144.009179 
L 263.078593 148.048064 
L 264.710023 137.950853 
L 266.341453 134.921689 
L 267.972883 122.805036 
L 269.604312 137.950853 
L 271.235742 127.853641 
L 272.867172 128.863363 
L 274.498602 142.999458 
L 276.130032 136.941131 
L 277.761462 147.038343 
L 279.392892 142.999458 
L 281.024322 139.970295 
L 282.655751 132.902247 
L 284.287181 123.814757 
L 285.918611 167.232765 
L 287.550041 178.339697 
L 289.181471 185.407745 
L 290.812901 175.310534 
L 292.444331 177.329976 
L 294.075761 174.300813 
L 295.70719 183.388303 
L 297.33862 186.417466 
L 298.97005 183.388303 
L 300.60148 183.388303 
L 302.23291 185.407745 
L 303.86434 180.359139 
L 305.49577 187.427187 
L 307.1272 204.592446 
L 308.75863 202.573004 
L 310.390059 198.53412 
L 312.021489 200.553562 
L 313.652919 207.62161 
L 315.284349 224.786869 
L 316.915779 210.650773 
L 318.547209 233.874359 
L 320.178639 252.049339 
L 321.810069 249.020175 
L 323.441498 245.991012 
L 325.072928 248.010454 
L 326.704358 242.961849 
L 328.335788 254.068781 
L 329.967218 244.981291 
L 331.598648 248.010454 
L 333.230078 240.942406 
L 334.861508 240.942406 
L 336.492937 241.952127 
L 338.124367 236.903522 
L 339.755797 234.88408 
L 341.387227 238.922964 
L 343.018657 237.913243 
L 344.650087 233.874359 
L 346.281517 212.670215 
L 347.912947 221.757705 
L 349.544376 231.854916 
L 351.175806 236.903522 
L 352.807236 238.922964 
L 354.438666 222.767426 
L 356.070096 235.893801 
L 357.701526 236.903522 
L 359.332956 232.864637 
L 360.964386 234.88408 
L 362.595815 237.913243 
L 364.227245 234.88408 
L 365.858675 234.88408 
L 367.490105 235.893801 
L 369.121535 231.854916 
L 370.752965 232.864637 
L 372.384395 239.932685 
L 374.015825 215.699378 
L 375.647254 238.922964 
L 377.278684 242.961849 
L 378.910114 241.952127 
L 380.541544 229.835474 
L 382.172974 235.893801 
L 383.804404 234.88408 
L 385.435834 245.991012 
L 387.067264 242.961849 
L 388.698693 238.922964 
L 390.330123 236.903522 
L 391.961553 228.825753 
L 393.592983 223.777147 
L 395.224413 222.767426 
L 396.855843 226.806311 
L 398.487273 249.020175 
L 398.487273 249.020175 
L 398.487273 249.020175 
L 396.855843 226.806311 
L 395.224413 222.767426 
L 393.592983 223.777147 
L 391.961553 228.825753 
L 390.330123 236.903522 
L 388.698693 238.922964 
L 387.067264 242.961849 
L 385.435834 245.991012 
L 383.804404 234.88408 
L 382.172974 235.893801 
L 380.541544 229.835474 
L 378.910114 241.952127 
L 377.278684 242.961849 
L 375.647254 238.922964 
L 374.015825 215.699378 
L 372.384395 239.932685 
L 370.752965 232.864637 
L 369.121535 231.854916 
L 367.490105 235.893801 
L 365.858675 234.88408 
L 364.227245 234.88408 
L 362.595815 237.913243 
L 360.964386 234.88408 
L 359.332956 232.864637 
L 357.701526 236.903522 
L 356.070096 235.893801 
L 354.438666 222.767426 
L 352.807236 238.922964 
L 351.175806 236.903522 
L 349.544376 231.854916 
L 347.912947 221.757705 
L 346.281517 212.670215 
L 344.650087 233.874359 
L 343.018657 237.913243 
L 341.387227 238.922964 
L 339.755797 234.88408 
L 338.124367 236.903522 
L 336.492937 241.952127 
L 334.861508 240.942406 
L 333.230078 240.942406 
L 331.598648 248.010454 
L 329.967218 244.981291 
L 328.335788 200.553562 
L 326.704358 193.485514 
L 325.072928 198.53412 
L 323.441498 197.524398 
L 321.810069 202.573004 
L 320.178639 203.582725 
L 318.547209 193.485514 
L 316.915779 128.863363 
L 315.284349 111.698104 
L 313.652919 63.23149 
L 312.021489 55.153721 
L 310.390059 55.153721 
L 308.75863 55.153721 
L 307.1272 55.153721 
L 305.49577 55.153721 
L 303.86434 55.153721 
L 302.23291 55.153721 
L 300.60148 55.153721 
L 298.97005 55.153721 
L 297.33862 55.153721 
L 295.70719 55.153721 
L 294.075761 55.153721 
L 292.444331 55.153721 
L 290.812901 55.153721 
L 289.181471 55.153721 
L 287.550041 55.153721 
L 285.918611 55.153721 
L 284.287181 56.163442 
L 282.655751 56.163442 
L 281.024322 56.163442 
L 279.392892 56.163442 
L 277.761462 55.153721 
L 276.130032 55.153721 
L 274.498602 55.153721 
L 272.867172 56.163442 
L 271.235742 56.163442 
L 269.604312 56.163442 
L 267.972883 56.163442 
L 266.341453 56.163442 
L 264.710023 55.153721 
L 263.078593 54.144 
L 261.447163 56.163442 
L 259.815733 56.163442 
L 258.184303 56.163442 
L 256.552873 55.153721 
L 254.921444 55.153721 
L 253.290014 54.144 
L 251.658584 54.144 
L 250.027154 54.144 
L 248.395724 55.153721 
L 246.764294 55.153721 
L 245.132864 55.153721 
L 243.501434 55.153721 
L 241.870005 55.153721 
L 240.238575 55.153721 
L 238.607145 55.153721 
L 236.975715 55.153721 
L 235.344285 55.153721 
L 233.712855 55.153721 
L 232.081425 55.153721 
L 230.449995 55.153721 
L 228.818566 55.153721 
L 227.187136 55.153721 
L 225.555706 55.153721 
L 223.924276 55.153721 
L 222.292846 55.153721 
L 220.661416 55.153721 
L 219.029986 55.153721 
L 217.398556 55.153721 
L 215.767127 55.153721 
L 214.135697 55.153721 
L 212.504267 55.153721 
L 210.872837 55.153721 
L 209.241407 55.153721 
L 207.609977 55.153721 
L 205.978547 55.153721 
L 204.347117 55.153721 
L 202.715688 55.153721 
L 201.084258 55.153721 
L 199.452828 55.153721 
L 197.821398 55.153721 
L 196.189968 55.153721 
L 194.558538 55.153721 
L 192.927108 55.153721 
L 191.295678 55.153721 
L 189.664249 55.153721 
L 188.032819 55.153721 
L 186.401389 55.153721 
L 184.769959 55.153721 
L 183.138529 55.153721 
L 181.507099 55.153721 
L 179.875669 55.153721 
L 178.244239 55.153721 
L 176.61281 55.153721 
L 174.98138 55.153721 
L 173.34995 55.153721 
L 171.71852 55.153721 
L 170.08709 55.153721 
L 168.45566 55.153721 
L 166.82423 55.153721 
L 165.1928 55.153721 
L 163.56137 56.163442 
L 161.929941 55.153721 
L 160.298511 54.144 
L 158.667081 55.153721 
L 157.035651 54.144 
L 155.404221 54.144 
L 153.772791 55.153721 
L 152.141361 56.163442 
L 150.509931 55.153721 
L 148.878502 55.153721 
L 147.247072 54.144 
L 145.615642 55.153721 
L 143.984212 54.144 
L 142.352782 54.144 
L 140.721352 54.144 
L 139.089922 55.153721 
L 137.458492 55.153721 
L 135.827063 55.153721 
L 134.195633 55.153721 
L 132.564203 55.153721 
L 130.932773 56.163442 
L 129.301343 55.153721 
L 127.669913 55.153721 
L 126.038483 55.153721 
L 124.407053 55.153721 
L 122.775624 55.153721 
L 121.144194 55.153721 
L 119.512764 55.153721 
L 117.881334 55.153721 
L 116.249904 55.153721 
L 114.618474 55.153721 
L 112.987044 55.153721 
L 111.355614 55.153721 
L 109.724185 55.153721 
L 108.092755 55.153721 
L 106.461325 55.153721 
L 104.829895 55.153721 
L 103.198465 55.153721 
L 101.567035 55.153721 
L 99.935605 55.153721 
L 98.304175 55.153721 
L 96.672746 55.153721 
L 95.041316 55.153721 
L 93.409886 55.153721 
L 91.778456 55.153721 
L 90.147026 55.153721 
L 88.515596 55.153721 
L 86.884166 55.153721 
L 85.252736 55.153721 
L 83.621307 55.153721 
L 81.989877 55.153721 
L 80.358447 55.153721 
L 78.727017 55.153721 
L 77.095587 55.153721 
L 75.464157 55.153721 
L 73.832727 55.153721 
z
" style="fill:#9467bd;"/>
   </g>
   <g id="PolyCollection_6">
    <path clip-path="url(#pc2a7003981)" d="M 73.832727 55.153721 
L 73.832727 55.153721 
L 75.464157 55.153721 
L 77.095587 55.153721 
L 78.727017 55.153721 
L 80.358447 55.153721 
L 81.989877 55.153721 
L 83.621307 55.153721 
L 85.252736 55.153721 
L 86.884166 55.153721 
L 88.515596 55.153721 
L 90.147026 55.153721 
L 91.778456 55.153721 
L 93.409886 55.153721 
L 95.041316 55.153721 
L 96.672746 55.153721 
L 98.304175 55.153721 
L 99.935605 55.153721 
L 101.567035 55.153721 
L 103.198465 55.153721 
L 104.829895 55.153721 
L 106.461325 55.153721 
L 108.092755 55.153721 
L 109.724185 55.153721 
L 111.355614 55.153721 
L 112.987044 55.153721 
L 114.618474 55.153721 
L 116.249904 55.153721 
L 117.881334 55.153721 
L 119.512764 55.153721 
L 121.144194 55.153721 
L 122.775624 55.153721 
L 124.407053 55.153721 
L 126.038483 55.153721 
L 127.669913 55.153721 
L 129.301343 55.153721 
L 130.932773 56.163442 
L 132.564203 55.153721 
L 134.195633 55.153721 
L 135.827063 55.153721 
L 137.458492 55.153721 
L 139.089922 55.153721 
L 140.721352 54.144 
L 142.352782 54.144 
L 143.984212 54.144 
L 145.615642 55.153721 
L 147.247072 54.144 
L 148.878502 55.153721 
L 150.509931 55.153721 
L 152.141361 56.163442 
L 153.772791 55.153721 
L 155.404221 54.144 
L 157.035651 54.144 
L 158.667081 55.153721 
L 160.298511 54.144 
L 161.929941 55.153721 
L 163.56137 56.163442 
L 165.1928 55.153721 
L 166.82423 55.153721 
L 168.45566 55.153721 
L 170.08709 55.153721 
L 171.71852 55.153721 
L 173.34995 55.153721 
L 174.98138 55.153721 
L 176.61281 55.153721 
L 178.244239 55.153721 
L 179.875669 55.153721 
L 181.507099 55.153721 
L 183.138529 55.153721 
L 184.769959 55.153721 
L 186.401389 55.153721 
L 188.032819 55.153721 
L 189.664249 55.153721 
L 191.295678 55.153721 
L 192.927108 55.153721 
L 194.558538 55.153721 
L 196.189968 55.153721 
L 197.821398 55.153721 
L 199.452828 55.153721 
L 201.084258 55.153721 
L 202.715688 55.153721 
L 204.347117 55.153721 
L 205.978547 55.153721 
L 207.609977 55.153721 
L 209.241407 55.153721 
L 210.872837 55.153721 
L 212.504267 55.153721 
L 214.135697 55.153721 
L 215.767127 55.153721 
L 217.398556 55.153721 
L 219.029986 55.153721 
L 220.661416 55.153721 
L 222.292846 55.153721 
L 223.924276 55.153721 
L 225.555706 55.153721 
L 227.187136 55.153721 
L 228.818566 55.153721 
L 230.449995 55.153721 
L 232.081425 55.153721 
L 233.712855 55.153721 
L 235.344285 55.153721 
L 236.975715 55.153721 
L 238.607145 55.153721 
L 240.238575 55.153721 
L 241.870005 55.153721 
L 243.501434 55.153721 
L 245.132864 55.153721 
L 246.764294 55.153721 
L 248.395724 55.153721 
L 250.027154 54.144 
L 251.658584 54.144 
L 253.290014 54.144 
L 254.921444 55.153721 
L 256.552873 55.153721 
L 258.184303 56.163442 
L 259.815733 56.163442 
L 261.447163 56.163442 
L 263.078593 54.144 
L 264.710023 55.153721 
L 266.341453 56.163442 
L 267.972883 56.163442 
L 269.604312 56.163442 
L 271.235742 56.163442 
L 272.867172 56.163442 
L 274.498602 55.153721 
L 276.130032 55.153721 
L 277.761462 55.153721 
L 279.392892 56.163442 
L 281.024322 56.163442 
L 282.655751 56.163442 
L 284.287181 56.163442 
L 285.918611 55.153721 
L 287.550041 55.153721 
L 289.181471 55.153721 
L 290.812901 55.153721 
L 292.444331 55.153721 
L 294.075761 55.153721 
L 295.70719 55.153721 
L 297.33862 55.153721 
L 298.97005 55.153721 
L 300.60148 55.153721 
L 302.23291 55.153721 
L 303.86434 55.153721 
L 305.49577 55.153721 
L 307.1272 55.153721 
L 308.75863 55.153721 
L 310.390059 55.153721 
L 312.021489 55.153721 
L 313.652919 63.23149 
L 315.284349 111.698104 
L 316.915779 128.863363 
L 318.547209 193.485514 
L 320.178639 203.582725 
L 321.810069 202.573004 
L 323.441498 197.524398 
L 325.072928 198.53412 
L 326.704358 193.485514 
L 328.335788 200.553562 
L 329.967218 244.981291 
L 331.598648 248.010454 
L 333.230078 240.942406 
L 334.861508 240.942406 
L 336.492937 241.952127 
L 338.124367 236.903522 
L 339.755797 234.88408 
L 341.387227 238.922964 
L 343.018657 237.913243 
L 344.650087 233.874359 
L 346.281517 212.670215 
L 347.912947 221.757705 
L 349.544376 231.854916 
L 351.175806 236.903522 
L 352.807236 238.922964 
L 354.438666 222.767426 
L 356.070096 235.893801 
L 357.701526 236.903522 
L 359.332956 232.864637 
L 360.964386 234.88408 
L 362.595815 237.913243 
L 364.227245 234.88408 
L 365.858675 234.88408 
L 367.490105 235.893801 
L 369.121535 231.854916 
L 370.752965 232.864637 
L 372.384395 239.932685 
L 374.015825 215.699378 
L 375.647254 238.922964 
L 377.278684 242.961849 
L 378.910114 241.952127 
L 380.541544 229.835474 
L 382.172974 235.893801 
L 383.804404 234.88408 
L 385.435834 245.991012 
L 387.067264 242.961849 
L 388.698693 238.922964 
L 390.330123 236.903522 
L 391.961553 228.825753 
L 393.592983 223.777147 
L 395.224413 222.767426 
L 396.855843 226.806311 
L 398.487273 249.020175 
L 398.487273 142.999458 
L 398.487273 142.999458 
L 396.855843 149.057785 
L 395.224413 140.980016 
L 393.592983 138.960574 
L 391.961553 153.096669 
L 390.330123 144.009179 
L 388.698693 144.009179 
L 387.067264 137.950853 
L 385.435834 137.950853 
L 383.804404 140.980016 
L 382.172974 132.902247 
L 380.541544 135.93141 
L 378.910114 132.902247 
L 377.278684 120.785594 
L 375.647254 125.834199 
L 374.015825 151.077227 
L 372.384395 148.048064 
L 370.752965 150.067506 
L 369.121535 153.096669 
L 367.490105 150.067506 
L 365.858675 146.028622 
L 364.227245 148.048064 
L 362.595815 151.077227 
L 360.964386 153.096669 
L 359.332956 153.096669 
L 357.701526 149.057785 
L 356.070096 157.135554 
L 354.438666 154.10639 
L 352.807236 158.145275 
L 351.175806 160.164717 
L 349.544376 164.203602 
L 347.912947 161.174438 
L 346.281517 164.203602 
L 344.650087 155.116112 
L 343.018657 157.135554 
L 341.387227 156.125833 
L 339.755797 149.057785 
L 338.124367 146.028622 
L 336.492937 152.086948 
L 334.861508 154.10639 
L 333.230078 157.135554 
L 331.598648 162.184159 
L 329.967218 160.164717 
L 328.335788 127.853641 
L 326.704358 130.882805 
L 325.072928 132.902247 
L 323.441498 137.950853 
L 321.810069 137.950853 
L 320.178639 138.960574 
L 318.547209 136.941131 
L 316.915779 72.31898 
L 315.284349 55.153721 
L 313.652919 55.153721 
L 312.021489 55.153721 
L 310.390059 55.153721 
L 308.75863 55.153721 
L 307.1272 55.153721 
L 305.49577 55.153721 
L 303.86434 55.153721 
L 302.23291 55.153721 
L 300.60148 55.153721 
L 298.97005 55.153721 
L 297.33862 55.153721 
L 295.70719 55.153721 
L 294.075761 55.153721 
L 292.444331 55.153721 
L 290.812901 55.153721 
L 289.181471 55.153721 
L 287.550041 55.153721 
L 285.918611 55.153721 
L 284.287181 56.163442 
L 282.655751 56.163442 
L 281.024322 56.163442 
L 279.392892 56.163442 
L 277.761462 55.153721 
L 276.130032 55.153721 
L 274.498602 55.153721 
L 272.867172 56.163442 
L 271.235742 56.163442 
L 269.604312 56.163442 
L 267.972883 56.163442 
L 266.341453 56.163442 
L 264.710023 55.153721 
L 263.078593 54.144 
L 261.447163 56.163442 
L 259.815733 56.163442 
L 258.184303 56.163442 
L 256.552873 55.153721 
L 254.921444 55.153721 
L 253.290014 54.144 
L 251.658584 54.144 
L 250.027154 54.144 
L 248.395724 55.153721 
L 246.764294 55.153721 
L 245.132864 55.153721 
L 243.501434 55.153721 
L 241.870005 55.153721 
L 240.238575 55.153721 
L 238.607145 55.153721 
L 236.975715 55.153721 
L 235.344285 55.153721 
L 233.712855 55.153721 
L 232.081425 55.153721 
L 230.449995 55.153721 
L 228.818566 55.153721 
L 227.187136 55.153721 
L 225.555706 55.153721 
L 223.924276 55.153721 
L 222.292846 55.153721 
L 220.661416 55.153721 
L 219.029986 55.153721 
L 217.398556 55.153721 
L 215.767127 55.153721 
L 214.135697 55.153721 
L 212.504267 55.153721 
L 210.872837 55.153721 
L 209.241407 55.153721 
L 207.609977 55.153721 
L 205.978547 55.153721 
L 204.347117 55.153721 
L 202.715688 55.153721 
L 201.084258 55.153721 
L 199.452828 55.153721 
L 197.821398 55.153721 
L 196.189968 55.153721 
L 194.558538 55.153721 
L 192.927108 55.153721 
L 191.295678 55.153721 
L 189.664249 55.153721 
L 188.032819 55.153721 
L 186.401389 55.153721 
L 184.769959 55.153721 
L 183.138529 55.153721 
L 181.507099 55.153721 
L 179.875669 55.153721 
L 178.244239 55.153721 
L 176.61281 55.153721 
L 174.98138 55.153721 
L 173.34995 55.153721 
L 171.71852 55.153721 
L 170.08709 55.153721 
L 168.45566 55.153721 
L 166.82423 55.153721 
L 165.1928 55.153721 
L 163.56137 56.163442 
L 161.929941 55.153721 
L 160.298511 54.144 
L 158.667081 55.153721 
L 157.035651 54.144 
L 155.404221 54.144 
L 153.772791 55.153721 
L 152.141361 56.163442 
L 150.509931 55.153721 
L 148.878502 55.153721 
L 147.247072 54.144 
L 145.615642 55.153721 
L 143.984212 54.144 
L 142.352782 54.144 
L 140.721352 54.144 
L 139.089922 55.153721 
L 137.458492 55.153721 
L 135.827063 55.153721 
L 134.195633 55.153721 
L 132.564203 55.153721 
L 130.932773 56.163442 
L 129.301343 55.153721 
L 127.669913 55.153721 
L 126.038483 55.153721 
L 124.407053 55.153721 
L 122.775624 55.153721 
L 121.144194 55.153721 
L 119.512764 55.153721 
L 117.881334 55.153721 
L 116.249904 55.153721 
L 114.618474 55.153721 
L 112.987044 55.153721 
L 111.355614 55.153721 
L 109.724185 55.153721 
L 108.092755 55.153721 
L 106.461325 55.153721 
L 104.829895 55.153721 
L 103.198465 55.153721 
L 101.567035 55.153721 
L 99.935605 55.153721 
L 98.304175 55.153721 
L 96.672746 55.153721 
L 95.041316 55.153721 
L 93.409886 55.153721 
L 91.778456 55.153721 
L 90.147026 55.153721 
L 88.515596 55.153721 
L 86.884166 55.153721 
L 85.252736 55.153721 
L 83.621307 55.153721 
L 81.989877 55.153721 
L 80.358447 55.153721 
L 78.727017 55.153721 
L 77.095587 55.153721 
L 75.464157 55.153721 
L 73.832727 55.153721 
z
" style="fill:#8c564b;"/>
   </g>
   <g id="PolyCollection_7">
    <path clip-path="url(#pc2a7003981)" d="M 73.832727 55.153721 
L 73.832727 55.153721 
L 75.464157 55.153721 
L 77.095587 55.153721 
L 78.727017 55.153721 
L 80.358447 55.153721 
L 81.989877 55.153721 
L 83.621307 55.153721 
L 85.252736 55.153721 
L 86.884166 55.153721 
L 88.515596 55.153721 
L 90.147026 55.153721 
L 91.778456 55.153721 
L 93.409886 55.153721 
L 95.041316 55.153721 
L 96.672746 55.153721 
L 98.304175 55.153721 
L 99.935605 55.153721 
L 101.567035 55.153721 
L 103.198465 55.153721 
L 104.829895 55.153721 
L 106.461325 55.153721 
L 108.092755 55.153721 
L 109.724185 55.153721 
L 111.355614 55.153721 
L 112.987044 55.153721 
L 114.618474 55.153721 
L 116.249904 55.153721 
L 117.881334 55.153721 
L 119.512764 55.153721 
L 121.144194 55.153721 
L 122.775624 55.153721 
L 124.407053 55.153721 
L 126.038483 55.153721 
L 127.669913 55.153721 
L 129.301343 55.153721 
L 130.932773 56.163442 
L 132.564203 55.153721 
L 134.195633 55.153721 
L 135.827063 55.153721 
L 137.458492 55.153721 
L 139.089922 55.153721 
L 140.721352 54.144 
L 142.352782 54.144 
L 143.984212 54.144 
L 145.615642 55.153721 
L 147.247072 54.144 
L 148.878502 55.153721 
L 150.509931 55.153721 
L 152.141361 56.163442 
L 153.772791 55.153721 
L 155.404221 54.144 
L 157.035651 54.144 
L 158.667081 55.153721 
L 160.298511 54.144 
L 161.929941 55.153721 
L 163.56137 56.163442 
L 165.1928 55.153721 
L 166.82423 55.153721 
L 168.45566 55.153721 
L 170.08709 55.153721 
L 171.71852 55.153721 
L 173.34995 55.153721 
L 174.98138 55.153721 
L 176.61281 55.153721 
L 178.244239 55.153721 
L 179.875669 55.153721 
L 181.507099 55.153721 
L 183.138529 55.153721 
L 184.769959 55.153721 
L 186.401389 55.153721 
L 188.032819 55.153721 
L 189.664249 55.153721 
L 191.295678 55.153721 
L 192.927108 55.153721 
L 194.558538 55.153721 
L 196.189968 55.153721 
L 197.821398 55.153721 
L 199.452828 55.153721 
L 201.084258 55.153721 
L 202.715688 55.153721 
L 204.347117 55.153721 
L 205.978547 55.153721 
L 207.609977 55.153721 
L 209.241407 55.153721 
L 210.872837 55.153721 
L 212.504267 55.153721 
L 214.135697 55.153721 
L 215.767127 55.153721 
L 217.398556 55.153721 
L 219.029986 55.153721 
L 220.661416 55.153721 
L 222.292846 55.153721 
L 223.924276 55.153721 
L 225.555706 55.153721 
L 227.187136 55.153721 
L 228.818566 55.153721 
L 230.449995 55.153721 
L 232.081425 55.153721 
L 233.712855 55.153721 
L 235.344285 55.153721 
L 236.975715 55.153721 
L 238.607145 55.153721 
L 240.238575 55.153721 
L 241.870005 55.153721 
L 243.501434 55.153721 
L 245.132864 55.153721 
L 246.764294 55.153721 
L 248.395724 55.153721 
L 250.027154 54.144 
L 251.658584 54.144 
L 253.290014 54.144 
L 254.921444 55.153721 
L 256.552873 55.153721 
L 258.184303 56.163442 
L 259.815733 56.163442 
L 261.447163 56.163442 
L 263.078593 54.144 
L 264.710023 55.153721 
L 266.341453 56.163442 
L 267.972883 56.163442 
L 269.604312 56.163442 
L 271.235742 56.163442 
L 272.867172 56.163442 
L 274.498602 55.153721 
L 276.130032 55.153721 
L 277.761462 55.153721 
L 279.392892 56.163442 
L 281.024322 56.163442 
L 282.655751 56.163442 
L 284.287181 56.163442 
L 285.918611 55.153721 
L 287.550041 55.153721 
L 289.181471 55.153721 
L 290.812901 55.153721 
L 292.444331 55.153721 
L 294.075761 55.153721 
L 295.70719 55.153721 
L 297.33862 55.153721 
L 298.97005 55.153721 
L 300.60148 55.153721 
L 302.23291 55.153721 
L 303.86434 55.153721 
L 305.49577 55.153721 
L 307.1272 55.153721 
L 308.75863 55.153721 
L 310.390059 55.153721 
L 312.021489 55.153721 
L 313.652919 55.153721 
L 315.284349 55.153721 
L 316.915779 72.31898 
L 318.547209 136.941131 
L 320.178639 138.960574 
L 321.810069 137.950853 
L 323.441498 137.950853 
L 325.072928 132.902247 
L 326.704358 130.882805 
L 328.335788 127.853641 
L 329.967218 160.164717 
L 331.598648 162.184159 
L 333.230078 157.135554 
L 334.861508 154.10639 
L 336.492937 152.086948 
L 338.124367 146.028622 
L 339.755797 149.057785 
L 341.387227 156.125833 
L 343.018657 157.135554 
L 344.650087 155.116112 
L 346.281517 164.203602 
L 347.912947 161.174438 
L 349.544376 164.203602 
L 351.175806 160.164717 
L 352.807236 158.145275 
L 354.438666 154.10639 
L 356.070096 157.135554 
L 357.701526 149.057785 
L 359.332956 153.096669 
L 360.964386 153.096669 
L 362.595815 151.077227 
L 364.227245 148.048064 
L 365.858675 146.028622 
L 367.490105 150.067506 
L 369.121535 153.096669 
L 370.752965 150.067506 
L 372.384395 148.048064 
L 374.015825 151.077227 
L 375.647254 125.834199 
L 377.278684 120.785594 
L 378.910114 132.902247 
L 380.541544 135.93141 
L 382.172974 132.902247 
L 383.804404 140.980016 
L 385.435834 137.950853 
L 387.067264 137.950853 
L 388.698693 144.009179 
L 390.330123 144.009179 
L 391.961553 153.096669 
L 393.592983 138.960574 
L 395.224413 140.980016 
L 396.855843 149.057785 
L 398.487273 142.999458 
L 398.487273 56.163442 
L 398.487273 56.163442 
L 396.855843 55.153721 
L 395.224413 55.153721 
L 393.592983 55.153721 
L 391.961553 55.153721 
L 390.330123 56.163442 
L 388.698693 54.144 
L 387.067264 54.144 
L 385.435834 54.144 
L 383.804404 54.144 
L 382.172974 54.144 
L 380.541544 54.144 
L 378.910114 54.144 
L 377.278684 55.153721 
L 375.647254 54.144 
L 374.015825 54.144 
L 372.384395 55.153721 
L 370.752965 55.153721 
L 369.121535 55.153721 
L 367.490105 55.153721 
L 365.858675 55.153721 
L 364.227245 55.153721 
L 362.595815 55.153721 
L 360.964386 56.163442 
L 359.332956 55.153721 
L 357.701526 55.153721 
L 356.070096 55.153721 
L 354.438666 55.153721 
L 352.807236 55.153721 
L 351.175806 55.153721 
L 349.544376 54.144 
L 347.912947 54.144 
L 346.281517 55.153721 
L 344.650087 55.153721 
L 343.018657 54.144 
L 341.387227 55.153721 
L 339.755797 55.153721 
L 338.124367 56.163442 
L 336.492937 56.163442 
L 334.861508 55.153721 
L 333.230078 55.153721 
L 331.598648 55.153721 
L 329.967218 55.153721 
L 328.335788 55.153721 
L 326.704358 56.163442 
L 325.072928 55.153721 
L 323.441498 56.163442 
L 321.810069 56.163442 
L 320.178639 56.163442 
L 318.547209 55.153721 
L 316.915779 55.153721 
L 315.284349 55.153721 
L 313.652919 55.153721 
L 312.021489 55.153721 
L 310.390059 55.153721 
L 308.75863 55.153721 
L 307.1272 55.153721 
L 305.49577 55.153721 
L 303.86434 55.153721 
L 302.23291 55.153721 
L 300.60148 55.153721 
L 298.97005 55.153721 
L 297.33862 55.153721 
L 295.70719 55.153721 
L 294.075761 55.153721 
L 292.444331 55.153721 
L 290.812901 55.153721 
L 289.181471 55.153721 
L 287.550041 55.153721 
L 285.918611 55.153721 
L 284.287181 56.163442 
L 282.655751 56.163442 
L 281.024322 56.163442 
L 279.392892 56.163442 
L 277.761462 55.153721 
L 276.130032 55.153721 
L 274.498602 55.153721 
L 272.867172 56.163442 
L 271.235742 56.163442 
L 269.604312 56.163442 
L 267.972883 56.163442 
L 266.341453 56.163442 
L 264.710023 55.153721 
L 263.078593 54.144 
L 261.447163 56.163442 
L 259.815733 56.163442 
L 258.184303 56.163442 
L 256.552873 55.153721 
L 254.921444 55.153721 
L 253.290014 54.144 
L 251.658584 54.144 
L 250.027154 54.144 
L 248.395724 55.153721 
L 246.764294 55.153721 
L 245.132864 55.153721 
L 243.501434 55.153721 
L 241.870005 55.153721 
L 240.238575 55.153721 
L 238.607145 55.153721 
L 236.975715 55.153721 
L 235.344285 55.153721 
L 233.712855 55.153721 
L 232.081425 55.153721 
L 230.449995 55.153721 
L 228.818566 55.153721 
L 227.187136 55.153721 
L 225.555706 55.153721 
L 223.924276 55.153721 
L 222.292846 55.153721 
L 220.661416 55.153721 
L 219.029986 55.153721 
L 217.398556 55.153721 
L 215.767127 55.153721 
L 214.135697 55.153721 
L 212.504267 55.153721 
L 210.872837 55.153721 
L 209.241407 55.153721 
L 207.609977 55.153721 
L 205.978547 55.153721 
L 204.347117 55.153721 
L 202.715688 55.153721 
L 201.084258 55.153721 
L 199.452828 55.153721 
L 197.821398 55.153721 
L 196.189968 55.153721 
L 194.558538 55.153721 
L 192.927108 55.153721 
L 191.295678 55.153721 
L 189.664249 55.153721 
L 188.032819 55.153721 
L 186.401389 55.153721 
L 184.769959 55.153721 
L 183.138529 55.153721 
L 181.507099 55.153721 
L 179.875669 55.153721 
L 178.244239 55.153721 
L 176.61281 55.153721 
L 174.98138 55.153721 
L 173.34995 55.153721 
L 171.71852 55.153721 
L 170.08709 55.153721 
L 168.45566 55.153721 
L 166.82423 55.153721 
L 165.1928 55.153721 
L 163.56137 56.163442 
L 161.929941 55.153721 
L 160.298511 54.144 
L 158.667081 55.153721 
L 157.035651 54.144 
L 155.404221 54.144 
L 153.772791 55.153721 
L 152.141361 56.163442 
L 150.509931 55.153721 
L 148.878502 55.153721 
L 147.247072 54.144 
L 145.615642 55.153721 
L 143.984212 54.144 
L 142.352782 54.144 
L 140.721352 54.144 
L 139.089922 55.153721 
L 137.458492 55.153721 
L 135.827063 55.153721 
L 134.195633 55.153721 
L 132.564203 55.153721 
L 130.932773 56.163442 
L 129.301343 55.153721 
L 127.669913 55.153721 
L 126.038483 55.153721 
L 124.407053 55.153721 
L 122.775624 55.153721 
L 121.144194 55.153721 
L 119.512764 55.153721 
L 117.881334 55.153721 
L 116.249904 55.153721 
L 114.618474 55.153721 
L 112.987044 55.153721 
L 111.355614 55.153721 
L 109.724185 55.153721 
L 108.092755 55.153721 
L 106.461325 55.153721 
L 104.829895 55.153721 
L 103.198465 55.153721 
L 101.567035 55.153721 
L 99.935605 55.153721 
L 98.304175 55.153721 
L 96.672746 55.153721 
L 95.041316 55.153721 
L 93.409886 55.153721 
L 91.778456 55.153721 
L 90.147026 55.153721 
L 88.515596 55.153721 
L 86.884166 55.153721 
L 85.252736 55.153721 
L 83.621307 55.153721 
L 81.989877 55.153721 
L 80.358447 55.153721 
L 78.727017 55.153721 
L 77.095587 55.153721 
L 75.464157 55.153721 
L 73.832727 55.153721 
z
" style="fill:#e377c2;"/>
   </g>
   <g id="matplotlib.axis_1">
    <g id="xtick_1">
     <g id="line2d_1">
      <defs>
       <path d="M 0 0 
L 0 3.5 
" id="mf5d9c035c3" style="stroke:#000000;stroke-width:0.8;"/>
      </defs>
      <g>
       <use style="stroke:#000000;stroke-width:0.8;" x="73.832727" xlink:href="#mf5d9c035c3" y="307.584"/>
      </g>
     </g>
     <g id="text_1">
      <!-- 0 -->
      <g transform="translate(70.651477 322.182437)scale(0.1 -0.1)">
       <defs>
        <path d="M 2034 4250 
Q 1547 4250 1301 3770 
Q 1056 3291 1056 2328 
Q 1056 1369 1301 889 
Q 1547 409 2034 409 
Q 2525 409 2770 889 
Q 3016 1369 3016 2328 
Q 3016 3291 2770 3770 
Q 2525 4250 2034 4250 
z
M 2034 4750 
Q 2819 4750 3233 4129 
Q 3647 3509 3647 2328 
Q 3647 1150 3233 529 
Q 2819 -91 2034 -91 
Q 1250 -91 836 529 
Q 422 1150 422 2328 
Q 422 3509 836 4129 
Q 1250 4750 2034 4750 
z
" id="DejaVuSans-30" transform="scale(0.015625)"/>
       </defs>
       <use xlink:href="#DejaVuSans-30"/>
      </g>
     </g>
    </g>
    <g id="xtick_2">
     <g id="line2d_2">
      <g>
       <use style="stroke:#000000;stroke-width:0.8;" x="114.618474" xlink:href="#mf5d9c035c3" y="307.584"/>
      </g>
     </g>
     <g id="text_2">
      <!-- 25 -->
      <g transform="translate(108.255974 322.182437)scale(0.1 -0.1)">
       <defs>
        <path d="M 1228 531 
L 3431 531 
L 3431 0 
L 469 0 
L 469 531 
Q 828 903 1448 1529 
Q 2069 2156 2228 2338 
Q 2531 2678 2651 2914 
Q 2772 3150 2772 3378 
Q 2772 3750 2511 3984 
Q 2250 4219 1831 4219 
Q 1534 4219 1204 4116 
Q 875 4013 500 3803 
L 500 4441 
Q 881 4594 1212 4672 
Q 1544 4750 1819 4750 
Q 2544 4750 2975 4387 
Q 3406 4025 3406 3419 
Q 3406 3131 3298 2873 
Q 3191 2616 2906 2266 
Q 2828 2175 2409 1742 
Q 1991 1309 1228 531 
z
" id="DejaVuSans-32" transform="scale(0.015625)"/>
        <path d="M 691 4666 
L 3169 4666 
L 3169 4134 
L 1269 4134 
L 1269 2991 
Q 1406 3038 1543 3061 
Q 1681 3084 1819 3084 
Q 2600 3084 3056 2656 
Q 3513 2228 3513 1497 
Q 3513 744 3044 326 
Q 2575 -91 1722 -91 
Q 1428 -91 1123 -41 
Q 819 9 494 109 
L 494 744 
Q 775 591 1075 516 
Q 1375 441 1709 441 
Q 2250 441 2565 725 
Q 2881 1009 2881 1497 
Q 2881 1984 2565 2268 
Q 2250 2553 1709 2553 
Q 1456 2553 1204 2497 
Q 953 2441 691 2322 
L 691 4666 
z
" id="DejaVuSans-35" transform="scale(0.015625)"/>
       </defs>
       <use xlink:href="#DejaVuSans-32"/>
       <use x="63.623047" xlink:href="#DejaVuSans-35"/>
      </g>
     </g>
    </g>
    <g id="xtick_3">
     <g id="line2d_3">
      <g>
       <use style="stroke:#000000;stroke-width:0.8;" x="155.404221" xlink:href="#mf5d9c035c3" y="307.584"/>
      </g>
     </g>
     <g id="text_3">
      <!-- 50 -->
      <g transform="translate(149.041721 322.182437)scale(0.1 -0.1)">
       <use xlink:href="#DejaVuSans-35"/>
       <use x="63.623047" xlink:href="#DejaVuSans-30"/>
      </g>
     </g>
    </g>
    <g id="xtick_4">
     <g id="line2d_4">
      <g>
       <use style="stroke:#000000;stroke-width:0.8;" x="196.189968" xlink:href="#mf5d9c035c3" y="307.584"/>
      </g>
     </g>
     <g id="text_4">
      <!-- 75 -->
      <g transform="translate(189.827468 322.182437)scale(0.1 -0.1)">
       <defs>
        <path d="M 525 4666 
L 3525 4666 
L 3525 4397 
L 1831 0 
L 1172 0 
L 2766 4134 
L 525 4134 
L 525 4666 
z
" id="DejaVuSans-37" transform="scale(0.015625)"/>
       </defs>
       <use xlink:href="#DejaVuSans-37"/>
       <use x="63.623047" xlink:href="#DejaVuSans-35"/>
      </g>
     </g>
    </g>
    <g id="xtick_5">
     <g id="line2d_5">
      <g>
       <use style="stroke:#000000;stroke-width:0.8;" x="236.975715" xlink:href="#mf5d9c035c3" y="307.584"/>
      </g>
     </g>
     <g id="text_5">
      <!-- 100 -->
      <g transform="translate(227.431965 322.182437)scale(0.1 -0.1)">
       <defs>
        <path d="M 794 531 
L 1825 531 
L 1825 4091 
L 703 3866 
L 703 4441 
L 1819 4666 
L 2450 4666 
L 2450 531 
L 3481 531 
L 3481 0 
L 794 0 
L 794 531 
z
" id="DejaVuSans-31" transform="scale(0.015625)"/>
       </defs>
       <use xlink:href="#DejaVuSans-31"/>
       <use x="63.623047" xlink:href="#DejaVuSans-30"/>
       <use x="127.246094" xlink:href="#DejaVuSans-30"/>
      </g>
     </g>
    </g>
    <g id="xtick_6">
     <g id="line2d_6">
      <g>
       <use style="stroke:#000000;stroke-width:0.8;" x="277.761462" xlink:href="#mf5d9c035c3" y="307.584"/>
      </g>
     </g>
     <g id="text_6">
      <!-- 125 -->
      <g transform="translate(268.217712 322.182437)scale(0.1 -0.1)">
       <use xlink:href="#DejaVuSans-31"/>
       <use x="63.623047" xlink:href="#DejaVuSans-32"/>
       <use x="127.246094" xlink:href="#DejaVuSans-35"/>
      </g>
     </g>
    </g>
    <g id="xtick_7">
     <g id="line2d_7">
      <g>
       <use style="stroke:#000000;stroke-width:0.8;" x="318.547209" xlink:href="#mf5d9c035c3" y="307.584"/>
      </g>
     </g>
     <g id="text_7">
      <!-- 150 -->
      <g transform="translate(309.003459 322.182437)scale(0.1 -0.1)">
       <use xlink:href="#DejaVuSans-31"/>
       <use x="63.623047" xlink:href="#DejaVuSans-35"/>
       <use x="127.246094" xlink:href="#DejaVuSans-30"/>
      </g>
     </g>
    </g>
    <g id="xtick_8">
     <g id="line2d_8">
      <g>
       <use style="stroke:#000000;stroke-width:0.8;" x="359.332956" xlink:href="#mf5d9c035c3" y="307.584"/>
      </g>
     </g>
     <g id="text_8">
      <!-- 175 -->
      <g transform="translate(349.789206 322.182437)scale(0.1 -0.1)">
       <use xlink:href="#DejaVuSans-31"/>
       <use x="63.623047" xlink:href="#DejaVuSans-37"/>
       <use x="127.246094" xlink:href="#DejaVuSans-35"/>
      </g>
     </g>
    </g>
    <g id="xtick_9">
     <g id="line2d_9">
      <g>
       <use style="stroke:#000000;stroke-width:0.8;" x="400.118703" xlink:href="#mf5d9c035c3" y="307.584"/>
      </g>
     </g>
     <g id="text_9">
      <!-- 200 -->
      <g transform="translate(390.574953 322.182437)scale(0.1 -0.1)">
       <use xlink:href="#DejaVuSans-32"/>
       <use x="63.623047" xlink:href="#DejaVuSans-30"/>
       <use x="127.246094" xlink:href="#DejaVuSans-30"/>
      </g>
     </g>
    </g>
    <g id="text_10">
     <!-- Generations -->
     <g transform="translate(205.662344 335.860562)scale(0.1 -0.1)">
      <defs>
       <path d="M 3809 666 
L 3809 1919 
L 2778 1919 
L 2778 2438 
L 4434 2438 
L 4434 434 
Q 4069 175 3628 42 
Q 3188 -91 2688 -91 
Q 1594 -91 976 548 
Q 359 1188 359 2328 
Q 359 3472 976 4111 
Q 1594 4750 2688 4750 
Q 3144 4750 3555 4637 
Q 3966 4525 4313 4306 
L 4313 3634 
Q 3963 3931 3569 4081 
Q 3175 4231 2741 4231 
Q 1884 4231 1454 3753 
Q 1025 3275 1025 2328 
Q 1025 1384 1454 906 
Q 1884 428 2741 428 
Q 3075 428 3337 486 
Q 3600 544 3809 666 
z
" id="DejaVuSans-47" transform="scale(0.015625)"/>
       <path d="M 3597 1894 
L 3597 1613 
L 953 1613 
Q 991 1019 1311 708 
Q 1631 397 2203 397 
Q 2534 397 2845 478 
Q 3156 559 3463 722 
L 3463 178 
Q 3153 47 2828 -22 
Q 2503 -91 2169 -91 
Q 1331 -91 842 396 
Q 353 884 353 1716 
Q 353 2575 817 3079 
Q 1281 3584 2069 3584 
Q 2775 3584 3186 3129 
Q 3597 2675 3597 1894 
z
M 3022 2063 
Q 3016 2534 2758 2815 
Q 2500 3097 2075 3097 
Q 1594 3097 1305 2825 
Q 1016 2553 972 2059 
L 3022 2063 
z
" id="DejaVuSans-65" transform="scale(0.015625)"/>
       <path d="M 3513 2113 
L 3513 0 
L 2938 0 
L 2938 2094 
Q 2938 2591 2744 2837 
Q 2550 3084 2163 3084 
Q 1697 3084 1428 2787 
Q 1159 2491 1159 1978 
L 1159 0 
L 581 0 
L 581 3500 
L 1159 3500 
L 1159 2956 
Q 1366 3272 1645 3428 
Q 1925 3584 2291 3584 
Q 2894 3584 3203 3211 
Q 3513 2838 3513 2113 
z
" id="DejaVuSans-6e" transform="scale(0.015625)"/>
       <path d="M 2631 2963 
Q 2534 3019 2420 3045 
Q 2306 3072 2169 3072 
Q 1681 3072 1420 2755 
Q 1159 2438 1159 1844 
L 1159 0 
L 581 0 
L 581 3500 
L 1159 3500 
L 1159 2956 
Q 1341 3275 1631 3429 
Q 1922 3584 2338 3584 
Q 2397 3584 2469 3576 
Q 2541 3569 2628 3553 
L 2631 2963 
z
" id="DejaVuSans-72" transform="scale(0.015625)"/>
       <path d="M 2194 1759 
Q 1497 1759 1228 1600 
Q 959 1441 959 1056 
Q 959 750 1161 570 
Q 1363 391 1709 391 
Q 2188 391 2477 730 
Q 2766 1069 2766 1631 
L 2766 1759 
L 2194 1759 
z
M 3341 1997 
L 3341 0 
L 2766 0 
L 2766 531 
Q 2569 213 2275 61 
Q 1981 -91 1556 -91 
Q 1019 -91 701 211 
Q 384 513 384 1019 
Q 384 1609 779 1909 
Q 1175 2209 1959 2209 
L 2766 2209 
L 2766 2266 
Q 2766 2663 2505 2880 
Q 2244 3097 1772 3097 
Q 1472 3097 1187 3025 
Q 903 2953 641 2809 
L 641 3341 
Q 956 3463 1253 3523 
Q 1550 3584 1831 3584 
Q 2591 3584 2966 3190 
Q 3341 2797 3341 1997 
z
" id="DejaVuSans-61" transform="scale(0.015625)"/>
       <path d="M 1172 4494 
L 1172 3500 
L 2356 3500 
L 2356 3053 
L 1172 3053 
L 1172 1153 
Q 1172 725 1289 603 
Q 1406 481 1766 481 
L 2356 481 
L 2356 0 
L 1766 0 
Q 1100 0 847 248 
Q 594 497 594 1153 
L 594 3053 
L 172 3053 
L 172 3500 
L 594 3500 
L 594 4494 
L 1172 4494 
z
" id="DejaVuSans-74" transform="scale(0.015625)"/>
       <path d="M 603 3500 
L 1178 3500 
L 1178 0 
L 603 0 
L 603 3500 
z
M 603 4863 
L 1178 4863 
L 1178 4134 
L 603 4134 
L 603 4863 
z
" id="DejaVuSans-69" transform="scale(0.015625)"/>
       <path d="M 1959 3097 
Q 1497 3097 1228 2736 
Q 959 2375 959 1747 
Q 959 1119 1226 758 
Q 1494 397 1959 397 
Q 2419 397 2687 759 
Q 2956 1122 2956 1747 
Q 2956 2369 2687 2733 
Q 2419 3097 1959 3097 
z
M 1959 3584 
Q 2709 3584 3137 3096 
Q 3566 2609 3566 1747 
Q 3566 888 3137 398 
Q 2709 -91 1959 -91 
Q 1206 -91 779 398 
Q 353 888 353 1747 
Q 353 2609 779 3096 
Q 1206 3584 1959 3584 
z
" id="DejaVuSans-6f" transform="scale(0.015625)"/>
       <path d="M 2834 3397 
L 2834 2853 
Q 2591 2978 2328 3040 
Q 2066 3103 1784 3103 
Q 1356 3103 1142 2972 
Q 928 2841 928 2578 
Q 928 2378 1081 2264 
Q 1234 2150 1697 2047 
L 1894 2003 
Q 2506 1872 2764 1633 
Q 3022 1394 3022 966 
Q 3022 478 2636 193 
Q 2250 -91 1575 -91 
Q 1294 -91 989 -36 
Q 684 19 347 128 
L 347 722 
Q 666 556 975 473 
Q 1284 391 1588 391 
Q 1994 391 2212 530 
Q 2431 669 2431 922 
Q 2431 1156 2273 1281 
Q 2116 1406 1581 1522 
L 1381 1569 
Q 847 1681 609 1914 
Q 372 2147 372 2553 
Q 372 3047 722 3315 
Q 1072 3584 1716 3584 
Q 2034 3584 2315 3537 
Q 2597 3491 2834 3397 
z
" id="DejaVuSans-73" transform="scale(0.015625)"/>
      </defs>
      <use xlink:href="#DejaVuSans-47"/>
      <use x="77.490234" xlink:href="#DejaVuSans-65"/>
      <use x="139.013672" xlink:href="#DejaVuSans-6e"/>
      <use x="202.392578" xlink:href="#DejaVuSans-65"/>
      <use x="263.916016" xlink:href="#DejaVuSans-72"/>
      <use x="305.029297" xlink:href="#DejaVuSans-61"/>
      <use x="366.308594" xlink:href="#DejaVuSans-74"/>
      <use x="405.517578" xlink:href="#DejaVuSans-69"/>
      <use x="433.300781" xlink:href="#DejaVuSans-6f"/>
      <use x="494.482422" xlink:href="#DejaVuSans-6e"/>
      <use x="557.861328" xlink:href="#DejaVuSans-73"/>
     </g>
    </g>
   </g>
   <g id="matplotlib.axis_2">
    <g id="ytick_1">
     <g id="line2d_10">
      <defs>
       <path d="M 0 0 
L -3.5 0 
" id="m6efa91c836" style="stroke:#000000;stroke-width:0.8;"/>
      </defs>
      <g>
       <use style="stroke:#000000;stroke-width:0.8;" x="57.6" xlink:href="#m6efa91c836" y="307.584"/>
      </g>
     </g>
     <g id="text_11">
      <!-- 0 -->
      <g transform="translate(44.2375 311.383219)scale(0.1 -0.1)">
       <use xlink:href="#DejaVuSans-30"/>
      </g>
     </g>
    </g>
    <g id="ytick_2">
     <g id="line2d_11">
      <g>
       <use style="stroke:#000000;stroke-width:0.8;" x="57.6" xlink:href="#m6efa91c836" y="257.097944"/>
      </g>
     </g>
     <g id="text_12">
      <!-- 50 -->
      <g transform="translate(37.875 260.897163)scale(0.1 -0.1)">
       <use xlink:href="#DejaVuSans-35"/>
       <use x="63.623047" xlink:href="#DejaVuSans-30"/>
      </g>
     </g>
    </g>
    <g id="ytick_3">
     <g id="line2d_12">
      <g>
       <use style="stroke:#000000;stroke-width:0.8;" x="57.6" xlink:href="#m6efa91c836" y="206.611888"/>
      </g>
     </g>
     <g id="text_13">
      <!-- 100 -->
      <g transform="translate(31.5125 210.411107)scale(0.1 -0.1)">
       <use xlink:href="#DejaVuSans-31"/>
       <use x="63.623047" xlink:href="#DejaVuSans-30"/>
       <use x="127.246094" xlink:href="#DejaVuSans-30"/>
      </g>
     </g>
    </g>
    <g id="ytick_4">
     <g id="line2d_13">
      <g>
       <use style="stroke:#000000;stroke-width:0.8;" x="57.6" xlink:href="#m6efa91c836" y="156.125833"/>
      </g>
     </g>
     <g id="text_14">
      <!-- 150 -->
      <g transform="translate(31.5125 159.925051)scale(0.1 -0.1)">
       <use xlink:href="#DejaVuSans-31"/>
       <use x="63.623047" xlink:href="#DejaVuSans-35"/>
       <use x="127.246094" xlink:href="#DejaVuSans-30"/>
      </g>
     </g>
    </g>
    <g id="ytick_5">
     <g id="line2d_14">
      <g>
       <use style="stroke:#000000;stroke-width:0.8;" x="57.6" xlink:href="#m6efa91c836" y="105.639777"/>
      </g>
     </g>
     <g id="text_15">
      <!-- 200 -->
      <g transform="translate(31.5125 109.438996)scale(0.1 -0.1)">
       <use xlink:href="#DejaVuSans-32"/>
       <use x="63.623047" xlink:href="#DejaVuSans-30"/>
       <use x="127.246094" xlink:href="#DejaVuSans-30"/>
      </g>
     </g>
    </g>
    <g id="ytick_6">
     <g id="line2d_15">
      <g>
       <use style="stroke:#000000;stroke-width:0.8;" x="57.6" xlink:href="#m6efa91c836" y="55.153721"/>
      </g>
     </g>
     <g id="text_16">
      <!-- 250 -->
      <g transform="translate(31.5125 58.95294)scale(0.1 -0.1)">
       <use xlink:href="#DejaVuSans-32"/>
       <use x="63.623047" xlink:href="#DejaVuSans-35"/>
       <use x="127.246094" xlink:href="#DejaVuSans-30"/>
      </g>
     </g>
    </g>
    <g id="text_17">
     <!-- Size per Species -->
     <g transform="translate(25.432812 215.520969)rotate(-90)scale(0.1 -0.1)">
      <defs>
       <path d="M 3425 4513 
L 3425 3897 
Q 3066 4069 2747 4153 
Q 2428 4238 2131 4238 
Q 1616 4238 1336 4038 
Q 1056 3838 1056 3469 
Q 1056 3159 1242 3001 
Q 1428 2844 1947 2747 
L 2328 2669 
Q 3034 2534 3370 2195 
Q 3706 1856 3706 1288 
Q 3706 609 3251 259 
Q 2797 -91 1919 -91 
Q 1588 -91 1214 -16 
Q 841 59 441 206 
L 441 856 
Q 825 641 1194 531 
Q 1563 422 1919 422 
Q 2459 422 2753 634 
Q 3047 847 3047 1241 
Q 3047 1584 2836 1778 
Q 2625 1972 2144 2069 
L 1759 2144 
Q 1053 2284 737 2584 
Q 422 2884 422 3419 
Q 422 4038 858 4394 
Q 1294 4750 2059 4750 
Q 2388 4750 2728 4690 
Q 3069 4631 3425 4513 
z
" id="DejaVuSans-53" transform="scale(0.015625)"/>
       <path d="M 353 3500 
L 3084 3500 
L 3084 2975 
L 922 459 
L 3084 459 
L 3084 0 
L 275 0 
L 275 525 
L 2438 3041 
L 353 3041 
L 353 3500 
z
" id="DejaVuSans-7a" transform="scale(0.015625)"/>
       <path id="DejaVuSans-20" transform="scale(0.015625)"/>
       <path d="M 1159 525 
L 1159 -1331 
L 581 -1331 
L 581 3500 
L 1159 3500 
L 1159 2969 
Q 1341 3281 1617 3432 
Q 1894 3584 2278 3584 
Q 2916 3584 3314 3078 
Q 3713 2572 3713 1747 
Q 3713 922 3314 415 
Q 2916 -91 2278 -91 
Q 1894 -91 1617 61 
Q 1341 213 1159 525 
z
M 3116 1747 
Q 3116 2381 2855 2742 
Q 2594 3103 2138 3103 
Q 1681 3103 1420 2742 
Q 1159 2381 1159 1747 
Q 1159 1113 1420 752 
Q 1681 391 2138 391 
Q 2594 391 2855 752 
Q 3116 1113 3116 1747 
z
" id="DejaVuSans-70" transform="scale(0.015625)"/>
       <path d="M 3122 3366 
L 3122 2828 
Q 2878 2963 2633 3030 
Q 2388 3097 2138 3097 
Q 1578 3097 1268 2742 
Q 959 2388 959 1747 
Q 959 1106 1268 751 
Q 1578 397 2138 397 
Q 2388 397 2633 464 
Q 2878 531 3122 666 
L 3122 134 
Q 2881 22 2623 -34 
Q 2366 -91 2075 -91 
Q 1284 -91 818 406 
Q 353 903 353 1747 
Q 353 2603 823 3093 
Q 1294 3584 2113 3584 
Q 2378 3584 2631 3529 
Q 2884 3475 3122 3366 
z
" id="DejaVuSans-63" transform="scale(0.015625)"/>
      </defs>
      <use xlink:href="#DejaVuSans-53"/>
      <use x="63.476562" xlink:href="#DejaVuSans-69"/>
      <use x="91.259766" xlink:href="#DejaVuSans-7a"/>
      <use x="143.75" xlink:href="#DejaVuSans-65"/>
      <use x="205.273438" xlink:href="#DejaVuSans-20"/>
      <use x="237.060547" xlink:href="#DejaVuSans-70"/>
      <use x="300.537109" xlink:href="#DejaVuSans-65"/>
      <use x="362.060547" xlink:href="#DejaVuSans-72"/>
      <use x="403.173828" xlink:href="#DejaVuSans-20"/>
      <use x="434.960938" xlink:href="#DejaVuSans-53"/>
      <use x="498.4375" xlink:href="#DejaVuSans-70"/>
      <use x="561.914062" xlink:href="#DejaVuSans-65"/>
      <use x="623.4375" xlink:href="#DejaVuSans-63"/>
      <use x="678.417969" xlink:href="#DejaVuSans-69"/>
      <use x="706.201172" xlink:href="#DejaVuSans-65"/>
      <use x="767.724609" xlink:href="#DejaVuSans-73"/>
     </g>
    </g>
   </g>
   <g id="patch_3">
    <path d="M 57.6 307.584 
L 57.6 41.472 
" style="fill:none;stroke:#000000;stroke-linecap:square;stroke-linejoin:miter;stroke-width:0.8;"/>
   </g>
   <g id="patch_4">
    <path d="M 414.72 307.584 
L 414.72 41.472 
" style="fill:none;stroke:#000000;stroke-linecap:square;stroke-linejoin:miter;stroke-width:0.8;"/>
   </g>
   <g id="patch_5">
    <path d="M 57.6 307.584 
L 414.72 307.584 
" style="fill:none;stroke:#000000;stroke-linecap:square;stroke-linejoin:miter;stroke-width:0.8;"/>
   </g>
   <g id="patch_6">
    <path d="M 57.6 41.472 
L 414.72 41.472 
" style="fill:none;stroke:#000000;stroke-linecap:square;stroke-linejoin:miter;stroke-width:0.8;"/>
   </g>
   <g id="text_18">
    <!-- Speciation -->
    <g transform="translate(204.714375 35.472)scale(0.12 -0.12)">
     <use xlink:href="#DejaVuSans-53"/>
     <use x="63.476562" xlink:href="#DejaVuSans-70"/>
     <use x="126.953125" xlink:href="#DejaVuSans-65"/>
     <use x="188.476562" xlink:href="#DejaVuSans-63"/>
     <use x="243.457031" xlink:href="#DejaVuSans-69"/>
     <use x="271.240234" xlink:href="#DejaVuSans-61"/>
     <use x="332.519531" xlink:href="#DejaVuSans-74"/>
     <use x="371.728516" xlink:href="#DejaVuSans-69"/>
     <use x="399.511719" xlink:href="#DejaVuSans-6f"/>
     <use x="460.693359" xlink:href="#DejaVuSans-6e"/>
    </g>
   </g>
  </g>
 </g>
 <defs>
  <clipPath id="pc2a7003981">
   <rect height="266.112" width="357.12" x="57.6" y="41.472"/>
  </clipPath>
 </defs>
</svg>
