<?xml version="1.0" encoding="UTF-8" standalone="no"?>
<!DOCTYPE svg PUBLIC "-//W3C//DTD SVG 1.1//EN"
 "http://www.w3.org/Graphics/SVG/1.1/DTD/svg11.dtd">
<!-- Generated by graphviz version 2.50.0 (20211204.2007)
 -->
<!-- Pages: 1 -->
<svg width="597pt" height="145pt"
 viewBox="0.00 0.00 597.00 145.44" xmlns="http://www.w3.org/2000/svg" xmlns:xlink="http://www.w3.org/1999/xlink">
<g id="graph0" class="graph" transform="scale(1 1) rotate(0) translate(4 141.44)">
<polygon fill="white" stroke="transparent" points="-4,4 -4,-141.44 593,-141.44 593,4 -4,4"/>
<!-- RF_R -->
<g id="node1" class="node">
<title>RF_R</title>
<polygon fill="lightgray" stroke="black" points="102,-137.44 64,-137.44 64,-119.44 102,-119.44 102,-137.44"/>
<text text-anchor="middle" x="83" y="-126.24" font-family="Times,serif" font-size="9.00">RF_R</text>
</g>
<!-- VEL -->
<g id="node12" class="node">
<title>VEL</title>
<ellipse fill="lightblue" stroke="black" cx="167" cy="-41.72" rx="24.08" ry="24.08"/>
<text text-anchor="middle" x="167" y="-39.52" font-family="Times,serif" font-size="9.00">VEL</text>
</g>
<!-- RF_R&#45;&gt;VEL -->
<g id="edge10" class="edge">
<title>RF_R&#45;&gt;VEL</title>
<path fill="none" stroke="green" stroke-width="0.32" d="M91.05,-119.32C102.98,-107.28 125.82,-84.25 143.35,-66.57"/>
<polygon fill="green" stroke="green" stroke-width="0.32" points="145.94,-68.93 150.5,-59.37 140.97,-64 145.94,-68.93"/>
</g>
<!-- RF_FR -->
<g id="node2" class="node">
<title>RF_FR</title>
<polygon fill="lightgray" stroke="black" points="338,-137.44 294,-137.44 294,-119.44 338,-119.44 338,-137.44"/>
<text text-anchor="middle" x="316" y="-126.24" font-family="Times,serif" font-size="9.00">RF_FR</text>
</g>
<!-- ANG_VEL -->
<g id="node11" class="node">
<title>ANG_VEL</title>
<ellipse fill="lightblue" stroke="black" cx="375" cy="-41.72" rx="41.94" ry="41.94"/>
<text text-anchor="middle" x="375" y="-39.52" font-family="Times,serif" font-size="9.00">ANG_VEL</text>
</g>
<!-- RF_FR&#45;&gt;ANG_VEL -->
<g id="edge8" class="edge">
<title>RF_FR&#45;&gt;ANG_VEL</title>
<path fill="none" stroke="red" stroke-width="0.32" d="M321.66,-119.32C327.29,-111.23 336.38,-98.17 345.48,-85.11"/>
<polygon fill="red" stroke="red" stroke-width="0.32" points="348.58,-86.79 351.42,-76.58 342.83,-82.79 348.58,-86.79"/>
</g>
<!-- RF_FR&#45;&gt;VEL -->
<g id="edge3" class="edge">
<title>RF_FR&#45;&gt;VEL</title>
<path fill="none" stroke="green" stroke-width="0.52" d="M301.71,-119.32C277.58,-105.59 228.28,-77.56 196.48,-59.48"/>
<polygon fill="green" stroke="green" stroke-width="0.52" points="198.04,-56.34 187.62,-54.44 194.58,-62.43 198.04,-56.34"/>
</g>
<!-- RF_F -->
<g id="node3" class="node">
<title>RF_F</title>
<polygon fill="lightgray" stroke="black" points="158,-137.44 120,-137.44 120,-119.44 158,-119.44 158,-137.44"/>
<text text-anchor="middle" x="139" y="-126.24" font-family="Times,serif" font-size="9.00">RF_F</text>
</g>
<!-- RF_F&#45;&gt;VEL -->
<g id="edge5" class="edge">
<title>RF_F&#45;&gt;VEL</title>
<path fill="none" stroke="green" stroke-width="0.15" d="M141.68,-119.32C145.09,-109.03 151.15,-90.69 156.49,-74.53"/>
<polygon fill="green" stroke="green" stroke-width="0.15" points="159.87,-75.44 159.69,-64.85 153.22,-73.25 159.87,-75.44"/>
</g>
<!-- RF_FL -->
<g id="node4" class="node">
<title>RF_FL</title>
<polygon fill="lightgray" stroke="black" points="275.5,-137.44 232.5,-137.44 232.5,-119.44 275.5,-119.44 275.5,-137.44"/>
<text text-anchor="middle" x="254" y="-126.24" font-family="Times,serif" font-size="9.00">RF_FL</text>
</g>
<!-- RF_FL&#45;&gt;ANG_VEL -->
<g id="edge6" class="edge">
<title>RF_FL&#45;&gt;ANG_VEL</title>
<path fill="none" stroke="red" stroke-width="0.59" d="M265.6,-119.32C281,-108.53 309.02,-88.92 332.84,-72.23"/>
<polygon fill="red" stroke="red" stroke-width="0.59" points="334.89,-75.08 341.07,-66.48 330.87,-69.34 334.89,-75.08"/>
</g>
<!-- RF_FL&#45;&gt;VEL -->
<g id="edge1" class="edge">
<title>RF_FL&#45;&gt;VEL</title>
<path fill="none" stroke="red" stroke-width="0.19" d="M245.66,-119.32C233.23,-107.21 209.36,-83.97 191.16,-66.25"/>
<polygon fill="red" stroke="red" stroke-width="0.19" points="193.37,-63.51 183.76,-59.04 188.48,-68.52 193.37,-63.51"/>
</g>
<!-- RF_L -->
<g id="node5" class="node">
<title>RF_L</title>
<polygon fill="lightgray" stroke="black" points="214,-137.44 176,-137.44 176,-119.44 214,-119.44 214,-137.44"/>
<text text-anchor="middle" x="195" y="-126.24" font-family="Times,serif" font-size="9.00">RF_L</text>
</g>
<!-- RF_L&#45;&gt;VEL -->
<g id="edge9" class="edge">
<title>RF_L&#45;&gt;VEL</title>
<path fill="none" stroke="red" stroke-width="0.21" d="M192.32,-119.32C188.91,-109.03 182.85,-90.69 177.51,-74.53"/>
<polygon fill="red" stroke="red" stroke-width="0.21" points="180.78,-73.25 174.31,-64.85 174.13,-75.44 180.78,-73.25"/>
</g>
<!-- RF_B -->
<g id="node6" class="node">
<title>RF_B</title>
<polygon fill="lightgray" stroke="black" points="394,-137.44 356,-137.44 356,-119.44 394,-119.44 394,-137.44"/>
<text text-anchor="middle" x="375" y="-126.24" font-family="Times,serif" font-size="9.00">RF_B</text>
</g>
<!-- RF_B&#45;&gt;ANG_VEL -->
<g id="edge2" class="edge">
<title>RF_B&#45;&gt;ANG_VEL</title>
<path fill="none" stroke="red" stroke-width="0.12" d="M375,-119.32C375,-113.04 375,-103.77 375,-93.83"/>
<polygon fill="red" stroke="red" stroke-width="0.12" points="378.5,-93.75 375,-83.75 371.5,-93.75 378.5,-93.75"/>
</g>
<!-- RAD_F -->
<g id="node7" class="node">
<title>RAD_F</title>
<polygon fill="lightgray" stroke="black" points="46,-137.44 0,-137.44 0,-119.44 46,-119.44 46,-137.44"/>
<text text-anchor="middle" x="23" y="-126.24" font-family="Times,serif" font-size="9.00">RAD_F</text>
</g>
<!-- RAD_F&#45;&gt;VEL -->
<g id="edge11" class="edge">
<title>RAD_F&#45;&gt;VEL</title>
<path fill="none" stroke="red" stroke-width="0.27" d="M36.81,-119.32C59.9,-105.73 106.85,-78.11 137.61,-60.01"/>
<polygon fill="red" stroke="red" stroke-width="0.27" points="139.74,-62.82 146.59,-54.73 136.19,-56.78 139.74,-62.82"/>
</g>
<!-- RAD_L -->
<g id="node8" class="node">
<title>RAD_L</title>
<polygon fill="lightgray" stroke="black" points="589,-137.44 543,-137.44 543,-119.44 589,-119.44 589,-137.44"/>
<text text-anchor="middle" x="566" y="-126.24" font-family="Times,serif" font-size="9.00">RAD_L</text>
</g>
<!-- RAD_B -->
<g id="node9" class="node">
<title>RAD_B</title>
<polygon fill="lightgray" stroke="black" points="459.5,-137.44 412.5,-137.44 412.5,-119.44 459.5,-119.44 459.5,-137.44"/>
<text text-anchor="middle" x="436" y="-126.24" font-family="Times,serif" font-size="9.00">RAD_B</text>
</g>
<!-- RAD_B&#45;&gt;ANG_VEL -->
<g id="edge4" class="edge">
<title>RAD_B&#45;&gt;ANG_VEL</title>
<path fill="none" stroke="red" stroke-width="0.1" d="M430.15,-119.32C424.22,-111.08 414.59,-97.7 405.02,-84.41"/>
<polygon fill="red" stroke="red" stroke-width="0.1" points="407.78,-82.26 399.1,-76.19 402.1,-86.35 407.78,-82.26"/>
</g>
<!-- RAD_R -->
<g id="node10" class="node">
<title>RAD_R</title>
<polygon fill="lightgray" stroke="black" points="524.5,-137.44 477.5,-137.44 477.5,-119.44 524.5,-119.44 524.5,-137.44"/>
<text text-anchor="middle" x="501" y="-126.24" font-family="Times,serif" font-size="9.00">RAD_R</text>
</g>
<!-- RAD_R&#45;&gt;ANG_VEL -->
<g id="edge7" class="edge">
<title>RAD_R&#45;&gt;ANG_VEL</title>
<path fill="none" stroke="red" stroke-width="0.33" d="M488.92,-119.32C472.66,-108.39 442.9,-88.38 417.88,-71.55"/>
<polygon fill="red" stroke="red" stroke-width="0.33" points="419.5,-68.42 409.25,-65.75 415.6,-74.23 419.5,-68.42"/>
</g>
</g>
</svg>
