<?xml version="1.0" encoding="UTF-8" standalone="no"?>
<!DOCTYPE svg PUBLIC "-//W3C//DTD SVG 1.1//EN"
 "http://www.w3.org/Graphics/SVG/1.1/DTD/svg11.dtd">
<!-- Generated by graphviz version 2.50.0 (20211204.2007)
 -->
<!-- Pages: 1 -->
<svg width="598pt" height="145pt"
 viewBox="0.00 0.00 597.50 145.44" xmlns="http://www.w3.org/2000/svg" xmlns:xlink="http://www.w3.org/1999/xlink">
<g id="graph0" class="graph" transform="scale(1 1) rotate(0) translate(4 141.44)">
<polygon fill="white" stroke="transparent" points="-4,4 -4,-141.44 593.5,-141.44 593.5,4 -4,4"/>
<!-- RF_R -->
<g id="node1" class="node">
<title>RF_R</title>
<polygon fill="lightgray" stroke="black" points="156,-137.44 118,-137.44 118,-119.44 156,-119.44 156,-137.44"/>
<text text-anchor="middle" x="137" y="-126.24" font-family="Times,serif" font-size="9.00">RF_R</text>
</g>
<!-- ANG_VEL -->
<g id="node11" class="node">
<title>ANG_VEL</title>
<ellipse fill="lightblue" stroke="black" cx="109" cy="-41.72" rx="41.94" ry="41.94"/>
<text text-anchor="middle" x="109" y="-39.52" font-family="Times,serif" font-size="9.00">ANG_VEL</text>
</g>
<!-- RF_R&#45;&gt;ANG_VEL -->
<g id="edge3" class="edge">
<title>RF_R&#45;&gt;ANG_VEL</title>
<path fill="none" stroke="red" stroke-width="0.16" d="M134.32,-119.32C132.07,-112.52 128.67,-102.23 125.08,-91.37"/>
<polygon fill="red" stroke="red" stroke-width="0.16" points="128.36,-90.15 121.9,-81.75 121.71,-92.34 128.36,-90.15"/>
</g>
<!-- VEL -->
<g id="node12" class="node">
<title>VEL</title>
<ellipse fill="lightblue" stroke="black" cx="283" cy="-41.72" rx="24.08" ry="24.08"/>
<text text-anchor="middle" x="283" y="-39.52" font-family="Times,serif" font-size="9.00">VEL</text>
</g>
<!-- RF_R&#45;&gt;VEL -->
<g id="edge8" class="edge">
<title>RF_R&#45;&gt;VEL</title>
<path fill="none" stroke="green" stroke-width="0.13" d="M151,-119.32C174.51,-105.67 222.43,-77.87 253.6,-59.78"/>
<polygon fill="green" stroke="green" stroke-width="0.13" points="255.41,-62.78 262.3,-54.73 251.9,-56.72 255.41,-62.78"/>
</g>
<!-- RF_FR -->
<g id="node2" class="node">
<title>RF_FR</title>
<polygon fill="lightgray" stroke="black" points="44,-137.44 0,-137.44 0,-119.44 44,-119.44 44,-137.44"/>
<text text-anchor="middle" x="22" y="-126.24" font-family="Times,serif" font-size="9.00">RF_FR</text>
</g>
<!-- RF_FR&#45;&gt;ANG_VEL -->
<g id="edge7" class="edge">
<title>RF_FR&#45;&gt;ANG_VEL</title>
<path fill="none" stroke="red" stroke-width="0.18" d="M30.34,-119.32C39.99,-109.92 56.53,-93.81 71.97,-78.78"/>
<polygon fill="red" stroke="red" stroke-width="0.18" points="74.69,-81.01 79.42,-71.53 69.81,-76 74.69,-81.01"/>
</g>
<!-- RF_F -->
<g id="node3" class="node">
<title>RF_F</title>
<polygon fill="lightgray" stroke="black" points="524,-137.44 486,-137.44 486,-119.44 524,-119.44 524,-137.44"/>
<text text-anchor="middle" x="505" y="-126.24" font-family="Times,serif" font-size="9.00">RF_F</text>
</g>
<!-- RF_FL -->
<g id="node4" class="node">
<title>RF_FL</title>
<polygon fill="lightgray" stroke="black" points="273.5,-137.44 230.5,-137.44 230.5,-119.44 273.5,-119.44 273.5,-137.44"/>
<text text-anchor="middle" x="252" y="-126.24" font-family="Times,serif" font-size="9.00">RF_FL</text>
</g>
<!-- RF_FL&#45;&gt;VEL -->
<g id="edge2" class="edge">
<title>RF_FL&#45;&gt;VEL</title>
<path fill="none" stroke="green" stroke-width="0.38" d="M254.97,-119.32C258.76,-108.96 265.54,-90.44 271.48,-74.21"/>
<polygon fill="green" stroke="green" stroke-width="0.38" points="274.88,-75.09 275.03,-64.49 268.31,-72.68 274.88,-75.09"/>
</g>
<!-- RF_L -->
<g id="node5" class="node">
<title>RF_L</title>
<polygon fill="lightgray" stroke="black" points="100,-137.44 62,-137.44 62,-119.44 100,-119.44 100,-137.44"/>
<text text-anchor="middle" x="81" y="-126.24" font-family="Times,serif" font-size="9.00">RF_L</text>
</g>
<!-- RF_L&#45;&gt;ANG_VEL -->
<g id="edge6" class="edge">
<title>RF_L&#45;&gt;ANG_VEL</title>
<path fill="none" stroke="red" stroke-width="0.22" d="M83.68,-119.32C85.93,-112.52 89.33,-102.23 92.92,-91.37"/>
<polygon fill="red" stroke="red" stroke-width="0.22" points="96.29,-92.34 96.1,-81.75 89.64,-90.15 96.29,-92.34"/>
</g>
<!-- RF_B -->
<g id="node6" class="node">
<title>RF_B</title>
<polygon fill="lightgray" stroke="black" points="212,-137.44 174,-137.44 174,-119.44 212,-119.44 212,-137.44"/>
<text text-anchor="middle" x="193" y="-126.24" font-family="Times,serif" font-size="9.00">RF_B</text>
</g>
<!-- RF_B&#45;&gt;ANG_VEL -->
<g id="edge10" class="edge">
<title>RF_B&#45;&gt;ANG_VEL</title>
<path fill="none" stroke="green" stroke-width="0.16" d="M184.95,-119.32C175.7,-109.99 159.9,-94.05 145.1,-79.12"/>
<polygon fill="green" stroke="green" stroke-width="0.16" points="147.47,-76.55 137.94,-71.91 142.5,-81.48 147.47,-76.55"/>
</g>
<!-- RF_B&#45;&gt;VEL -->
<g id="edge1" class="edge">
<title>RF_B&#45;&gt;VEL</title>
<path fill="none" stroke="red" stroke-width="0.38" d="M201.63,-119.32C214.49,-107.21 239.18,-83.97 258,-66.25"/>
<polygon fill="red" stroke="red" stroke-width="0.38" points="260.78,-68.44 265.66,-59.04 255.98,-63.35 260.78,-68.44"/>
</g>
<!-- RAD_F -->
<g id="node7" class="node">
<title>RAD_F</title>
<polygon fill="lightgray" stroke="black" points="338,-137.44 292,-137.44 292,-119.44 338,-119.44 338,-137.44"/>
<text text-anchor="middle" x="315" y="-126.24" font-family="Times,serif" font-size="9.00">RAD_F</text>
</g>
<!-- RAD_F&#45;&gt;VEL -->
<g id="edge4" class="edge">
<title>RAD_F&#45;&gt;VEL</title>
<path fill="none" stroke="green" stroke-width="0.14" d="M311.93,-119.32C308.02,-108.96 301.03,-90.44 294.9,-74.21"/>
<polygon fill="green" stroke="green" stroke-width="0.14" points="298.03,-72.61 291.22,-64.49 291.48,-75.09 298.03,-72.61"/>
</g>
<!-- RAD_L -->
<g id="node8" class="node">
<title>RAD_L</title>
<polygon fill="lightgray" stroke="black" points="402,-137.44 356,-137.44 356,-119.44 402,-119.44 402,-137.44"/>
<text text-anchor="middle" x="379" y="-126.24" font-family="Times,serif" font-size="9.00">RAD_L</text>
</g>
<!-- RAD_L&#45;&gt;VEL -->
<g id="edge9" class="edge">
<title>RAD_L&#45;&gt;VEL</title>
<path fill="none" stroke="red" stroke-width="0.49" d="M369.8,-119.32C355.79,-106.96 328.63,-82.99 308.4,-65.14"/>
<polygon fill="red" stroke="red" stroke-width="0.49" points="310.58,-62.39 300.76,-58.4 305.95,-67.64 310.58,-62.39"/>
</g>
<!-- RAD_B -->
<g id="node9" class="node">
<title>RAD_B</title>
<polygon fill="lightgray" stroke="black" points="589.5,-137.44 542.5,-137.44 542.5,-119.44 589.5,-119.44 589.5,-137.44"/>
<text text-anchor="middle" x="566" y="-126.24" font-family="Times,serif" font-size="9.00">RAD_B</text>
</g>
<!-- RAD_R -->
<g id="node10" class="node">
<title>RAD_R</title>
<polygon fill="lightgray" stroke="black" points="467.5,-137.44 420.5,-137.44 420.5,-119.44 467.5,-119.44 467.5,-137.44"/>
<text text-anchor="middle" x="444" y="-126.24" font-family="Times,serif" font-size="9.00">RAD_R</text>
</g>
<!-- RAD_R&#45;&gt;VEL -->
<g id="edge5" class="edge">
<title>RAD_R&#45;&gt;VEL</title>
<path fill="none" stroke="red" stroke-width="0.32" d="M428.56,-119.32C402.02,-105.35 347.28,-76.54 313.01,-58.51"/>
<polygon fill="red" stroke="red" stroke-width="0.32" points="314.4,-55.29 303.93,-53.73 311.15,-61.48 314.4,-55.29"/>
</g>
</g>
</svg>
