<?xml version="1.0" encoding="UTF-8" standalone="no"?>
<!DOCTYPE svg PUBLIC "-//W3C//DTD SVG 1.1//EN"
 "http://www.w3.org/Graphics/SVG/1.1/DTD/svg11.dtd">
<!-- Generated by graphviz version 2.50.0 (20211204.2007)
 -->
<!-- Pages: 1 -->
<svg width="532pt" height="145pt"
 viewBox="0.00 0.00 532.00 145.44" xmlns="http://www.w3.org/2000/svg" xmlns:xlink="http://www.w3.org/1999/xlink">
<g id="graph0" class="graph" transform="scale(1 1) rotate(0) translate(4 141.44)">
<polygon fill="white" stroke="transparent" points="-4,4 -4,-141.44 528,-141.44 528,4 -4,4"/>
<!-- RF_R -->
<g id="node1" class="node">
<title>RF_R</title>
<polygon fill="lightgray" stroke="black" points="38,-137.44 0,-137.44 0,-119.44 38,-119.44 38,-137.44"/>
<text text-anchor="middle" x="19" y="-126.24" font-family="Times,serif" font-size="9.00">RF_R</text>
</g>
<!-- RF_FR -->
<g id="node2" class="node">
<title>RF_FR</title>
<polygon fill="lightgray" stroke="black" points="156,-137.44 112,-137.44 112,-119.44 156,-119.44 156,-137.44"/>
<text text-anchor="middle" x="134" y="-126.24" font-family="Times,serif" font-size="9.00">RF_FR</text>
</g>
<!-- 2 -->
<g id="node12" class="node">
<title>2</title>
<ellipse fill="lightblue" stroke="black" cx="164" cy="-41.72" rx="14.7" ry="14.7"/>
<text text-anchor="middle" x="164" y="-39.52" font-family="Times,serif" font-size="9.00">2</text>
</g>
<!-- RF_FR&#45;&gt;2 -->
<g id="edge1" class="edge">
<title>RF_FR&#45;&gt;2</title>
<path fill="none" stroke="red" stroke-width="0.3" d="M136.88,-119.32C141.22,-107.06 149.6,-83.38 155.9,-65.58"/>
<polygon fill="red" stroke="red" stroke-width="0.3" points="159.29,-66.51 159.33,-55.91 152.69,-64.17 159.29,-66.51"/>
</g>
<!-- RF_F -->
<g id="node3" class="node">
<title>RF_F</title>
<polygon fill="lightgray" stroke="black" points="212,-137.44 174,-137.44 174,-119.44 212,-119.44 212,-137.44"/>
<text text-anchor="middle" x="193" y="-126.24" font-family="Times,serif" font-size="9.00">RF_F</text>
</g>
<!-- ANG_VEL -->
<g id="node10" class="node">
<title>ANG_VEL</title>
<ellipse fill="lightblue" stroke="black" cx="358" cy="-41.72" rx="41.94" ry="41.94"/>
<text text-anchor="middle" x="358" y="-39.52" font-family="Times,serif" font-size="9.00">ANG_VEL</text>
</g>
<!-- RF_F&#45;&gt;ANG_VEL -->
<g id="edge10" class="edge">
<title>RF_F&#45;&gt;ANG_VEL</title>
<path fill="none" stroke="red" stroke-width="0.67" d="M210.8,-119.33C229.45,-110.74 259.53,-96.62 285,-83.44 294.28,-78.64 304.11,-73.32 313.45,-68.15"/>
<polygon fill="red" stroke="red" stroke-width="0.67" points="315.19,-71.19 322.23,-63.26 311.79,-65.07 315.19,-71.19"/>
</g>
<!-- VEL -->
<g id="node11" class="node">
<title>VEL</title>
<ellipse fill="lightblue" stroke="black" cx="252" cy="-41.72" rx="24.08" ry="24.08"/>
<text text-anchor="middle" x="252" y="-39.52" font-family="Times,serif" font-size="9.00">VEL</text>
</g>
<!-- RF_F&#45;&gt;VEL -->
<g id="edge2" class="edge">
<title>RF_F&#45;&gt;VEL</title>
<path fill="none" stroke="green" stroke-width="0.63" d="M198.66,-119.32C206.42,-108.17 220.76,-87.58 232.61,-70.56"/>
<polygon fill="green" stroke="green" stroke-width="0.63" points="235.7,-72.25 238.54,-62.05 229.95,-68.25 235.7,-72.25"/>
</g>
<!-- RF_F&#45;&gt;2 -->
<g id="edge3" class="edge">
<title>RF_F&#45;&gt;2</title>
<path fill="none" stroke="red" stroke-width="0.42" d="M190.22,-119.32C186.02,-107.06 177.92,-83.38 171.83,-65.58"/>
<polygon fill="red" stroke="red" stroke-width="0.42" points="175.07,-64.24 168.52,-55.91 168.44,-66.51 175.07,-64.24"/>
</g>
<!-- RF_FL -->
<g id="node4" class="node">
<title>RF_FL</title>
<polygon fill="lightgray" stroke="black" points="273.5,-137.44 230.5,-137.44 230.5,-119.44 273.5,-119.44 273.5,-137.44"/>
<text text-anchor="middle" x="252" y="-126.24" font-family="Times,serif" font-size="9.00">RF_FL</text>
</g>
<!-- RF_FL&#45;&gt;ANG_VEL -->
<g id="edge8" class="edge">
<title>RF_FL&#45;&gt;ANG_VEL</title>
<path fill="none" stroke="green" stroke-width="0.15" d="M262.16,-119.32C274.97,-109.08 297.75,-90.87 317.89,-74.78"/>
<polygon fill="green" stroke="green" stroke-width="0.15" points="320.11,-77.48 325.74,-68.5 315.74,-72.01 320.11,-77.48"/>
</g>
<!-- RF_FL&#45;&gt;VEL -->
<g id="edge9" class="edge">
<title>RF_FL&#45;&gt;VEL</title>
<path fill="none" stroke="red" stroke-width="0.21" d="M252,-119.32C252,-109.33 252,-91.75 252,-75.96"/>
<polygon fill="red" stroke="red" stroke-width="0.21" points="255.5,-75.93 252,-65.93 248.5,-75.93 255.5,-75.93"/>
</g>
<!-- RF_FL&#45;&gt;2 -->
<g id="edge6" class="edge">
<title>RF_FL&#45;&gt;2</title>
<path fill="none" stroke="green" stroke-width="0.17" d="M243.56,-119.32C229.41,-105.69 200.59,-77.95 181.8,-59.86"/>
<polygon fill="green" stroke="green" stroke-width="0.17" points="184.07,-57.18 174.43,-52.77 179.21,-62.22 184.07,-57.18"/>
</g>
<!-- RF_L -->
<g id="node5" class="node">
<title>RF_L</title>
<polygon fill="lightgray" stroke="black" points="94,-137.44 56,-137.44 56,-119.44 94,-119.44 94,-137.44"/>
<text text-anchor="middle" x="75" y="-126.24" font-family="Times,serif" font-size="9.00">RF_L</text>
</g>
<!-- RF_L&#45;&gt;2 -->
<g id="edge4" class="edge">
<title>RF_L&#45;&gt;2</title>
<path fill="none" stroke="red" stroke-width="0.19" d="M83.53,-119.32C97.92,-105.62 127.3,-77.65 146.3,-59.57"/>
<polygon fill="red" stroke="red" stroke-width="0.19" points="148.9,-61.93 153.73,-52.5 144.07,-56.86 148.9,-61.93"/>
</g>
<!-- RF_B -->
<g id="node6" class="node">
<title>RF_B</title>
<polygon fill="lightgray" stroke="black" points="524,-137.44 486,-137.44 486,-119.44 524,-119.44 524,-137.44"/>
<text text-anchor="middle" x="505" y="-126.24" font-family="Times,serif" font-size="9.00">RF_B</text>
</g>
<!-- RAD_F -->
<g id="node7" class="node">
<title>RAD_F</title>
<polygon fill="lightgray" stroke="black" points="338,-137.44 292,-137.44 292,-119.44 338,-119.44 338,-137.44"/>
<text text-anchor="middle" x="315" y="-126.24" font-family="Times,serif" font-size="9.00">RAD_F</text>
</g>
<!-- RAD_F&#45;&gt;VEL -->
<g id="edge5" class="edge">
<title>RAD_F&#45;&gt;VEL</title>
<path fill="none" stroke="green" stroke-width="0.4" d="M308.96,-119.32C300.49,-107.93 284.69,-86.67 271.87,-69.44"/>
<polygon fill="green" stroke="green" stroke-width="0.4" points="274.64,-67.3 265.86,-61.36 269.02,-71.48 274.64,-67.3"/>
</g>
<!-- RAD_L -->
<g id="node8" class="node">
<title>RAD_L</title>
<polygon fill="lightgray" stroke="black" points="468,-137.44 422,-137.44 422,-119.44 468,-119.44 468,-137.44"/>
<text text-anchor="middle" x="445" y="-126.24" font-family="Times,serif" font-size="9.00">RAD_L</text>
</g>
<!-- RAD_L&#45;&gt;ANG_VEL -->
<g id="edge11" class="edge">
<title>RAD_L&#45;&gt;ANG_VEL</title>
<path fill="none" stroke="green" stroke-width="0.34" d="M436.66,-119.32C427.01,-109.92 410.47,-93.81 395.03,-78.78"/>
<polygon fill="green" stroke="green" stroke-width="0.34" points="397.19,-76 387.58,-71.53 392.31,-81.01 397.19,-76"/>
</g>
<!-- RAD_B -->
<g id="node9" class="node">
<title>RAD_B</title>
<polygon fill="lightgray" stroke="black" points="403.5,-137.44 356.5,-137.44 356.5,-119.44 403.5,-119.44 403.5,-137.44"/>
<text text-anchor="middle" x="380" y="-126.24" font-family="Times,serif" font-size="9.00">RAD_B</text>
</g>
<!-- RAD_B&#45;&gt;ANG_VEL -->
<g id="edge7" class="edge">
<title>RAD_B&#45;&gt;ANG_VEL</title>
<path fill="none" stroke="green" stroke-width="0.35" d="M377.89,-119.32C376.18,-112.72 373.61,-102.82 370.88,-92.3"/>
<polygon fill="green" stroke="green" stroke-width="0.35" points="374.24,-91.35 368.34,-82.55 367.47,-93.11 374.24,-91.35"/>
</g>
</g>
</svg>
