<?xml version="1.0" encoding="utf-8" standalone="no"?>
<!DOCTYPE svg PUBLIC "-//W3C//DTD SVG 1.1//EN"
  "http://www.w3.org/Graphics/SVG/1.1/DTD/svg11.dtd">
<svg height="504pt" version="1.1" viewBox="0 0 237.6 504" width="237.6pt" xmlns="http://www.w3.org/2000/svg" xmlns:xlink="http://www.w3.org/1999/xlink">
 <metadata>
  <rdf:RDF xmlns:cc="http://creativecommons.org/ns#" xmlns:dc="http://purl.org/dc/elements/1.1/" xmlns:rdf="http://www.w3.org/1999/02/22-rdf-syntax-ns#">
   <cc:Work>
    <dc:type rdf:resource="http://purl.org/dc/dcmitype/StillImage"/>
    <dc:date>2022-05-24T17:33:31.362422</dc:date>
    <dc:format>image/svg+xml</dc:format>
    <dc:creator>
     <cc:Agent>
      <dc:title>Matplotlib v3.3.4+2343.g7e3cef3ba, https://matplotlib.org/</dc:title>
     </cc:Agent>
    </dc:creator>
   </cc:Work>
  </rdf:RDF>
 </metadata>
 <defs>
  <style type="text/css">*{stroke-linecap:butt;stroke-linejoin:round;}</style>
 </defs>
 <g id="figure_1">
  <g id="patch_1">
   <path d="M 0 504 
L 237.6 504 
L 237.6 0 
L 0 0 
z
" style="fill:#ffffff;"/>
  </g>
  <g id="axes_1">
   <g id="patch_2">
    <path clip-path="url(#p8e517cdd92)" d="M 93.2283 86.058 
C 93.838731 86.058 94.424243 86.290333 94.855883 86.70383 
C 95.287523 87.117326 95.53005 87.678227 95.53005 88.263 
C 95.53005 88.847773 95.287523 89.408674 94.855883 89.82217 
C 94.424243 90.235667 93.838731 90.468 93.2283 90.468 
C 92.617869 90.468 92.032357 90.235667 91.600717 89.82217 
C 91.169077 89.408674 90.92655 88.847773 90.92655 88.263 
C 90.92655 87.678227 91.169077 87.117326 91.600717 86.70383 
C 92.032357 86.290333 92.617869 86.058 93.2283 86.058 
z
" style="fill:#00ff80;stroke:#008000;stroke-linejoin:miter;"/>
   </g>
   <g id="patch_3">
    <path clip-path="url(#p8e517cdd92)" d="M 113.02335 79.002 
C 113.633781 79.002 114.219293 79.234333 114.650933 79.64783 
C 115.082573 80.061326 115.3251 80.622227 115.3251 81.207 
C 115.3251 81.791773 115.082573 82.352674 114.650933 82.76617 
C 114.219293 83.179667 113.633781 83.412 113.02335 83.412 
C 112.412919 83.412 111.827407 83.179667 111.395767 82.76617 
C 110.964127 82.352674 110.7216 81.791773 110.7216 81.207 
C 110.7216 80.622227 110.964127 80.061326 111.395767 79.64783 
C 111.827407 79.234333 112.412919 79.002 113.02335 79.002 
z
" style="fill:#00ff80;stroke:#008000;stroke-linejoin:miter;"/>
   </g>
   <g id="patch_4">
    <path clip-path="url(#p8e517cdd92)" d="M 128.2149 92.673 
C 128.825331 92.673 129.410843 92.905333 129.842483 93.31883 
C 130.274123 93.732326 130.51665 94.293227 130.51665 94.878 
C 130.51665 95.462773 130.274123 96.023674 129.842483 96.43717 
C 129.410843 96.850667 128.825331 97.083 128.2149 97.083 
C 127.604469 97.083 127.018957 96.850667 126.587317 96.43717 
C 126.155677 96.023674 125.91315 95.462773 125.91315 94.878 
C 125.91315 94.293227 126.155677 93.732326 126.587317 93.31883 
C 127.018957 92.905333 127.604469 92.673 128.2149 92.673 
z
" style="fill:#00ff80;stroke:#008000;stroke-linejoin:miter;"/>
   </g>
   <g id="patch_5">
    <path clip-path="url(#p8e517cdd92)" d="M 152.407199 103.661415 
C 152.712415 103.661415 153.005171 103.777581 153.220991 103.98433 
C 153.436811 104.191078 153.558074 104.471529 153.558074 104.763915 
C 153.558074 105.056302 153.436811 105.336752 153.220991 105.5435 
C 153.005171 105.750249 152.712415 105.866415 152.407199 105.866415 
C 152.101983 105.866415 151.809228 105.750249 151.593408 105.5435 
C 151.377588 105.336752 151.256324 105.056302 151.256324 104.763915 
C 151.256324 104.471529 151.377588 104.191078 151.593408 103.98433 
C 151.809228 103.777581 152.101983 103.661415 152.407199 103.661415 
z
" style="fill:#99ff99;stroke:#ffffff;stroke-linejoin:miter;"/>
   </g>
   <g id="patch_6">
    <path clip-path="url(#p8e517cdd92)" d="M 153.9945 103.4775 
C 154.299716 103.4775 154.592471 103.593666 154.808292 103.800415 
C 155.024112 104.007163 155.145375 104.287614 155.145375 104.58 
C 155.145375 104.872386 155.024112 105.152837 154.808292 105.359585 
C 154.592471 105.566334 154.299716 105.6825 153.9945 105.6825 
C 153.689284 105.6825 153.396529 105.566334 153.180708 105.359585 
C 152.964888 105.152837 152.843625 104.872386 152.843625 104.58 
C 152.843625 104.287614 152.964888 104.007163 153.180708 103.800415 
C 153.396529 103.593666 153.689284 103.4775 153.9945 103.4775 
z
" style="fill:#ff3300;stroke:#ffffff;stroke-linejoin:miter;"/>
   </g>
   <g id="line2d_1">
    <path clip-path="url(#p8e517cdd92)" d="M 32.00175 62.685 
L 165.50325 62.685 
" style="fill:none;stroke:#1f77b4;stroke-linecap:square;stroke-width:1.5;"/>
   </g>
   <g id="line2d_2">
    <path clip-path="url(#p8e517cdd92)" d="M 165.50325 62.685 
L 165.50325 120.015 
" style="fill:none;stroke:#1f77b4;stroke-linecap:square;stroke-width:1.5;"/>
   </g>
   <g id="line2d_3">
    <path clip-path="url(#p8e517cdd92)" d="M 165.50325 120.015 
L 32.00175 120.015 
" style="fill:none;stroke:#1f77b4;stroke-linecap:square;stroke-width:1.5;"/>
   </g>
   <g id="line2d_4">
    <path clip-path="url(#p8e517cdd92)" d="M 32.00175 120.015 
L 32.00175 62.685 
" style="fill:none;stroke:#1f77b4;stroke-linecap:square;stroke-width:1.5;"/>
   </g>
   <g id="line2d_5">
    <path clip-path="url(#p8e517cdd92)" d="M 140.64435 120.015 
L 56.4003 89.145 
" style="fill:none;stroke:#1f77b4;stroke-linecap:square;stroke-width:1.5;"/>
   </g>
   <g id="line2d_6">
    <path clip-path="url(#p8e517cdd92)" d="M 82.1799 62.685 
L 63.30555 79.002 
" style="fill:none;stroke:#1f77b4;stroke-linecap:square;stroke-width:1.5;"/>
   </g>
   <g id="line2d_7">
    <path clip-path="url(#p8e517cdd92)" d="M 89.5455 100.611 
L 78.95745 80.766 
" style="fill:none;stroke:#1f77b4;stroke-linecap:square;stroke-width:1.5;"/>
   </g>
   <g id="line2d_8">
    <path clip-path="url(#p8e517cdd92)" d="M 119.9286 62.685 
L 93.68865 82.971 
" style="fill:none;stroke:#1f77b4;stroke-linecap:square;stroke-width:1.5;"/>
   </g>
   <g id="line2d_9">
    <path clip-path="url(#p8e517cdd92)" d="M 130.51665 115.605 
L 113.4837 88.263 
" style="fill:none;stroke:#1f77b4;stroke-linecap:square;stroke-width:1.5;"/>
   </g>
   <g id="line2d_10">
    <path clip-path="url(#p8e517cdd92)" d="M 152.61345 62.685 
L 128.2149 88.263 
" style="fill:none;stroke:#1f77b4;stroke-linecap:square;stroke-width:1.5;"/>
   </g>
   <g id="line2d_11">
    <path clip-path="url(#p8e517cdd92)" d="M 154.45485 120.015 
L 138.80295 99.288 
" style="fill:none;stroke:#1f77b4;stroke-linecap:square;stroke-width:1.5;"/>
   </g>
   <g id="text_1">
    <!-- fitness &gt;= 0.8, species: 0 -->
    <g transform="translate(44.5125 54.48)scale(0.12 -0.12)">
     <defs>
      <path d="M 2375 4863 
L 2375 4384 
L 1825 4384 
Q 1516 4384 1395 4259 
Q 1275 4134 1275 3809 
L 1275 3500 
L 2222 3500 
L 2222 3053 
L 1275 3053 
L 1275 0 
L 697 0 
L 697 3053 
L 147 3053 
L 147 3500 
L 697 3500 
L 697 3744 
Q 697 4328 969 4595 
Q 1241 4863 1831 4863 
L 2375 4863 
z
" id="DejaVuSans-66" transform="scale(0.015625)"/>
      <path d="M 603 3500 
L 1178 3500 
L 1178 0 
L 603 0 
L 603 3500 
z
M 603 4863 
L 1178 4863 
L 1178 4134 
L 603 4134 
L 603 4863 
z
" id="DejaVuSans-69" transform="scale(0.015625)"/>
      <path d="M 1172 4494 
L 1172 3500 
L 2356 3500 
L 2356 3053 
L 1172 3053 
L 1172 1153 
Q 1172 725 1289 603 
Q 1406 481 1766 481 
L 2356 481 
L 2356 0 
L 1766 0 
Q 1100 0 847 248 
Q 594 497 594 1153 
L 594 3053 
L 172 3053 
L 172 3500 
L 594 3500 
L 594 4494 
L 1172 4494 
z
" id="DejaVuSans-74" transform="scale(0.015625)"/>
      <path d="M 3513 2113 
L 3513 0 
L 2938 0 
L 2938 2094 
Q 2938 2591 2744 2837 
Q 2550 3084 2163 3084 
Q 1697 3084 1428 2787 
Q 1159 2491 1159 1978 
L 1159 0 
L 581 0 
L 581 3500 
L 1159 3500 
L 1159 2956 
Q 1366 3272 1645 3428 
Q 1925 3584 2291 3584 
Q 2894 3584 3203 3211 
Q 3513 2838 3513 2113 
z
" id="DejaVuSans-6e" transform="scale(0.015625)"/>
      <path d="M 3597 1894 
L 3597 1613 
L 953 1613 
Q 991 1019 1311 708 
Q 1631 397 2203 397 
Q 2534 397 2845 478 
Q 3156 559 3463 722 
L 3463 178 
Q 3153 47 2828 -22 
Q 2503 -91 2169 -91 
Q 1331 -91 842 396 
Q 353 884 353 1716 
Q 353 2575 817 3079 
Q 1281 3584 2069 3584 
Q 2775 3584 3186 3129 
Q 3597 2675 3597 1894 
z
M 3022 2063 
Q 3016 2534 2758 2815 
Q 2500 3097 2075 3097 
Q 1594 3097 1305 2825 
Q 1016 2553 972 2059 
L 3022 2063 
z
" id="DejaVuSans-65" transform="scale(0.015625)"/>
      <path d="M 2834 3397 
L 2834 2853 
Q 2591 2978 2328 3040 
Q 2066 3103 1784 3103 
Q 1356 3103 1142 2972 
Q 928 2841 928 2578 
Q 928 2378 1081 2264 
Q 1234 2150 1697 2047 
L 1894 2003 
Q 2506 1872 2764 1633 
Q 3022 1394 3022 966 
Q 3022 478 2636 193 
Q 2250 -91 1575 -91 
Q 1294 -91 989 -36 
Q 684 19 347 128 
L 347 722 
Q 666 556 975 473 
Q 1284 391 1588 391 
Q 1994 391 2212 530 
Q 2431 669 2431 922 
Q 2431 1156 2273 1281 
Q 2116 1406 1581 1522 
L 1381 1569 
Q 847 1681 609 1914 
Q 372 2147 372 2553 
Q 372 3047 722 3315 
Q 1072 3584 1716 3584 
Q 2034 3584 2315 3537 
Q 2597 3491 2834 3397 
z
" id="DejaVuSans-73" transform="scale(0.015625)"/>
      <path id="DejaVuSans-20" transform="scale(0.015625)"/>
      <path d="M 678 3150 
L 678 3719 
L 4684 2266 
L 4684 1747 
L 678 294 
L 678 863 
L 3897 2003 
L 678 3150 
z
" id="DejaVuSans-3e" transform="scale(0.015625)"/>
      <path d="M 678 2906 
L 4684 2906 
L 4684 2381 
L 678 2381 
L 678 2906 
z
M 678 1631 
L 4684 1631 
L 4684 1100 
L 678 1100 
L 678 1631 
z
" id="DejaVuSans-3d" transform="scale(0.015625)"/>
      <path d="M 2034 4250 
Q 1547 4250 1301 3770 
Q 1056 3291 1056 2328 
Q 1056 1369 1301 889 
Q 1547 409 2034 409 
Q 2525 409 2770 889 
Q 3016 1369 3016 2328 
Q 3016 3291 2770 3770 
Q 2525 4250 2034 4250 
z
M 2034 4750 
Q 2819 4750 3233 4129 
Q 3647 3509 3647 2328 
Q 3647 1150 3233 529 
Q 2819 -91 2034 -91 
Q 1250 -91 836 529 
Q 422 1150 422 2328 
Q 422 3509 836 4129 
Q 1250 4750 2034 4750 
z
" id="DejaVuSans-30" transform="scale(0.015625)"/>
      <path d="M 684 794 
L 1344 794 
L 1344 0 
L 684 0 
L 684 794 
z
" id="DejaVuSans-2e" transform="scale(0.015625)"/>
      <path d="M 2034 2216 
Q 1584 2216 1326 1975 
Q 1069 1734 1069 1313 
Q 1069 891 1326 650 
Q 1584 409 2034 409 
Q 2484 409 2743 651 
Q 3003 894 3003 1313 
Q 3003 1734 2745 1975 
Q 2488 2216 2034 2216 
z
M 1403 2484 
Q 997 2584 770 2862 
Q 544 3141 544 3541 
Q 544 4100 942 4425 
Q 1341 4750 2034 4750 
Q 2731 4750 3128 4425 
Q 3525 4100 3525 3541 
Q 3525 3141 3298 2862 
Q 3072 2584 2669 2484 
Q 3125 2378 3379 2068 
Q 3634 1759 3634 1313 
Q 3634 634 3220 271 
Q 2806 -91 2034 -91 
Q 1263 -91 848 271 
Q 434 634 434 1313 
Q 434 1759 690 2068 
Q 947 2378 1403 2484 
z
M 1172 3481 
Q 1172 3119 1398 2916 
Q 1625 2713 2034 2713 
Q 2441 2713 2670 2916 
Q 2900 3119 2900 3481 
Q 2900 3844 2670 4047 
Q 2441 4250 2034 4250 
Q 1625 4250 1398 4047 
Q 1172 3844 1172 3481 
z
" id="DejaVuSans-38" transform="scale(0.015625)"/>
      <path d="M 750 794 
L 1409 794 
L 1409 256 
L 897 -744 
L 494 -744 
L 750 256 
L 750 794 
z
" id="DejaVuSans-2c" transform="scale(0.015625)"/>
      <path d="M 1159 525 
L 1159 -1331 
L 581 -1331 
L 581 3500 
L 1159 3500 
L 1159 2969 
Q 1341 3281 1617 3432 
Q 1894 3584 2278 3584 
Q 2916 3584 3314 3078 
Q 3713 2572 3713 1747 
Q 3713 922 3314 415 
Q 2916 -91 2278 -91 
Q 1894 -91 1617 61 
Q 1341 213 1159 525 
z
M 3116 1747 
Q 3116 2381 2855 2742 
Q 2594 3103 2138 3103 
Q 1681 3103 1420 2742 
Q 1159 2381 1159 1747 
Q 1159 1113 1420 752 
Q 1681 391 2138 391 
Q 2594 391 2855 752 
Q 3116 1113 3116 1747 
z
" id="DejaVuSans-70" transform="scale(0.015625)"/>
      <path d="M 3122 3366 
L 3122 2828 
Q 2878 2963 2633 3030 
Q 2388 3097 2138 3097 
Q 1578 3097 1268 2742 
Q 959 2388 959 1747 
Q 959 1106 1268 751 
Q 1578 397 2138 397 
Q 2388 397 2633 464 
Q 2878 531 3122 666 
L 3122 134 
Q 2881 22 2623 -34 
Q 2366 -91 2075 -91 
Q 1284 -91 818 406 
Q 353 903 353 1747 
Q 353 2603 823 3093 
Q 1294 3584 2113 3584 
Q 2378 3584 2631 3529 
Q 2884 3475 3122 3366 
z
" id="DejaVuSans-63" transform="scale(0.015625)"/>
      <path d="M 750 794 
L 1409 794 
L 1409 0 
L 750 0 
L 750 794 
z
M 750 3309 
L 1409 3309 
L 1409 2516 
L 750 2516 
L 750 3309 
z
" id="DejaVuSans-3a" transform="scale(0.015625)"/>
     </defs>
     <use xlink:href="#DejaVuSans-66"/>
     <use x="35.205078" xlink:href="#DejaVuSans-69"/>
     <use x="62.988281" xlink:href="#DejaVuSans-74"/>
     <use x="102.197266" xlink:href="#DejaVuSans-6e"/>
     <use x="165.576172" xlink:href="#DejaVuSans-65"/>
     <use x="227.099609" xlink:href="#DejaVuSans-73"/>
     <use x="279.199219" xlink:href="#DejaVuSans-73"/>
     <use x="331.298828" xlink:href="#DejaVuSans-20"/>
     <use x="363.085938" xlink:href="#DejaVuSans-3e"/>
     <use x="446.875" xlink:href="#DejaVuSans-3d"/>
     <use x="530.664062" xlink:href="#DejaVuSans-20"/>
     <use x="562.451172" xlink:href="#DejaVuSans-30"/>
     <use x="626.074219" xlink:href="#DejaVuSans-2e"/>
     <use x="657.861328" xlink:href="#DejaVuSans-38"/>
     <use x="721.484375" xlink:href="#DejaVuSans-2c"/>
     <use x="753.271484" xlink:href="#DejaVuSans-20"/>
     <use x="785.058594" xlink:href="#DejaVuSans-73"/>
     <use x="837.158203" xlink:href="#DejaVuSans-70"/>
     <use x="900.634766" xlink:href="#DejaVuSans-65"/>
     <use x="962.158203" xlink:href="#DejaVuSans-63"/>
     <use x="1017.138672" xlink:href="#DejaVuSans-69"/>
     <use x="1044.921875" xlink:href="#DejaVuSans-65"/>
     <use x="1106.445312" xlink:href="#DejaVuSans-73"/>
     <use x="1158.544922" xlink:href="#DejaVuSans-3a"/>
     <use x="1192.236328" xlink:href="#DejaVuSans-20"/>
     <use x="1224.023438" xlink:href="#DejaVuSans-30"/>
    </g>
   </g>
  </g>
  <g id="axes_2">
   <g id="patch_7">
    <path clip-path="url(#pb5662bf264)" d="M 93.2283 297.738 
C 93.838731 297.738 94.424243 297.970333 94.855883 298.38383 
C 95.287523 298.797326 95.53005 299.358227 95.53005 299.943 
C 95.53005 300.527773 95.287523 301.088674 94.855883 301.50217 
C 94.424243 301.915667 93.838731 302.148 93.2283 302.148 
C 92.617869 302.148 92.032357 301.915667 91.600717 301.50217 
C 91.169077 301.088674 90.92655 300.527773 90.92655 299.943 
C 90.92655 299.358227 91.169077 298.797326 91.600717 298.38383 
C 92.032357 297.970333 92.617869 297.738 93.2283 297.738 
z
" style="fill:#00ff80;stroke:#008000;stroke-linejoin:miter;"/>
   </g>
   <g id="patch_8">
    <path clip-path="url(#pb5662bf264)" d="M 113.02335 290.682 
C 113.633781 290.682 114.219293 290.914333 114.650933 291.32783 
C 115.082573 291.741326 115.3251 292.302227 115.3251 292.887 
C 115.3251 293.471773 115.082573 294.032674 114.650933 294.44617 
C 114.219293 294.859667 113.633781 295.092 113.02335 295.092 
C 112.412919 295.092 111.827407 294.859667 111.395767 294.44617 
C 110.964127 294.032674 110.7216 293.471773 110.7216 292.887 
C 110.7216 292.302227 110.964127 291.741326 111.395767 291.32783 
C 111.827407 290.914333 112.412919 290.682 113.02335 290.682 
z
" style="fill:#00ff80;stroke:#008000;stroke-linejoin:miter;"/>
   </g>
   <g id="patch_9">
    <path clip-path="url(#pb5662bf264)" d="M 128.2149 304.353 
C 128.825331 304.353 129.410843 304.585333 129.842483 304.99883 
C 130.274123 305.412326 130.51665 305.973227 130.51665 306.558 
C 130.51665 307.142773 130.274123 307.703674 129.842483 308.11717 
C 129.410843 308.530667 128.825331 308.763 128.2149 308.763 
C 127.604469 308.763 127.018957 308.530667 126.587317 308.11717 
C 126.155677 307.703674 125.91315 307.142773 125.91315 306.558 
C 125.91315 305.973227 126.155677 305.412326 126.587317 304.99883 
C 127.018957 304.585333 127.604469 304.353 128.2149 304.353 
z
" style="fill:#00ff80;stroke:#008000;stroke-linejoin:miter;"/>
   </g>
   <g id="patch_10">
    <path clip-path="url(#pb5662bf264)" d="M 152.407199 315.341415 
C 152.712415 315.341415 153.005171 315.457581 153.220991 315.66433 
C 153.436811 315.871078 153.558074 316.151529 153.558074 316.443915 
C 153.558074 316.736302 153.436811 317.016752 153.220991 317.2235 
C 153.005171 317.430249 152.712415 317.546415 152.407199 317.546415 
C 152.101983 317.546415 151.809228 317.430249 151.593408 317.2235 
C 151.377588 317.016752 151.256324 316.736302 151.256324 316.443915 
C 151.256324 316.151529 151.377588 315.871078 151.593408 315.66433 
C 151.809228 315.457581 152.101983 315.341415 152.407199 315.341415 
z
" style="fill:#99ff99;stroke:#ffffff;stroke-linejoin:miter;"/>
   </g>
   <g id="patch_11">
    <path clip-path="url(#pb5662bf264)" d="M 153.9945 315.1575 
C 154.299716 315.1575 154.592471 315.273666 154.808292 315.480415 
C 155.024112 315.687163 155.145375 315.967614 155.145375 316.26 
C 155.145375 316.552386 155.024112 316.832837 154.808292 317.039585 
C 154.592471 317.246334 154.299716 317.3625 153.9945 317.3625 
C 153.689284 317.3625 153.396529 317.246334 153.180708 317.039585 
C 152.964888 316.832837 152.843625 316.552386 152.843625 316.26 
C 152.843625 315.967614 152.964888 315.687163 153.180708 315.480415 
C 153.396529 315.273666 153.689284 315.1575 153.9945 315.1575 
z
" style="fill:#ff3300;stroke:#ffffff;stroke-linejoin:miter;"/>
   </g>
   <g id="line2d_12">
    <path clip-path="url(#pb5662bf264)" d="M 32.00175 274.365 
L 165.50325 274.365 
" style="fill:none;stroke:#1f77b4;stroke-linecap:square;stroke-width:1.5;"/>
   </g>
   <g id="line2d_13">
    <path clip-path="url(#pb5662bf264)" d="M 165.50325 274.365 
L 165.50325 331.695 
" style="fill:none;stroke:#1f77b4;stroke-linecap:square;stroke-width:1.5;"/>
   </g>
   <g id="line2d_14">
    <path clip-path="url(#pb5662bf264)" d="M 165.50325 331.695 
L 32.00175 331.695 
" style="fill:none;stroke:#1f77b4;stroke-linecap:square;stroke-width:1.5;"/>
   </g>
   <g id="line2d_15">
    <path clip-path="url(#pb5662bf264)" d="M 32.00175 331.695 
L 32.00175 274.365 
" style="fill:none;stroke:#1f77b4;stroke-linecap:square;stroke-width:1.5;"/>
   </g>
   <g id="line2d_16">
    <path clip-path="url(#pb5662bf264)" d="M 140.64435 331.695 
L 56.4003 300.825 
" style="fill:none;stroke:#1f77b4;stroke-linecap:square;stroke-width:1.5;"/>
   </g>
   <g id="line2d_17">
    <path clip-path="url(#pb5662bf264)" d="M 82.1799 274.365 
L 63.30555 290.682 
" style="fill:none;stroke:#1f77b4;stroke-linecap:square;stroke-width:1.5;"/>
   </g>
   <g id="line2d_18">
    <path clip-path="url(#pb5662bf264)" d="M 89.5455 312.291 
L 78.95745 292.446 
" style="fill:none;stroke:#1f77b4;stroke-linecap:square;stroke-width:1.5;"/>
   </g>
   <g id="line2d_19">
    <path clip-path="url(#pb5662bf264)" d="M 119.9286 274.365 
L 93.68865 294.651 
" style="fill:none;stroke:#1f77b4;stroke-linecap:square;stroke-width:1.5;"/>
   </g>
   <g id="line2d_20">
    <path clip-path="url(#pb5662bf264)" d="M 130.51665 327.285 
L 113.4837 299.943 
" style="fill:none;stroke:#1f77b4;stroke-linecap:square;stroke-width:1.5;"/>
   </g>
   <g id="line2d_21">
    <path clip-path="url(#pb5662bf264)" d="M 152.61345 274.365 
L 128.2149 299.943 
" style="fill:none;stroke:#1f77b4;stroke-linecap:square;stroke-width:1.5;"/>
   </g>
   <g id="line2d_22">
    <path clip-path="url(#pb5662bf264)" d="M 154.45485 331.695 
L 138.80295 310.968 
" style="fill:none;stroke:#1f77b4;stroke-linecap:square;stroke-width:1.5;"/>
   </g>
   <g id="text_2">
    <!-- fitness &lt; 0.8 -->
    <g transform="translate(83.509688 266.16)scale(0.12 -0.12)">
     <defs>
      <path d="M 4684 3150 
L 1459 2003 
L 4684 863 
L 4684 294 
L 678 1747 
L 678 2266 
L 4684 3719 
L 4684 3150 
z
" id="DejaVuSans-3c" transform="scale(0.015625)"/>
     </defs>
     <use xlink:href="#DejaVuSans-66"/>
     <use x="35.205078" xlink:href="#DejaVuSans-69"/>
     <use x="62.988281" xlink:href="#DejaVuSans-74"/>
     <use x="102.197266" xlink:href="#DejaVuSans-6e"/>
     <use x="165.576172" xlink:href="#DejaVuSans-65"/>
     <use x="227.099609" xlink:href="#DejaVuSans-73"/>
     <use x="279.199219" xlink:href="#DejaVuSans-73"/>
     <use x="331.298828" xlink:href="#DejaVuSans-20"/>
     <use x="363.085938" xlink:href="#DejaVuSans-3c"/>
     <use x="446.875" xlink:href="#DejaVuSans-20"/>
     <use x="478.662109" xlink:href="#DejaVuSans-30"/>
     <use x="542.285156" xlink:href="#DejaVuSans-2e"/>
     <use x="574.072266" xlink:href="#DejaVuSans-38"/>
    </g>
   </g>
  </g>
 </g>
 <defs>
  <clipPath id="p8e517cdd92">
   <rect height="176.4" width="184.14" x="29.7" y="60.48"/>
  </clipPath>
  <clipPath id="pb5662bf264">
   <rect height="176.4" width="184.14" x="29.7" y="272.16"/>
  </clipPath>
 </defs>
</svg>
