<?xml version="1.0" encoding="UTF-8" standalone="no"?>
<!DOCTYPE svg PUBLIC "-//W3C//DTD SVG 1.1//EN"
 "http://www.w3.org/Graphics/SVG/1.1/DTD/svg11.dtd">
<!-- Generated by graphviz version 2.50.0 (20211204.2007)
 -->
<!-- Pages: 1 -->
<svg width="598pt" height="145pt"
 viewBox="0.00 0.00 597.50 145.44" xmlns="http://www.w3.org/2000/svg" xmlns:xlink="http://www.w3.org/1999/xlink">
<g id="graph0" class="graph" transform="scale(1 1) rotate(0) translate(4 141.44)">
<polygon fill="white" stroke="transparent" points="-4,4 -4,-141.44 593.5,-141.44 593.5,4 -4,4"/>
<!-- RF_R -->
<g id="node1" class="node">
<title>RF_R</title>
<polygon fill="lightgray" stroke="black" points="38,-137.44 0,-137.44 0,-119.44 38,-119.44 38,-137.44"/>
<text text-anchor="middle" x="19" y="-126.24" font-family="Times,serif" font-size="9.00">RF_R</text>
</g>
<!-- VEL -->
<g id="node12" class="node">
<title>VEL</title>
<ellipse fill="lightblue" stroke="black" cx="131" cy="-41.72" rx="24.08" ry="24.08"/>
<text text-anchor="middle" x="131" y="-39.52" font-family="Times,serif" font-size="9.00">VEL</text>
</g>
<!-- RF_R&#45;&gt;VEL -->
<g id="edge5" class="edge">
<title>RF_R&#45;&gt;VEL</title>
<path fill="none" stroke="green" stroke-width="0.49" d="M29.74,-119.32C46.69,-106.5 80.15,-81.19 103.96,-63.17"/>
<polygon fill="green" stroke="green" stroke-width="0.49" points="106.08,-65.96 111.94,-57.13 101.86,-60.38 106.08,-65.96"/>
</g>
<!-- RF_FR -->
<g id="node2" class="node">
<title>RF_FR</title>
<polygon fill="lightgray" stroke="black" points="460,-137.44 416,-137.44 416,-119.44 460,-119.44 460,-137.44"/>
<text text-anchor="middle" x="438" y="-126.24" font-family="Times,serif" font-size="9.00">RF_FR</text>
</g>
<!-- RF_F -->
<g id="node3" class="node">
<title>RF_F</title>
<polygon fill="lightgray" stroke="black" points="94,-137.44 56,-137.44 56,-119.44 94,-119.44 94,-137.44"/>
<text text-anchor="middle" x="75" y="-126.24" font-family="Times,serif" font-size="9.00">RF_F</text>
</g>
<!-- RF_F&#45;&gt;VEL -->
<g id="edge4" class="edge">
<title>RF_F&#45;&gt;VEL</title>
<path fill="none" stroke="green" stroke-width="0.32" d="M80.37,-119.32C87.69,-108.24 101.17,-87.84 112.39,-70.88"/>
<polygon fill="green" stroke="green" stroke-width="0.32" points="115.4,-72.66 118,-62.39 109.56,-68.8 115.4,-72.66"/>
</g>
<!-- RF_FL -->
<g id="node4" class="node">
<title>RF_FL</title>
<polygon fill="lightgray" stroke="black" points="333.5,-137.44 290.5,-137.44 290.5,-119.44 333.5,-119.44 333.5,-137.44"/>
<text text-anchor="middle" x="312" y="-126.24" font-family="Times,serif" font-size="9.00">RF_FL</text>
</g>
<!-- ANG_VEL -->
<g id="node11" class="node">
<title>ANG_VEL</title>
<ellipse fill="lightblue" stroke="black" cx="312" cy="-41.72" rx="41.94" ry="41.94"/>
<text text-anchor="middle" x="312" y="-39.52" font-family="Times,serif" font-size="9.00">ANG_VEL</text>
</g>
<!-- RF_FL&#45;&gt;ANG_VEL -->
<g id="edge8" class="edge">
<title>RF_FL&#45;&gt;ANG_VEL</title>
<path fill="none" stroke="green" stroke-width="0.25" stroke-dasharray="1,5" d="M312,-119.32C312,-113.04 312,-103.77 312,-93.83"/>
<polygon fill="green" stroke="green" stroke-width="0.25" points="315.5,-93.75 312,-83.75 308.5,-93.75 315.5,-93.75"/>
</g>
<!-- RF_L -->
<g id="node5" class="node">
<title>RF_L</title>
<polygon fill="lightgray" stroke="black" points="150,-137.44 112,-137.44 112,-119.44 150,-119.44 150,-137.44"/>
<text text-anchor="middle" x="131" y="-126.24" font-family="Times,serif" font-size="9.00">RF_L</text>
</g>
<!-- RF_L&#45;&gt;VEL -->
<g id="edge2" class="edge">
<title>RF_L&#45;&gt;VEL</title>
<path fill="none" stroke="red" stroke-width="0.33" d="M131,-119.32C131,-109.33 131,-91.75 131,-75.96"/>
<polygon fill="red" stroke="red" stroke-width="0.33" points="134.5,-75.93 131,-65.93 127.5,-75.93 134.5,-75.93"/>
</g>
<!-- RF_B -->
<g id="node6" class="node">
<title>RF_B</title>
<polygon fill="lightgray" stroke="black" points="272,-137.44 234,-137.44 234,-119.44 272,-119.44 272,-137.44"/>
<text text-anchor="middle" x="253" y="-126.24" font-family="Times,serif" font-size="9.00">RF_B</text>
</g>
<!-- RF_B&#45;&gt;ANG_VEL -->
<g id="edge6" class="edge">
<title>RF_B&#45;&gt;ANG_VEL</title>
<path fill="none" stroke="red" stroke-width="0.12" d="M258.66,-119.32C264.29,-111.23 273.38,-98.17 282.48,-85.11"/>
<polygon fill="red" stroke="red" stroke-width="0.12" points="285.58,-86.79 288.42,-76.58 279.83,-82.79 285.58,-86.79"/>
</g>
<!-- RF_B&#45;&gt;VEL -->
<g id="edge1" class="edge">
<title>RF_B&#45;&gt;VEL</title>
<path fill="none" stroke="red" stroke-width="0.34" d="M241.3,-119.32C222.44,-106.22 184.8,-80.08 158.77,-62"/>
<polygon fill="red" stroke="red" stroke-width="0.34" points="160.64,-59.04 150.43,-56.21 156.65,-64.79 160.64,-59.04"/>
</g>
<!-- RAD_F -->
<g id="node7" class="node">
<title>RAD_F</title>
<polygon fill="lightgray" stroke="black" points="398,-137.44 352,-137.44 352,-119.44 398,-119.44 398,-137.44"/>
<text text-anchor="middle" x="375" y="-126.24" font-family="Times,serif" font-size="9.00">RAD_F</text>
</g>
<!-- RAD_F&#45;&gt;ANG_VEL -->
<g id="edge7" class="edge">
<title>RAD_F&#45;&gt;ANG_VEL</title>
<path fill="none" stroke="red" stroke-width="0.25" d="M368.96,-119.32C362.79,-111.02 352.72,-97.48 342.75,-84.07"/>
<polygon fill="red" stroke="red" stroke-width="0.25" points="345.37,-81.73 336.6,-75.79 339.75,-85.91 345.37,-81.73"/>
</g>
<!-- RAD_L -->
<g id="node8" class="node">
<title>RAD_L</title>
<polygon fill="lightgray" stroke="black" points="524,-137.44 478,-137.44 478,-119.44 524,-119.44 524,-137.44"/>
<text text-anchor="middle" x="501" y="-126.24" font-family="Times,serif" font-size="9.00">RAD_L</text>
</g>
<!-- RAD_B -->
<g id="node9" class="node">
<title>RAD_B</title>
<polygon fill="lightgray" stroke="black" points="215.5,-137.44 168.5,-137.44 168.5,-119.44 215.5,-119.44 215.5,-137.44"/>
<text text-anchor="middle" x="192" y="-126.24" font-family="Times,serif" font-size="9.00">RAD_B</text>
</g>
<!-- RAD_B&#45;&gt;VEL -->
<g id="edge3" class="edge">
<title>RAD_B&#45;&gt;VEL</title>
<path fill="none" stroke="red" stroke-width="0.28" d="M186.15,-119.32C178.08,-108.1 163.11,-87.32 150.81,-70.23"/>
<polygon fill="red" stroke="red" stroke-width="0.28" points="153.35,-67.77 144.67,-61.7 147.67,-71.86 153.35,-67.77"/>
</g>
<!-- RAD_R -->
<g id="node10" class="node">
<title>RAD_R</title>
<polygon fill="lightgray" stroke="black" points="589.5,-137.44 542.5,-137.44 542.5,-119.44 589.5,-119.44 589.5,-137.44"/>
<text text-anchor="middle" x="566" y="-126.24" font-family="Times,serif" font-size="9.00">RAD_R</text>
</g>
</g>
</svg>
